<svg width="202" height="162" viewBox="0 0 202 162" fill="none" xmlns="http://www.w3.org/2000/svg">
<g opacity="0.25">
<path d="M118.877 4.49341L142.15 27.7662L201.994 27.7662L201.994 29.0129L141.319 29.0129L118.046 6.15577L85.2148 6.15576L85.2148 4.49341L118.877 4.49341Z" fill="url(#paint0_linear_251_384)"/>
<path d="M66.935 38.1557L78.5714 49.7921L144.649 49.7921L184.961 9.48038L202 9.48038L202 11.1427L185.377 11.1427L145.065 51.4544L78.1558 51.4544L66.1038 39.818L17.4805 39.818L17.4805 38.1557L66.935 38.1557Z" fill="url(#paint1_linear_251_384)"/>
<path d="M115.553 36.9087L194.93 116.285L201.995 116.285L201.995 117.948L194.514 117.948L115.138 38.571L86.0469 38.571L86.0469 36.9087L115.553 36.9087Z" fill="url(#paint2_linear_251_384)"/>
<path d="M27.4521 98.4156L43.2444 82.2078L137.998 82.2078L166.673 53.5325L201.998 53.5325L201.998 56.8572L167.92 56.8572L139.244 85.5325L44.4912 85.5325L28.6989 101.74L5.84179 101.74L5.84179 98.4156L27.4521 98.4156Z" fill="url(#paint3_linear_251_384)"/>
<path d="M108.486 58.5194L156.278 105.896L201.993 105.896L201.993 109.221L155.032 109.221L107.239 61.4285L52.3823 61.4285L52.3823 58.5194L108.486 58.5194Z" fill="url(#paint4_linear_251_384)"/>
<path d="M41.1664 120.026L5.84179 120.026L5.84179 118.779L40.3353 118.779L63.608 95.0905L130.933 95.0905L130.933 96.7528L64.4392 96.7528L41.1664 120.026Z" fill="url(#paint5_linear_251_384)"/>
<path d="M86.4624 125.013L111.397 125.013L135.501 149.117L197.008 149.117L201.995 153.688L201.995 156.182L196.592 150.779L135.086 150.779L110.982 126.675L86.4624 126.675L86.4624 125.013Z" fill="url(#paint6_linear_251_384)"/>
<path d="M66.1001 158.675L148.801 158.675L179.139 127.922L201.996 127.922L201.996 129.584L179.97 129.584L149.217 160.338L66.1001 160.338L66.1001 158.675Z" fill="url(#paint7_linear_251_384)"/>
<path d="M88.5463 5.32455C88.5463 5.32455 87.2996 8.64925 85.2216 8.64925C83.1437 8.64925 81.897 7.40247 81.897 5.32455C81.897 3.24663 83.1437 1.99988 85.2216 1.99988C87.2996 1.99988 88.5463 3.66221 88.5463 5.32455Z" fill="url(#paint8_linear_251_384)"/>
<path d="M89.7949 38.5713C89.7949 38.5713 88.1325 41.4803 86.4702 41.8959C84.8078 41.8959 83.1455 40.2336 83.1455 38.5713C83.1455 36.9089 84.3923 35.2466 86.4702 35.2466C88.1325 35.2466 89.7949 36.4933 89.7949 38.5713Z" fill="url(#paint9_linear_251_384)"/>
<path d="M9.58051 119.195C9.58051 119.195 8.33369 122.519 6.67135 122.519C5.00901 122.519 3.34668 121.273 3.34668 119.195C3.34668 117.532 5.00901 115.87 6.67135 115.87C8.33369 115.87 9.58051 117.532 9.58051 119.195Z" fill="url(#paint10_linear_251_384)"/>
<path d="M90.2011 125.428C90.2011 125.428 88.9543 128.753 86.8764 128.753C84.7985 128.753 83.9673 127.091 83.5518 125.428C83.5518 123.766 84.7985 122.104 86.8764 122.104C88.5388 122.104 90.2011 123.35 90.2011 125.428Z" fill="url(#paint11_linear_251_384)"/>
<path d="M69.8368 159.091C69.8368 159.091 68.1745 162 66.5122 162C64.8498 162 63.1875 160.338 63.1875 159.091C63.1875 157.428 64.4342 155.766 66.5122 155.766C68.5901 155.766 69.4213 157.013 69.8368 159.091Z" fill="url(#paint12_linear_251_384)"/>
<path d="M21.6332 38.9869C21.6332 38.9869 19.9708 42.3116 18.3085 42.3116C16.6462 42.3116 15.3994 41.0648 15.3994 38.9869C15.3994 36.909 16.6462 35.6622 18.3085 35.6622C19.9708 35.6622 21.6332 36.909 21.6332 38.9869Z" fill="url(#paint13_linear_251_384)"/>
<path d="M56.9592 59.7661C56.9592 62.2596 54.8813 64.3376 52.3878 64.3376C49.8943 64.3376 47.8164 62.2596 47.8164 59.7661C47.8164 57.2726 49.8943 55.1947 52.3878 55.1947C54.8813 55.1947 56.9592 57.2726 56.9592 59.7661Z" fill="url(#paint14_linear_251_384)"/>
<path d="M180.803 40.6491C180.803 43.1426 178.725 45.2205 176.232 45.2205C173.738 45.2205 171.66 43.1426 171.66 40.6491C171.66 38.1556 173.738 36.0776 176.232 36.0776C178.725 36.0776 180.803 38.1556 180.803 40.6491Z" fill="url(#paint15_linear_251_384)"/>
<path d="M9.99292 100.078C9.99292 102.571 7.91506 104.649 5.42155 104.649C2.92804 104.649 0.850096 102.571 0.850097 100.078C0.850097 97.5843 2.92805 95.5063 5.42155 95.5063C7.91506 95.5063 9.99293 97.5843 9.99292 100.078Z" fill="url(#paint16_linear_251_384)"/>
</g>
<rect x="201.85" y="162" width="122" height="162" transform="rotate(-180 201.85 162)" fill="url(#paint17_linear_251_384)"/>
<defs>
<linearGradient id="paint0_linear_251_384" x1="-265.954" y1="16.9609" x2="389.838" y2="16.961" gradientUnits="userSpaceOnUse">
<stop stop-color="#3AA2B7"/>
<stop offset="1" stop-color="#4D5E96"/>
</linearGradient>
<linearGradient id="paint1_linear_251_384" x1="-265.948" y1="30.6751" x2="389.844" y2="30.6752" gradientUnits="userSpaceOnUse">
<stop stop-color="#3AA2B7"/>
<stop offset="1" stop-color="#4D5E96"/>
</linearGradient>
<linearGradient id="paint2_linear_251_384" x1="-265.953" y1="77.6359" x2="389.839" y2="77.636" gradientUnits="userSpaceOnUse">
<stop stop-color="#3AA2B7"/>
<stop offset="1" stop-color="#4D5E96"/>
</linearGradient>
<linearGradient id="paint3_linear_251_384" x1="-265.95" y1="77.6363" x2="389.842" y2="77.6364" gradientUnits="userSpaceOnUse">
<stop stop-color="#3AA2B7"/>
<stop offset="1" stop-color="#4D5E96"/>
</linearGradient>
<linearGradient id="paint4_linear_251_384" x1="-265.955" y1="83.87" x2="389.837" y2="83.8701" gradientUnits="userSpaceOnUse">
<stop stop-color="#3AA2B7"/>
<stop offset="1" stop-color="#4D5E96"/>
</linearGradient>
<linearGradient id="paint5_linear_251_384" x1="-266.366" y1="107.558" x2="389.842" y2="107.558" gradientUnits="userSpaceOnUse">
<stop stop-color="#3AA2B7"/>
<stop offset="1" stop-color="#4D5E96"/>
</linearGradient>
<linearGradient id="paint6_linear_251_384" x1="-265.953" y1="140.389" x2="389.839" y2="140.389" gradientUnits="userSpaceOnUse">
<stop stop-color="#3AA2B7"/>
<stop offset="1" stop-color="#4D5E96"/>
</linearGradient>
<linearGradient id="paint7_linear_251_384" x1="-265.952" y1="144.13" x2="389.84" y2="144.13" gradientUnits="userSpaceOnUse">
<stop stop-color="#3AA2B7"/>
<stop offset="1" stop-color="#4D5E96"/>
</linearGradient>
<linearGradient id="paint8_linear_251_384" x1="-266.362" y1="5.32449" x2="389.845" y2="5.32461" gradientUnits="userSpaceOnUse">
<stop stop-color="#3AA2B7"/>
<stop offset="1" stop-color="#4D5E96"/>
</linearGradient>
<linearGradient id="paint9_linear_251_384" x1="-266.361" y1="38.5712" x2="389.846" y2="38.5713" gradientUnits="userSpaceOnUse">
<stop stop-color="#3AA2B7"/>
<stop offset="1" stop-color="#4D5E96"/>
</linearGradient>
<linearGradient id="paint10_linear_251_384" x1="-265.955" y1="119.195" x2="389.844" y2="119.195" gradientUnits="userSpaceOnUse">
<stop stop-color="#3AA2B7"/>
<stop offset="1" stop-color="#4D5E96"/>
</linearGradient>
<linearGradient id="paint11_linear_251_384" x1="-265.954" y1="125.428" x2="389.837" y2="125.428" gradientUnits="userSpaceOnUse">
<stop stop-color="#3AA2B7"/>
<stop offset="1" stop-color="#4D5E96"/>
</linearGradient>
<linearGradient id="paint12_linear_251_384" x1="-265.955" y1="159.091" x2="389.836" y2="159.091" gradientUnits="userSpaceOnUse">
<stop stop-color="#3AA2B7"/>
<stop offset="1" stop-color="#4D5E96"/>
</linearGradient>
<linearGradient id="paint13_linear_251_384" x1="-265.535" y1="38.9869" x2="389.424" y2="38.987" gradientUnits="userSpaceOnUse">
<stop stop-color="#3AA2B7"/>
<stop offset="1" stop-color="#4D5E96"/>
</linearGradient>
<linearGradient id="paint14_linear_251_384" x1="-265.949" y1="60.1817" x2="389.426" y2="60.1818" gradientUnits="userSpaceOnUse">
<stop stop-color="#3AA2B7"/>
<stop offset="1" stop-color="#4D5E96"/>
</linearGradient>
<linearGradient id="paint15_linear_251_384" x1="-265.949" y1="40.649" x2="389.841" y2="40.6491" gradientUnits="userSpaceOnUse">
<stop stop-color="#3AA2B7"/>
<stop offset="1" stop-color="#4D5E96"/>
</linearGradient>
<linearGradient id="paint16_linear_251_384" x1="-266.37" y1="100.078" x2="390.251" y2="100.078" gradientUnits="userSpaceOnUse">
<stop stop-color="#3AA2B7"/>
<stop offset="1" stop-color="#4D5E96"/>
</linearGradient>
<linearGradient id="paint17_linear_251_384" x1="201.85" y1="243" x2="323.85" y2="243" gradientUnits="userSpaceOnUse">
<stop/>
<stop offset="1" stop-opacity="0"/>
</linearGradient>
</defs>
</svg>
