<svg width="202" height="162" viewBox="0 0 202 162" fill="none" xmlns="http://www.w3.org/2000/svg">
<g opacity="0.25">
<path d="M83.1224 157.507L59.8497 134.234L0.00547994 134.234L0.00548005 132.987L60.6808 132.987L83.9535 155.844L116.785 155.844L116.785 157.507L83.1224 157.507Z" fill="url(#paint0_linear_251_364)"/>
<path d="M135.065 123.844L123.428 112.208L57.3504 112.208L17.0388 152.52L-0.000198364 152.52L-0.000198219 150.857L16.6232 150.857L56.9349 110.545L123.844 110.545L135.896 122.182L184.519 122.182L184.519 123.844L135.065 123.844Z" fill="url(#paint1_linear_251_364)"/>
<path d="M86.4464 125.091L7.06982 45.7145L0.00487449 45.7145L0.00487464 44.0522L7.48541 44.0522L86.862 123.429L115.953 123.429L115.953 125.091L86.4464 125.091Z" fill="url(#paint2_linear_251_364)"/>
<path d="M174.548 63.5843L158.755 79.7921L64.0021 79.7921L35.3268 108.467L0.00215149 108.467L0.00215178 105.143L34.08 105.143L62.7554 76.4674L157.509 76.4674L173.301 60.2596L196.158 60.2596L196.158 63.5843L174.548 63.5843Z" fill="url(#paint3_linear_251_364)"/>
<path d="M93.5133 103.48L45.7211 56.1038L0.00677904 56.1038L0.00677933 52.7792L46.9678 52.7792L94.7601 100.571L149.617 100.571L149.617 103.48L93.5133 103.48Z" fill="url(#paint4_linear_251_364)"/>
<path d="M160.833 41.9743L196.158 41.9743L196.158 43.2211L161.664 43.2211L138.392 66.9094L71.0671 66.9094L71.0671 65.2471L137.561 65.2471L160.833 41.9743Z" fill="url(#paint5_linear_251_364)"/>
<path d="M115.537 36.9872L90.602 36.9872L66.4981 12.8833L4.99169 12.8833L0.00464118 8.31181L0.0046414 5.81832L5.4072 11.2209L66.9137 11.2209L91.0176 35.3248L115.537 35.3248L115.537 36.9872Z" fill="url(#paint6_linear_251_364)"/>
<path d="M135.899 3.32483L53.1981 3.32483L22.8604 34.0781L0.0032959 34.0781L0.00329604 32.4158L22.0293 32.4158L52.7825 1.66249L135.899 1.6625L135.899 3.32483Z" fill="url(#paint7_linear_251_364)"/>
<path d="M113.453 156.675C113.453 156.675 114.7 153.351 116.778 153.351C118.856 153.351 120.103 154.597 120.103 156.675C120.103 158.753 118.856 160 116.778 160C114.7 160 113.453 158.338 113.453 156.675Z" fill="url(#paint8_linear_251_364)"/>
<path d="M112.205 123.429C112.205 123.429 113.867 120.52 115.529 120.104C117.192 120.104 118.854 121.766 118.854 123.429C118.854 125.091 117.607 126.753 115.529 126.753C113.867 126.753 112.205 125.507 112.205 123.429Z" fill="url(#paint9_linear_251_364)"/>
<path d="M192.419 42.8052C192.419 42.8052 193.666 39.4805 195.328 39.4805C196.991 39.4805 198.653 40.7273 198.653 42.8052C198.653 44.4675 196.991 46.1299 195.328 46.1299C193.666 46.1299 192.419 44.4675 192.419 42.8052Z" fill="url(#paint10_linear_251_364)"/>
<path d="M111.799 36.5716C111.799 36.5716 113.046 33.2469 115.124 33.2469C117.201 33.2469 118.033 34.9092 118.448 36.5716C118.448 38.2339 117.201 39.8962 115.124 39.8962C113.461 39.8962 111.799 38.6495 111.799 36.5716Z" fill="url(#paint11_linear_251_364)"/>
<path d="M132.163 2.90909C132.163 2.90909 133.825 -2.80925e-05 135.487 -2.79472e-05C137.15 -2.78019e-05 138.812 1.66234 138.812 2.90909C138.812 4.57143 137.565 6.23376 135.487 6.23376C133.409 6.23376 132.578 4.98701 132.163 2.90909Z" fill="url(#paint12_linear_251_364)"/>
<path d="M180.367 123.013C180.367 123.013 182.029 119.688 183.691 119.688C185.354 119.688 186.6 120.935 186.6 123.013C186.6 125.091 185.354 126.338 183.691 126.338C182.029 126.338 180.367 125.091 180.367 123.013Z" fill="url(#paint13_linear_251_364)"/>
<path d="M145.041 102.234C145.041 99.7402 147.118 97.6623 149.612 97.6623C152.105 97.6623 154.183 99.7402 154.183 102.234C154.183 104.727 152.105 106.805 149.612 106.805C147.118 106.805 145.041 104.727 145.041 102.234Z" fill="url(#paint14_linear_251_364)"/>
<path d="M21.1965 121.351C21.1965 118.857 23.2745 116.779 25.768 116.779C28.2615 116.779 30.3394 118.857 30.3394 121.351C30.3394 123.844 28.2615 125.922 25.768 125.922C23.2745 125.922 21.1965 123.844 21.1965 121.351Z" fill="url(#paint15_linear_251_364)"/>
<path d="M192.007 61.9221C192.007 59.4286 194.085 57.3507 196.578 57.3507C199.072 57.3507 201.15 59.4286 201.15 61.9221C201.15 64.4156 199.072 66.4935 196.578 66.4935C194.085 66.4935 192.007 64.4156 192.007 61.9221Z" fill="url(#paint16_linear_251_364)"/>
</g>
<rect x="0.149658" width="122" height="162" fill="url(#paint17_linear_251_364)"/>
<defs>
<linearGradient id="paint0_linear_251_364" x1="467.953" y1="145.039" x2="-187.839" y2="145.039" gradientUnits="userSpaceOnUse">
<stop stop-color="#3AA2B7"/>
<stop offset="1" stop-color="#4D5E96"/>
</linearGradient>
<linearGradient id="paint1_linear_251_364" x1="467.948" y1="131.325" x2="-187.844" y2="131.325" gradientUnits="userSpaceOnUse">
<stop stop-color="#3AA2B7"/>
<stop offset="1" stop-color="#4D5E96"/>
</linearGradient>
<linearGradient id="paint2_linear_251_364" x1="467.953" y1="84.3639" x2="-187.839" y2="84.3639" gradientUnits="userSpaceOnUse">
<stop stop-color="#3AA2B7"/>
<stop offset="1" stop-color="#4D5E96"/>
</linearGradient>
<linearGradient id="paint3_linear_251_364" x1="467.95" y1="84.3635" x2="-187.842" y2="84.3635" gradientUnits="userSpaceOnUse">
<stop stop-color="#3AA2B7"/>
<stop offset="1" stop-color="#4D5E96"/>
</linearGradient>
<linearGradient id="paint4_linear_251_364" x1="467.955" y1="78.1298" x2="-187.837" y2="78.1298" gradientUnits="userSpaceOnUse">
<stop stop-color="#3AA2B7"/>
<stop offset="1" stop-color="#4D5E96"/>
</linearGradient>
<linearGradient id="paint5_linear_251_364" x1="468.366" y1="54.4419" x2="-187.842" y2="54.4418" gradientUnits="userSpaceOnUse">
<stop stop-color="#3AA2B7"/>
<stop offset="1" stop-color="#4D5E96"/>
</linearGradient>
<linearGradient id="paint6_linear_251_364" x1="467.953" y1="21.6106" x2="-187.84" y2="21.6105" gradientUnits="userSpaceOnUse">
<stop stop-color="#3AA2B7"/>
<stop offset="1" stop-color="#4D5E96"/>
</linearGradient>
<linearGradient id="paint7_linear_251_364" x1="467.951" y1="17.8703" x2="-187.841" y2="17.8703" gradientUnits="userSpaceOnUse">
<stop stop-color="#3AA2B7"/>
<stop offset="1" stop-color="#4D5E96"/>
</linearGradient>
<linearGradient id="paint8_linear_251_364" x1="468.362" y1="156.675" x2="-187.845" y2="156.675" gradientUnits="userSpaceOnUse">
<stop stop-color="#3AA2B7"/>
<stop offset="1" stop-color="#4D5E96"/>
</linearGradient>
<linearGradient id="paint9_linear_251_364" x1="468.36" y1="123.429" x2="-187.847" y2="123.429" gradientUnits="userSpaceOnUse">
<stop stop-color="#3AA2B7"/>
<stop offset="1" stop-color="#4D5E96"/>
</linearGradient>
<linearGradient id="paint10_linear_251_364" x1="467.954" y1="42.8052" x2="-187.844" y2="42.8052" gradientUnits="userSpaceOnUse">
<stop stop-color="#3AA2B7"/>
<stop offset="1" stop-color="#4D5E96"/>
</linearGradient>
<linearGradient id="paint11_linear_251_364" x1="467.954" y1="36.5716" x2="-187.837" y2="36.5715" gradientUnits="userSpaceOnUse">
<stop stop-color="#3AA2B7"/>
<stop offset="1" stop-color="#4D5E96"/>
</linearGradient>
<linearGradient id="paint12_linear_251_364" x1="467.954" y1="2.90911" x2="-187.837" y2="2.90905" gradientUnits="userSpaceOnUse">
<stop stop-color="#3AA2B7"/>
<stop offset="1" stop-color="#4D5E96"/>
</linearGradient>
<linearGradient id="paint13_linear_251_364" x1="467.535" y1="123.013" x2="-187.425" y2="123.013" gradientUnits="userSpaceOnUse">
<stop stop-color="#3AA2B7"/>
<stop offset="1" stop-color="#4D5E96"/>
</linearGradient>
<linearGradient id="paint14_linear_251_364" x1="467.949" y1="101.818" x2="-187.426" y2="101.818" gradientUnits="userSpaceOnUse">
<stop stop-color="#3AA2B7"/>
<stop offset="1" stop-color="#4D5E96"/>
</linearGradient>
<linearGradient id="paint15_linear_251_364" x1="467.948" y1="121.351" x2="-187.842" y2="121.351" gradientUnits="userSpaceOnUse">
<stop stop-color="#3AA2B7"/>
<stop offset="1" stop-color="#4D5E96"/>
</linearGradient>
<linearGradient id="paint16_linear_251_364" x1="468.37" y1="61.9221" x2="-188.252" y2="61.9221" gradientUnits="userSpaceOnUse">
<stop stop-color="#3AA2B7"/>
<stop offset="1" stop-color="#4D5E96"/>
</linearGradient>
<linearGradient id="paint17_linear_251_364" x1="0.149658" y1="81" x2="122.15" y2="81" gradientUnits="userSpaceOnUse">
<stop/>
<stop offset="1" stop-opacity="0"/>
</linearGradient>
</defs>
</svg>
