<svg width="132" height="24" viewBox="0 0 132 24" fill="none" xmlns="http://www.w3.org/2000/svg">
<g clip-path="url(#clip0_1_6618)">
<path d="M72.3973 23.9992C71.062 23.9992 69.8499 23.7821 68.761 23.3479C67.6928 22.893 66.7683 22.2831 65.9877 21.518C65.2275 20.7322 64.642 19.8121 64.2311 18.7575C63.8203 17.703 63.6148 16.5658 63.6148 15.3459C63.6148 14.1052 63.8305 12.9576 64.2619 11.9031C64.7139 10.8279 65.32 9.89742 66.0801 9.11168C66.8607 8.32592 67.7749 7.7056 68.8227 7.2507C69.8909 6.7958 71.0517 6.56836 72.3048 6.56836C73.5169 6.56836 74.6366 6.78546 75.6638 7.21968C76.7115 7.63323 77.6052 8.22253 78.3447 8.98757C79.1049 9.732 79.7007 10.6314 80.132 11.6859C80.5634 12.7198 80.7791 13.8571 80.7791 15.0977V16.2453H66.0801C66.1622 17.0517 66.3779 17.7857 66.7272 18.4474C67.0764 19.1091 67.5182 19.6881 68.0523 20.1843C68.607 20.6599 69.2438 21.0321 69.9629 21.3009C70.7024 21.5697 71.5139 21.7041 72.3973 21.7041C73.7326 21.7041 74.8523 21.425 75.7562 20.8666C76.6602 20.3084 77.3997 19.5123 77.975 18.4785L80.132 19.7501C79.2692 21.0941 78.2215 22.1383 76.9889 22.8827C75.7563 23.6271 74.2257 23.9992 72.3973 23.9992ZM72.3048 8.83251C71.5036 8.83251 70.7538 8.96691 70.0553 9.23571C69.3773 9.48385 68.7713 9.84565 68.2372 10.3213C67.7031 10.7762 67.2511 11.3241 66.8812 11.9651C66.532 12.5854 66.2855 13.2678 66.1417 14.0121H78.1907C77.9852 12.42 77.3586 11.1587 76.3109 10.2282C75.2632 9.29777 73.9278 8.83251 72.3048 8.83251Z" fill="#DCE0D2"/>
<path d="M54.9876 15.4979L51.4439 19.2819V23.6551H48.9478V0H51.4439V16.3664L60.2571 6.90651H63.4312L56.8366 13.9161L63.8318 23.6551H60.781L54.9876 15.4979Z" fill="#DCE0D2"/>
<path d="M38.8301 23.9992C37.5974 23.9992 36.4469 23.7718 35.3786 23.3169C34.3104 22.862 33.3859 22.2417 32.6053 21.4559C31.8246 20.6703 31.2083 19.7501 30.7563 18.6956C30.3249 17.641 30.1092 16.5038 30.1092 15.2838C30.1092 14.0432 30.3351 12.8956 30.7871 11.8411C31.2391 10.7658 31.8554 9.84565 32.636 9.08065C33.4167 8.2949 34.3309 7.68492 35.3786 7.2507C36.4469 6.7958 37.5871 6.56836 38.7992 6.56836C39.7031 6.56836 40.5557 6.69242 41.3569 6.94055C42.1787 7.18867 42.9285 7.54019 43.6065 7.99508C44.2844 8.4293 44.8802 8.96691 45.3938 9.60788C45.9279 10.2282 46.349 10.9106 46.6572 11.6549L44.346 12.6785C43.8529 11.5205 43.1237 10.6107 42.1582 9.94911C41.1926 9.2874 40.0627 8.95654 38.7684 8.95654C37.9055 8.95654 37.094 9.12197 36.334 9.45283C35.5943 9.78368 34.9472 10.2386 34.3926 10.8175C33.8379 11.3758 33.4065 12.0478 33.0983 12.8336C32.7902 13.5986 32.636 14.4153 32.636 15.2838C32.636 16.1523 32.7902 16.969 33.0983 17.734C33.427 18.4991 33.8687 19.1711 34.4234 19.7501C34.978 20.329 35.6355 20.7839 36.3955 21.1148C37.1557 21.4456 37.9774 21.6111 38.8608 21.6111C40.2167 21.6111 41.3569 21.2492 42.2814 20.5255C43.2264 19.7811 43.9351 18.8506 44.4077 17.734L46.7496 18.7266C46.0923 20.2773 45.0856 21.549 43.7297 22.5415C42.3944 23.5133 40.7612 23.9992 38.8301 23.9992Z" fill="#DCE0D2"/>
<path d="M20.3023 23.9992C19.0697 23.9992 17.9295 23.7821 16.8818 23.3479C15.834 22.893 14.9198 22.2727 14.1392 21.4869C13.3791 20.7012 12.773 19.7811 12.3211 18.7266C11.8896 17.6721 11.6739 16.5244 11.6739 15.2838C11.6739 14.0638 11.8896 12.9266 12.3211 11.872C12.773 10.7968 13.3893 9.8664 14.17 9.08065C14.9507 8.2949 15.8649 7.68492 16.9126 7.2507C17.9604 6.7958 19.0903 6.56836 20.3023 6.56836C21.5144 6.56836 22.6443 6.7958 23.6921 7.2507C24.7603 7.68492 25.6848 8.2949 26.4655 9.08065C27.2462 9.8664 27.8522 10.7968 28.2836 11.872C28.7356 12.9266 28.9616 14.0638 28.9616 15.2838C28.9616 16.5038 28.7356 17.641 28.2836 18.6956C27.8522 19.7501 27.2462 20.6703 26.4655 21.4559C25.6848 22.2417 24.7706 22.862 23.7229 23.3169C22.6751 23.7718 21.5349 23.9992 20.3023 23.9992ZM20.3023 21.58C21.1651 21.58 21.9663 21.425 22.706 21.1148C23.466 20.7839 24.1132 20.3394 24.6473 19.7811C25.202 19.2021 25.6335 18.5301 25.9416 17.7651C26.2498 17 26.4038 16.1729 26.4038 15.2838C26.4038 14.3947 26.2498 13.5676 25.9416 12.8025C25.6335 12.0168 25.202 11.3448 24.6473 10.7865C24.0927 10.2075 23.4455 9.76303 22.706 9.45283C21.9663 9.12197 21.1651 8.95654 20.3023 8.95654C19.4395 8.95654 18.6382 9.12197 17.8987 9.45283C17.1592 9.76303 16.512 10.2075 15.9573 10.7865C15.4231 11.3448 15.002 12.0168 14.6938 12.8025C14.3857 13.5676 14.2317 14.3947 14.2317 15.2838C14.2317 16.1936 14.3857 17.031 14.6938 17.7961C15.002 18.5612 15.4231 19.2228 15.9573 19.7811C16.512 20.3394 17.1592 20.7839 17.8987 21.1148C18.6382 21.425 19.4395 21.58 20.3023 21.58Z" fill="#DCE0D2"/>
<path d="M0 9.1499H2.27117V23.6271H0V9.1499Z" fill="#DCE0D2"/>
<path d="M2.26959 9.1499V6.86399H11.7326V9.1499H2.26959Z" fill="#DCE0D2"/>
<path d="M85.0623 2.94922V18.6035C85.0623 20.4645 85.4627 21.8188 86.2641 22.6666C87.0655 23.4936 88.2364 23.9072 89.777 23.9072C90.4753 23.9072 91.1021 23.8038 91.6565 23.5971C92.2118 23.3903 92.7253 23.1008 93.1979 22.7286L91.8728 20.7125C91.2971 21.2502 90.6601 21.519 89.9618 21.519C89.2431 21.519 88.6571 21.2915 88.2058 20.8367C87.774 20.3818 87.5586 19.6167 87.5586 18.5415V9.33809H93.1979V6.91053H87.5586V2.94923L85.0623 2.94922Z" fill="#DCE0D2"/>
<path d="M84.0386 6.90283H81.3889V9.46542H84.0386V6.90283Z" fill="#DCE0D2"/>
<path d="M104.468 4.18701H110.643V8.07158H104.468V4.18701Z" fill="#DCE0D2"/>
<path d="M121.062 4.18701H127.237V8.07158H121.062V4.18701Z" fill="#DCE0D2"/>
<path d="M104.468 20.1152H110.643V23.9998H104.468V20.1152Z" fill="#DCE0D2"/>
<path d="M121.062 20.1152H127.237V23.9998H121.062V20.1152Z" fill="#DCE0D2"/>
<path d="M121.059 20.1152H117.586V15.8422H121.059V20.1152Z" fill="#DCE0D2"/>
<path d="M121.059 12.3413H117.586V8.06828H121.059V12.3413Z" fill="#DCE0D2"/>
<path d="M114.124 20.1152H110.65V15.8422H114.124V20.1152Z" fill="#DCE0D2"/>
<path d="M114.124 12.3413H110.65V8.06828H114.124V12.3413Z" fill="#DCE0D2"/>
<path d="M114.124 12.3413H117.597V15.8374H114.124V12.3413Z" fill="#DCE0D2"/>
</g>
<defs>
<clipPath id="clip0_1_6618">
<rect width="132" height="24" fill="white"/>
</clipPath>
</defs>
</svg>
