<svg width="148" height="30" viewBox="0 0 148 30" fill="none" xmlns="http://www.w3.org/2000/svg">
<g clip-path="url(#clip0_1_6546)">
<path d="M54.9038 16.0649C54.9038 18.1955 54.1244 19.9709 52.5659 21.3914L54.2387 23.0999H52.324L51.4574 22.2155C50.3422 22.8989 49.1462 23.2406 47.8699 23.2406C46.056 23.2406 44.4234 22.5572 42.9723 21.1904C41.5347 19.8101 40.8158 18.1016 40.8158 16.0649C40.8158 14.0281 41.5347 12.3263 42.9723 10.9595C44.4234 9.57925 46.056 8.88916 47.8699 8.88916C49.7241 8.88916 51.3566 9.57256 52.7674 10.9394C54.1917 12.3062 54.9038 14.0147 54.9038 16.0649ZM47.8699 21.6527C48.7702 21.6527 49.583 21.4517 50.3086 21.0497L47.3257 17.9945H49.2404L51.4372 20.2457C52.5659 19.1603 53.1302 17.7667 53.1302 16.0649C53.1302 14.4301 52.6128 13.0901 51.5783 12.0449C50.557 10.9863 49.321 10.457 47.8699 10.457C46.4994 10.457 45.2766 10.9863 44.2017 12.0449C43.1402 13.1035 42.6095 14.4434 42.6095 16.0649C42.6095 17.6729 43.1402 19.0061 44.2017 20.0648C45.2766 21.1234 46.4994 21.6527 47.8699 21.6527ZM65.6828 12.6479H67.2952V23.0999H65.6828V20.5673C65.5486 21.1435 65.1456 21.7331 64.4735 22.3361C63.8018 22.9391 62.9553 23.2406 61.9341 23.2406C60.8054 23.2406 59.8717 22.8788 59.1326 22.1552C58.3938 21.4316 58.0241 20.3126 58.0241 18.7985V12.6479H59.6365V18.7583C59.6365 19.8169 59.8651 20.594 60.3217 21.0899C60.7787 21.5857 61.3968 21.8336 62.1759 21.8336C63.0495 21.8336 63.8084 21.4985 64.4534 20.8286C65.0983 20.1452 65.5083 19.4081 65.6828 18.6176V12.6479ZM72.4186 9.02986V10.5374H70.7861V9.02986H72.4186ZM72.4186 12.6479V23.0999H70.7861V12.6479H72.4186ZM77.6949 9.02986V23.0999H76.0624V9.02986H77.6949ZM82.8752 9.02986V23.0999H81.2427V9.02986H82.8752ZM97.2459 23.0999L95.4925 19.1804H89.2043L87.4508 23.0999H85.6571L92.167 9.02986H92.5298L99.0195 23.0999H97.2459ZM89.8291 17.7734H94.8677L92.3484 12.1052L89.8291 17.7734ZM109.2 12.6479H110.813V23.0999H109.2V20.5673C109.066 21.1435 108.663 21.7331 107.991 22.3361C107.319 22.9391 106.472 23.2406 105.451 23.2406C104.323 23.2406 103.389 22.8788 102.65 22.1552C101.911 21.4316 101.542 20.3126 101.542 18.7985V12.6479H103.154V18.7583C103.154 19.8169 103.382 20.594 103.839 21.0899C104.296 21.5857 104.914 21.8336 105.693 21.8336C106.567 21.8336 107.326 21.4985 107.971 20.8286C108.616 20.1452 109.025 19.4081 109.2 18.6176V12.6479ZM122.405 9.02986H124.018V23.0999H122.405V21.0497C122.123 21.6929 121.653 22.2221 120.995 22.6376C120.336 23.0396 119.604 23.2406 118.798 23.2406C117.535 23.2406 116.392 22.7648 115.371 21.8135C114.35 20.8621 113.84 19.5488 113.84 17.8739C113.84 17.0162 113.994 16.2391 114.303 15.5423C114.612 14.8321 115.009 14.2693 115.492 13.8539C115.976 13.4251 116.5 13.0967 117.064 12.869C117.642 12.6412 118.22 12.5273 118.798 12.5273C119.617 12.5273 120.356 12.7216 121.015 13.1102C121.673 13.4987 122.136 14.008 122.405 14.6378V9.02986ZM116.54 20.7884C117.266 21.4852 118.085 21.8336 118.999 21.8336C119.913 21.8336 120.719 21.4985 121.418 20.8286C122.116 20.1452 122.466 19.1603 122.466 17.8739C122.466 16.5875 122.116 15.6092 121.418 14.9393C120.719 14.2693 119.913 13.9343 118.999 13.9343C118.085 13.9343 117.266 14.2826 116.54 14.9795C115.815 15.6763 115.452 16.6411 115.452 17.8739C115.452 19.1066 115.815 20.0782 116.54 20.7884ZM129.028 9.02986V10.5374H127.396V9.02986H129.028ZM129.028 12.6479V23.0999H127.396V12.6479H129.028ZM135.796 21.8135C136.253 21.8135 136.716 21.7063 137.187 21.4919V22.8587C136.703 23.0999 136.105 23.2205 135.393 23.2205C134.036 23.2205 133.357 22.4768 133.357 20.9894V13.9745H132.067V12.6479H133.357V10.8389H134.97V12.6479H137.167V13.9745H134.97V20.8487C134.97 21.4919 135.245 21.8135 135.796 21.8135ZM145.458 15.1403C144.987 14.3095 144.289 13.8941 143.361 13.8941C142.851 13.8941 142.434 14.0281 142.112 14.2961C141.803 14.5507 141.648 14.8655 141.648 15.2408C141.648 15.5891 141.756 15.884 141.971 16.1252C142.199 16.3664 142.589 16.5808 143.14 16.7684L144.208 17.1503C145.243 17.5121 146.015 17.9074 146.526 18.3362C147.036 18.7649 147.292 19.3948 147.292 20.2256C147.292 21.1367 146.895 21.8671 146.102 22.4165C145.31 22.9658 144.423 23.2406 143.442 23.2406C142.515 23.2406 141.668 22.9927 140.903 22.4969C140.137 22.001 139.64 21.3377 139.411 20.507L140.822 20.1251C140.997 20.6477 141.333 21.0698 141.83 21.3914C142.327 21.6995 142.865 21.8537 143.442 21.8537C144.006 21.8537 144.51 21.7063 144.954 21.4115C145.397 21.1033 145.619 20.708 145.619 20.2256C145.619 19.8101 145.478 19.4684 145.196 19.2005C144.913 18.9325 144.483 18.698 143.906 18.497L142.696 18.0749C141.729 17.7265 141.037 17.3378 140.62 16.9091C140.204 16.4803 139.996 15.9308 139.996 15.2609C139.996 14.4836 140.318 13.8338 140.963 13.3112C141.622 12.7886 142.414 12.5273 143.341 12.5273C145.021 12.5273 146.217 13.271 146.929 14.7584L145.458 15.1403Z" fill="white"/>
<path d="M31.8783 16.7344L18.0956 30L16.8767 28.125L29.9092 15.1875V15.1406L19.8301 4.92187L20.5802 2.8125L32.4878 15.0469L31.8783 16.7344Z" fill="white"/>
<path fill-rule="evenodd" clip-rule="evenodd" d="M10.4075 20.9063C10.5481 20.4375 10.7356 20.0156 10.9231 19.5937C11.7201 17.9531 12.7983 16.5 13.9703 15.1406C15.5174 13.4062 17.2519 11.8594 19.2208 10.5937C20.0647 10.0312 20.9554 9.56248 21.9399 9.23437C21.9867 9.18748 22.0805 9.18748 22.1743 9.14062L21.6117 9.84374C21.0023 10.5937 20.3459 11.3437 19.8303 12.1875C19.7834 12.2812 19.7365 12.2812 19.6427 12.2812C19.2677 12.375 18.8458 12.4687 18.4239 12.4687C18.5645 12.6562 18.7989 12.75 18.9864 12.8437C19.0802 12.8906 19.2677 12.8906 19.3146 13.0312C19.3146 13.125 19.1739 13.2656 19.1271 13.3594C19.0333 13.5937 18.8458 13.7344 18.6114 13.7812C18.2364 13.875 17.8613 13.9687 17.4394 13.9687C17.4394 14.0625 17.4863 14.0625 17.5332 14.1094C17.7676 14.2969 18.0488 14.4375 18.3301 14.5312C18.4239 14.5781 18.4239 14.625 18.377 14.7187C18.2832 14.9531 18.0957 15.0469 17.8613 15.0937C17.2519 15.2812 16.6425 15.4219 16.033 15.4687H15.9861C16.1268 15.6094 16.2674 15.7031 16.4081 15.7969C16.6893 15.9375 16.9706 16.0312 17.2988 16.125C17.3456 16.125 17.3925 16.1719 17.3456 16.2187C17.1112 16.5469 16.8768 16.875 16.5487 17.1094C16.3143 17.3438 16.033 17.3438 15.7048 17.3438H14.6266C14.3454 17.3438 14.0641 17.3438 13.7828 17.3906C13.5484 17.4375 13.3609 17.5312 13.2202 17.7187C12.7514 18.2344 12.4702 18.8906 12.142 19.5L12.0014 19.7812C11.9076 20.1563 11.6732 20.3438 11.345 20.4844C11.0638 20.5312 10.7356 20.7187 10.4075 20.9063Z" fill="white"/>
<path opacity="0.98" d="M0.562556 13.3125L14.3452 0L15.564 1.875L2.5315 14.8594V14.9063L12.6575 25.0781L11.9074 27.1875L0 15L0.562556 13.3125Z" fill="white"/>
</g>
<defs>
<clipPath id="clip0_1_6546">
<rect width="148" height="30" fill="white"/>
</clipPath>
</defs>
</svg>
