<svg width="118" height="69" viewBox="0 0 118 69" fill="none" xmlns="http://www.w3.org/2000/svg">
<path d="M45.7462 8.62891V44.1894V58.962C45.7462 59.4649 45.1393 59.7167 44.7844 59.3611L34.0795 48.6365C33.9739 48.5306 33.9146 48.3871 33.9146 48.2374V8.62891C33.9146 8.31717 34.1668 8.06445 34.478 8.06445H45.1828C45.494 8.06445 45.7462 8.31716 45.7462 8.62891Z" fill="#8B6CFE" stroke="white" stroke-width="1.50521"/>
<path d="M11.2128 9.82637L45.5809 44.258C45.6866 44.3638 45.746 44.5073 45.746 44.657V58.9621C45.746 59.465 45.1391 59.7168 44.7842 59.3612L10.416 24.9296C10.3103 24.8237 10.251 24.6802 10.251 24.5305V10.2255C10.251 9.72262 10.8579 9.47078 11.2128 9.82637Z" fill="#78CAE7" stroke="white" stroke-width="1.50521"/>
<path d="M34.4668 48.4785V32.1458L45.2051 43.0016L45.1828 58.865L34.4668 48.4785Z" fill="#6A62FD"/>
<path d="M16.3097 61.2905C20.6228 61.2905 24.1193 57.7875 24.1193 53.4664C24.1193 49.1453 20.6228 45.6423 16.3097 45.6423C11.9965 45.6423 8.5 49.1453 8.5 53.4664C8.5 57.7875 11.9965 61.2905 16.3097 61.2905Z" fill="white"/>
<path d="M16.3094 60.3702C20.1151 60.3702 23.2002 57.2794 23.2002 53.4666C23.2002 49.6538 20.1151 46.563 16.3094 46.563C12.5036 46.563 9.41846 49.6538 9.41846 53.4666C9.41846 57.2794 12.5036 60.3702 16.3094 60.3702Z" fill="#4BC3FF"/>
<path d="M82.6807 8C97.0401 8 108.681 19.6406 108.681 34C108.681 48.3594 97.0401 60 82.6807 60C68.3213 60 56.6807 48.3594 56.6807 34C56.6807 19.6406 68.3213 8 82.6807 8Z" fill="#6A62FD" stroke="white"/>
<circle cx="82.6807" cy="34" r="14" fill="black" stroke="white"/>
<path d="M10.5 0.5H2.5C1.39543 0.5 0.5 1.39543 0.5 2.5V10.5" stroke="white"/>
<path d="M0.5 58.5L0.5 66.5C0.5 67.6046 1.39543 68.5 2.5 68.5L10.5 68.5" stroke="white"/>
<path d="M107.5 68.5L115.5 68.5C116.605 68.5 117.5 67.6046 117.5 66.5L117.5 58.5" stroke="white"/>
<path d="M117.5 10.5L117.5 2.5C117.5 1.39543 116.605 0.5 115.5 0.5L107.5 0.5" stroke="white"/>
</svg>
