<svg width="36" height="36" viewBox="0 0 36 36" fill="none" xmlns="http://www.w3.org/2000/svg">
<path fill-rule="evenodd" clip-rule="evenodd" d="M13.5451 12.7466H19.9806V15.9522C20.9077 14.1086 23.285 12.452 26.8563 12.452C33.7025 12.452 35.3278 16.122 35.3278 22.8556V35.3264H28.3967V24.3891C28.3967 20.5545 27.4697 18.392 25.1097 18.392C21.8365 18.392 20.4762 20.7225 20.4762 24.3874V35.3264H13.5451V12.7466ZM1.66004 35.0318H8.59114V12.452H1.66004V35.0318ZM9.58401 5.08947C9.58427 5.67043 9.46905 6.24564 9.24506 6.78167C9.02107 7.31771 8.69277 7.80388 8.27924 8.21193C7.86448 8.62453 7.37249 8.95137 6.83137 9.17376C6.29025 9.39615 5.71062 9.50974 5.12559 9.50804C3.94661 9.50539 2.81565 9.04069 1.97541 8.21366C1.56353 7.80411 1.23644 7.31738 1.01285 6.7813C0.789257 6.24521 0.673556 5.67031 0.672363 5.08947C0.672363 3.91638 1.14021 2.79355 1.97714 1.96528C2.81529 1.13508 3.94761 0.669817 5.12732 0.6709C6.30907 0.6709 7.44231 1.13702 8.27924 1.96528C9.11617 2.79355 9.58401 3.91638 9.58401 5.08947Z" fill="#C4C4C4"/>
</svg>
