<svg width="131" height="40" viewBox="0 0 131 40" fill="none" xmlns="http://www.w3.org/2000/svg">
<mask id="mask0_1_6577" style="mask-type:luminance" maskUnits="userSpaceOnUse" x="0" y="0" width="131" height="40">
<path d="M130.478 0.65918H0.529663V39.8592H130.478V0.65918Z" fill="white"/>
</mask>
<g mask="url(#mask0_1_6577)">
<path d="M54.9041 16.776C54.572 15.4778 53.734 14.5276 52.0902 14.5276C49.6698 14.5276 48.6581 16.6651 48.6581 18.8333C48.6581 21.0015 49.6698 23.1407 52.0902 23.1407C53.8447 23.1407 54.8155 21.8272 54.9671 20.181H56.897C56.7386 22.8883 54.8257 24.7562 52.0902 24.7562C48.7058 24.7562 46.6823 22.0644 46.6823 18.8333C46.6823 15.6023 48.7058 12.9121 52.0902 12.9121C54.635 12.9275 56.6432 14.3366 56.88 16.776H54.9041ZM58.0671 20.3857C58.0671 17.8848 59.5695 16.0783 62.1943 16.0783C64.819 16.0783 66.3196 17.8848 66.3196 20.3857C66.3196 22.8866 64.8174 24.7084 62.1943 24.7084C59.5711 24.7084 58.0671 22.9036 58.0671 20.3857ZM64.5176 20.3857C64.5176 18.9766 63.8056 17.5044 62.1943 17.5044C60.583 17.5044 59.8692 18.9766 59.8692 20.3857C59.8692 21.7947 60.5812 23.2857 62.1943 23.2857C63.8073 23.2857 64.5176 21.8119 64.5176 20.3857ZM67.8697 13.1816H69.6717V14.8875H67.8697V13.1816ZM67.8697 16.3H69.6717V24.4884H67.8697V16.3ZM71.634 16.3H73.3372V17.5044L73.3697 17.5351C73.6284 17.0896 74 16.7203 74.4467 16.4646C74.8935 16.2088 75.3998 16.0756 75.9143 16.0783C77.6858 16.0783 78.81 17.0285 78.81 18.8657V24.4952H77.0096V19.3417C76.9772 18.0588 76.4713 17.5044 75.4119 17.5044C74.211 17.5044 73.436 18.4546 73.436 19.6573V24.4867H71.634V16.3ZM90.8134 24.4867H89.5473L89.2477 23.1578C88.1886 24.3604 87.2228 24.7562 85.8409 24.7562C82.4565 24.7562 80.4332 22.0644 80.4332 18.8333C80.4332 15.6023 82.4565 12.9121 85.8409 12.9121C88.3076 12.9121 90.3788 14.2257 90.6784 16.776H88.7573C88.5664 15.2868 87.27 14.5276 85.8481 14.5276C83.4294 14.5276 82.4158 16.6651 82.4158 18.8333C82.4158 21.0015 83.4294 23.1407 85.8481 23.1407C87.8714 23.1731 88.9786 21.9466 89.0097 20.0377H86.0063V18.5331H90.8134V24.4867ZM94.1179 20.8616C94.1179 22.1445 94.8129 23.284 96.3146 23.284C97.3594 23.284 97.9912 22.8251 98.3075 21.9193H100.011C99.6159 23.7088 98.0982 24.7051 96.3114 24.7051C93.7569 24.7051 92.3119 22.9155 92.3119 20.3976C92.3119 18.0707 93.8295 16.0749 96.2634 16.0749C98.8411 16.0749 100.423 18.4035 100.122 20.8514L94.1179 20.8616ZM98.3227 19.6675C98.2604 18.5279 97.4848 17.4993 96.2674 17.4993C95.0189 17.4993 94.165 18.4495 94.1179 19.6675H98.3227ZM107.02 19.0397C106.877 18.0418 106.15 17.5044 105.147 17.5044C104.215 17.5044 102.901 17.9957 102.901 20.4812C102.901 21.8459 103.503 23.284 105.068 23.284C106.112 23.284 106.839 22.588 107.013 21.416H108.815C108.474 23.5365 107.172 24.7084 105.068 24.7084C102.513 24.7084 101.099 22.8883 101.099 20.4812C101.099 18.0111 102.444 16.0783 105.132 16.0783C107.029 16.0783 108.641 17.0285 108.815 19.0397H107.02ZM110.34 13.1816H112.144V19.6095L115.409 16.3H117.623L114.492 19.3093L117.925 24.4867H115.715L113.218 20.5119L112.144 21.5576V24.4867H110.34V13.1816ZM118.405 20.3857C118.405 17.8848 119.907 16.0783 122.531 16.0783C125.154 16.0783 126.651 17.8848 126.651 20.3857C126.651 22.8866 125.148 24.7084 122.523 24.7084C119.899 24.7084 118.405 22.9036 118.405 20.3857ZM124.856 20.3857C124.856 18.9766 124.143 17.5044 122.531 17.5044C120.917 17.5044 120.207 18.9766 120.207 20.3857C120.207 21.7947 120.919 23.2857 122.531 23.2857C124.142 23.2857 124.856 21.8119 124.856 20.3857Z" fill="white"/>
<path d="M36.6789 20.1862C36.6929 23.3883 35.7587 26.5227 33.9942 29.193C32.2297 31.8633 29.7142 33.9497 26.7658 35.1883C23.8174 36.4268 20.5684 36.7619 17.4299 36.1512C14.2913 35.5405 11.404 34.0115 9.13308 31.7574C6.86219 29.5033 5.30967 26.6254 4.67183 23.4876C4.03399 20.3499 4.33949 17.0931 5.54969 14.1292C6.7599 11.1653 8.82044 8.62739 11.4708 6.83636C14.1211 5.04532 17.2423 4.0816 20.4395 4.06705C24.7272 4.04801 28.8468 5.73553 31.8923 8.75843C34.9377 11.7813 36.6595 15.892 36.6789 20.1862Z" fill="#8DC63F"/>
<path d="M35.4612 20.1901C35.4746 23.151 34.6111 26.0494 32.9798 28.5189C31.3485 30.9883 29.0226 32.9178 26.2964 34.0634C23.5702 35.2089 20.566 35.5191 17.6638 34.9547C14.7615 34.3903 12.0915 32.9766 9.99146 30.8924C7.89142 28.8083 6.45561 26.1472 5.86563 23.2458C5.27563 20.3443 5.55794 17.3329 6.67685 14.5922C7.79577 11.8514 9.70103 9.50457 12.1517 7.84829C14.6024 6.19203 17.4884 5.30079 20.4449 5.28727C22.4079 5.27828 24.3535 5.65663 26.1705 6.40071C27.9875 7.14479 29.6404 8.24001 31.0349 9.62385C32.4292 11.0078 33.5378 12.6531 34.2973 14.4661C35.0568 16.279 35.4523 18.224 35.4612 20.1901Z" fill="#F9E988"/>
<path d="M20.7855 6.25828C21.7358 6.08839 22.7086 6.08839 23.6589 6.25828C24.6183 6.41055 25.5457 6.72187 26.403 7.17947C27.2546 7.64859 27.9921 8.28489 28.7245 8.88537C29.4569 9.48585 30.1877 10.0931 30.8826 10.7618C31.5913 11.4194 32.2099 12.1679 32.7222 12.9881C33.2505 13.8026 33.6832 14.6756 34.0116 15.5896C34.6506 17.4151 34.8325 19.3698 34.5413 21.2822H34.446C34.1654 19.4552 33.6962 17.6623 33.0459 15.9325C32.7342 15.077 32.3671 14.2427 31.9472 13.435C31.5058 12.6297 31.0202 11.8494 30.4926 11.0979C29.9543 10.3373 29.2949 9.67049 28.5406 9.12417C27.7826 8.58345 26.9105 8.23201 26.0657 7.89936C25.2209 7.56671 24.376 7.23577 23.4988 6.98159C22.6216 6.72741 21.7239 6.53805 20.7889 6.35381L20.7855 6.25828Z" fill="white"/>
<path d="M28.0924 14.9023C27.0074 14.5867 25.8781 14.1415 24.7437 13.6911C24.679 13.4045 24.4252 13.048 23.9142 12.613C23.1698 11.9664 21.7731 11.9835 20.5655 12.2718C19.2335 11.9579 17.9168 11.8471 16.6479 12.1507C6.31734 14.9995 12.1767 21.9647 8.38177 28.959C8.92167 30.1053 14.7419 36.8061 23.163 35.003C23.163 35.003 20.2844 28.0719 26.7826 24.7454C32.0543 22.0381 35.8645 17.0262 28.0924 14.9023Z" fill="#8BC53F"/>
<path d="M29.3685 19.4582C29.3695 19.5824 29.3337 19.7043 29.2655 19.8081C29.1973 19.912 29.0999 19.9932 28.9855 20.0416C28.8712 20.0899 28.7451 20.1032 28.6232 20.0797C28.5013 20.0562 28.3891 19.997 28.3009 19.9095C28.2127 19.8222 28.1523 19.7105 28.1275 19.5887C28.1027 19.4669 28.1146 19.3404 28.1616 19.2254C28.2086 19.1103 28.2887 19.0119 28.3917 18.9425C28.4946 18.8731 28.6158 18.8359 28.74 18.8355C28.8221 18.8351 28.9035 18.8508 28.9794 18.8819C29.0555 18.9129 29.1246 18.9587 29.183 19.0164C29.2413 19.0743 29.2878 19.1431 29.3196 19.2188C29.3514 19.2946 29.368 19.3759 29.3685 19.4582Z" fill="white"/>
<path d="M20.5659 12.267C21.3187 12.3217 24.0423 13.2122 24.744 13.6898C24.1632 11.9839 22.1891 11.7622 20.5659 12.267Z" fill="#009345"/>
<path d="M21.2828 16.5699C21.2828 17.1435 21.113 17.7042 20.7948 18.1811C20.4767 18.658 20.0244 19.0298 19.4953 19.2492C18.9662 19.4687 18.384 19.5262 17.8223 19.4142C17.2606 19.3024 16.7447 19.0262 16.3397 18.6206C15.9347 18.215 15.659 17.6982 15.5472 17.1358C15.4355 16.5732 15.4928 15.9901 15.712 15.4602C15.9312 14.9302 16.3023 14.4773 16.7785 14.1586C17.2547 13.84 17.8145 13.6699 18.3872 13.6699C19.1552 13.6699 19.8917 13.9754 20.4347 14.5193C20.9777 15.0632 21.2828 15.8008 21.2828 16.5699Z" fill="white"/>
<path d="M20.4261 16.5957C20.4264 16.9986 20.3075 17.3925 20.0842 17.7277C19.861 18.0629 19.5434 18.3242 19.1718 18.4787C18.8003 18.6331 18.3913 18.6737 17.9967 18.5953C17.602 18.5169 17.2395 18.323 16.9549 18.0382C16.6703 17.7534 16.4764 17.3905 16.3978 16.9953C16.3192 16.6002 16.3594 16.1905 16.5133 15.8183C16.6671 15.446 16.9278 15.1278 17.2623 14.9039C17.5968 14.6801 17.99 14.5605 18.3924 14.5605C18.9313 14.5609 19.4481 14.7755 19.8293 15.157C20.2106 15.5385 20.4252 16.0559 20.4261 16.5957Z" fill="#58595B"/>
<path d="M31.7105 20.734C29.3684 22.387 26.7044 23.634 22.9265 23.634C21.1585 23.634 20.8008 21.7575 19.6323 22.6753C19.0276 23.1512 16.907 24.2106 15.2122 24.1355C13.5174 24.0605 10.7836 23.0625 10.0257 19.4546C9.72419 23.0625 9.56915 25.7203 8.21674 28.7671C10.9113 33.0882 17.3346 36.4198 23.1633 34.9868C22.5382 30.606 26.3604 26.314 28.515 24.1185C29.3292 23.2877 30.8997 21.9298 31.7105 20.7271V20.734Z" fill="#8BC53F"/>
<path d="M31.6185 20.8434C30.8723 21.4861 30.0398 22.0207 29.1453 22.4316C28.2536 22.8559 27.3241 23.1952 26.3689 23.4449C25.415 23.6923 24.4169 23.8783 23.4069 23.7861C22.3968 23.694 21.3629 23.3494 20.6968 22.5919L20.7293 22.5544C21.5536 23.0884 22.4955 23.276 23.4358 23.3033C24.3904 23.3311 25.3451 23.2515 26.282 23.0662C27.2285 22.8687 28.1546 22.5831 29.0482 22.2132C29.9562 21.8659 30.8111 21.3928 31.5878 20.8076L31.6185 20.8434Z" fill="#58595B"/>
</g>
</svg>
