<svg width="119" height="28" viewBox="0 0 119 28" fill="none" xmlns="http://www.w3.org/2000/svg">
<g clip-path="url(#clip0_1_6637)">
<path d="M45.1306 13.8487L51.8625 4.75781H46.64L42.444 10.8487L38.1874 4.75781H32.7236L39.3648 14.0609L32.3613 23.576H37.5535L42.0817 17.1517L46.5796 23.576H52.0739L45.1306 13.8487Z" fill="white"/>
<path d="M66.5337 17.8488H66.4733L62.2207 4.75781H55.0926V23.6063H59.5V9.72751H59.6207L64.2697 23.6063H68.4053L73.024 9.72751H73.1448V23.6063H77.8541V4.75781H70.8204L66.5337 17.8488Z" fill="white"/>
<path d="M80.9937 4.72705V8.69675H87.6211L87.6048 23.5756H92.3442L92.3535 8.69675H98.9553V4.72705H80.9937Z" fill="white"/>
<path d="M111.393 4.72705H102.035V23.5756H106.774V17.6968H111.302C116.112 17.6968 119 15.381 119 11.121C119 6.91263 116.106 4.75406 111.4 4.75406L111.393 4.72705ZM106.774 13.7876V8.69675H110.94C112.921 8.69675 114.23 9.36197 114.23 11.2725C114.23 13.1572 112.933 13.7574 110.849 13.7574L106.774 13.7876Z" fill="white"/>
<path d="M0 14C0 6.26801 6.24416 0 13.9467 0C21.6443 0 27.5916 6.15151 27.7727 13.9394C27.7727 16.4243 26.9274 18.5151 24.8143 20.4848C23.0286 22.1494 19.9842 22.3939 17.7506 21.1515C16.1562 20.2283 14.9275 18.2622 13.8863 16.8182L11.9543 19.7879H7.78844L11.7128 13.9391L7.90918 8.18181H12.1958L13.9166 11.1515L15.607 8.18181H19.924L15.9995 13.9394C15.9995 13.9394 17.8711 16.8182 18.8975 17.9394C19.924 19.0607 21.7956 19.0909 23.003 17.8788C24.3307 16.5461 24.6278 15.4849 24.6332 13.9394C24.6539 7.95723 19.9204 3.15151 13.9467 3.15151C7.97807 3.15151 3.13952 8.00854 3.13952 14C3.13952 19.9914 7.97807 24.8485 13.9467 24.8485C14.7723 24.8485 15.5636 24.7789 16.3316 24.606L16.9957 27.6667C15.9029 27.9126 15.0201 28 13.9467 28C6.24416 28 0 21.732 0 14Z" fill="#FC4F37"/>
</g>
<defs>
<clipPath id="clip0_1_6637">
<rect width="119" height="28" fill="white"/>
</clipPath>
</defs>
</svg>
