<svg width="131" height="34" viewBox="0 0 131 34" fill="none" xmlns="http://www.w3.org/2000/svg">
<mask id="mask0_1_6437" style="mask-type:luminance" maskUnits="userSpaceOnUse" x="-3" y="-1" width="134" height="38">
<path d="M131 -0.128379H-2.22868V36.1364H131V-0.128379Z" fill="white"/>
</mask>
<g mask="url(#mask0_1_6437)">
<mask id="mask1_1_6437" style="mask-type:luminance" maskUnits="userSpaceOnUse" x="-3" y="0" width="51" height="35">
<path d="M47.4218 0H-2.22868V34.9133H47.4218V0Z" fill="white"/>
</mask>
<g mask="url(#mask1_1_6437)">
<path d="M28.2881 0.587296H34.7221L13.3475 22.9514H19.0391H25.8134V27.6709H1.15191L28.2881 0.587296Z" fill="#151515"/>
<path d="M33.3944 27.0034L30.5454 30.5042V9.62095L18.2109 21.946H14.0558L33.3944 1.67138V27.0034Z" fill="white"/>
<path d="M1.24905 32.0023V28.0696H26.0805V15.8471L29.2984 12.6318V32.0023H1.24905Z" fill="white"/>
<path fill-rule="evenodd" clip-rule="evenodd" d="M30.5454 9.62217V30.5054L33.3944 27.0046V1.67262L14.0558 21.9472H18.2109L30.5454 9.62217ZM19.9748 21.9472H24.8315V17.0944L19.9748 21.9472ZM26.0795 15.8472V28.0697H1.24804V32.0023H29.2974V12.6319L26.0795 15.8472ZM29.9214 33.2479H0V27.4469L28.0074 -0.539093H34.6425V27.4469L29.9214 33.2479ZM32.5928 0.706536L11.1446 23.1928H24.8315V26.824H2.38727L28.5248 0.706536H32.5928Z" fill="#414141"/>
</g>
<path d="M52.3254 14.7207C51.4114 14.7207 50.5708 14.5631 49.8034 14.2477C49.0361 13.9211 48.376 13.4763 47.823 12.9131C47.2814 12.35 46.8526 11.6855 46.5367 10.9197C46.2319 10.1538 46.0797 9.3261 46.0797 8.43635C46.0797 7.54662 46.2319 6.71883 46.5367 5.95299C46.8526 5.18715 47.2814 4.52267 47.823 3.95955C48.376 3.39644 49.0361 2.9572 49.8034 2.64186C50.5708 2.31525 51.4114 2.15194 52.3254 2.15194C53.2395 2.15194 54.0801 2.31525 54.8474 2.64186C55.6148 2.9572 56.2692 3.39644 56.8109 3.95955C57.3638 4.52267 57.7926 5.18715 58.0973 5.95299C58.4132 6.71883 58.5712 7.54662 58.5712 8.43635C58.5712 9.3261 58.4132 10.1538 58.0973 10.9197C57.7926 11.6855 57.3638 12.35 56.8109 12.9131C56.2692 13.4763 55.6148 13.9211 54.8474 14.2477C54.0801 14.5631 53.2395 14.7207 52.3254 14.7207ZM52.3254 13.2003C53.0137 13.2003 53.6344 13.0764 54.1873 12.8286C54.7402 12.5696 55.2142 12.2261 55.6091 11.7981C56.0041 11.3701 56.3088 10.869 56.5232 10.2946C56.7376 9.70901 56.8448 9.08954 56.8448 8.43635C56.8448 7.7831 56.7376 7.16933 56.5232 6.59495C56.3088 6.0093 56.0041 5.5025 55.6091 5.07453C55.2142 4.64656 54.7402 4.30869 54.1873 4.06091C53.6344 3.80188 53.0137 3.67236 52.3254 3.67236C51.6371 3.67236 51.0165 3.80188 50.4636 4.06091C49.9106 4.30869 49.4367 4.64656 49.0417 5.07453C48.6468 5.5025 48.3421 6.0093 48.1277 6.59495C47.9133 7.16933 47.8061 7.7831 47.8061 8.43635C47.8061 9.08954 47.9133 9.70901 48.1277 10.2946C48.3421 10.869 48.6468 11.3701 49.0417 11.7981C49.4367 12.2261 49.9106 12.5696 50.4636 12.8286C51.0165 13.0764 51.6371 13.2003 52.3254 13.2003Z" fill="white"/>
<path d="M63.1649 2.45543H65.2976L71.8989 12.2875H71.9327V2.45543H73.5576V14.416H71.4926L64.8236 4.58402H64.7898V14.416H63.1649V2.45543Z" fill="white"/>
<path d="M78.8928 2.45543H83.1081C83.8749 2.45543 84.507 2.56242 85.0035 2.77641C85.5 2.97913 85.8896 3.24379 86.1716 3.5704C86.4652 3.88575 86.6681 4.24615 86.7812 4.65158C86.8935 5.04577 86.95 5.42869 86.95 5.80035C86.95 6.18327 86.8827 6.55493 86.7471 6.91532C86.6116 7.26446 86.414 7.58544 86.1545 7.87825C85.9067 8.15981 85.5961 8.40194 85.2235 8.60464C84.8625 8.79614 84.4567 8.91442 84.0051 8.95941L87.4071 14.416H85.3761L82.3289 9.14526H80.5179V14.416H78.8928V2.45543ZM80.5179 7.72618H82.6511C82.9671 7.72618 83.277 7.70369 83.5814 7.65862C83.8974 7.60233 84.1739 7.5066 84.411 7.37145C84.6596 7.2363 84.8571 7.04484 85.0035 6.79707C85.1499 6.53803 85.2235 6.20579 85.2235 5.80035C85.2235 5.39491 85.1499 5.06829 85.0035 4.82053C84.8571 4.56149 84.6596 4.3644 84.411 4.22925C84.1739 4.0941 83.8974 4.004 83.5814 3.95895C83.277 3.90264 82.9671 3.87449 82.6511 3.87449H80.5179V7.72618Z" fill="white"/>
<path d="M105.554 2.45543H107.975L111.782 11.5104H111.85L115.624 2.45543H118.045V14.416H116.42V4.58402H116.387L112.341 14.416H111.257L107.212 4.58402H107.179V14.416H105.554V2.45543Z" fill="white"/>
<path d="M123.268 2.45543H127.483C128.25 2.45543 128.882 2.56242 129.379 2.77641C129.875 2.97913 130.264 3.24379 130.546 3.5704C130.84 3.88575 131.043 4.24615 131.156 4.65158C131.269 5.04577 131.325 5.42869 131.325 5.80035C131.325 6.17201 131.269 6.56056 131.156 6.96601C131.043 7.36019 130.84 7.72062 130.546 8.04717C130.264 8.36251 129.875 8.62722 129.379 8.84121C128.882 9.04391 128.25 9.14526 127.483 9.14526H124.893V14.416H123.268V2.45543ZM124.893 7.72618H127.026C127.342 7.72618 127.652 7.70369 127.957 7.65862C128.273 7.60233 128.549 7.5066 128.786 7.37145C129.034 7.2363 129.232 7.04484 129.379 6.79707C129.525 6.53803 129.599 6.20579 129.599 5.80035C129.599 5.39491 129.525 5.06829 129.379 4.82053C129.232 4.56149 129.034 4.3644 128.786 4.22925C128.549 4.0941 128.273 4.004 127.957 3.95895C127.652 3.90264 127.342 3.87449 127.026 3.87449H124.893V7.72618Z" fill="white"/>
<path d="M95.2553 2.45543H96.7278L101.856 14.416H99.9609L98.1669 10.0407L95.9323 4.55023H95.8982L91.8703 14.416H89.9742L95.2553 2.45543Z" fill="white"/>
<path d="M45.6367 29.1741C45.6367 28.8422 45.7491 28.5641 45.9741 28.3396C46.199 28.115 46.4875 28.0028 46.8397 28.0028C47.1917 28.0028 47.485 28.115 47.7198 28.3396C47.9545 28.5641 48.0719 28.8422 48.0719 29.1741C48.0719 29.5011 47.9545 29.7744 47.7198 29.9941C47.485 30.2087 47.1917 30.3161 46.8397 30.3161C46.4875 30.3161 46.199 30.2064 45.9741 29.9867C45.7491 29.7671 45.6367 29.4962 45.6367 29.1741ZM59.4676 30.1844V26.0263C59.4676 25.4992 59.3406 25.1014 59.0862 24.833C58.832 24.5645 58.4995 24.4304 58.0887 24.4304C57.5704 24.4304 57.1622 24.6402 56.8638 25.06C56.5656 25.4796 56.4164 26.1142 56.4164 26.9633H55.6976C55.6976 26.2166 55.766 25.5846 55.903 25.0673C56.0448 24.545 56.2428 24.1253 56.4971 23.8082C56.7563 23.4861 57.0595 23.2518 57.4065 23.1054C57.7538 22.954 58.1377 22.8785 58.5581 22.8785C59.1401 22.8785 59.6267 23.0102 60.0177 23.2738C60.4138 23.5324 60.7122 23.8983 60.9125 24.3719C61.1131 24.8452 61.2133 25.3967 61.2133 26.0263V30.1844H59.4676ZM49.8005 30.1844V23.0834H51.3114L51.5021 24.2987C51.7368 23.8252 52.0473 23.4715 52.4336 23.2372C52.82 22.9979 53.2624 22.8785 53.7612 22.8785C54.348 22.8785 54.8371 23.0102 55.2282 23.2738C55.6242 23.5324 55.9201 23.8983 56.1157 24.3719C56.3162 24.8452 56.4164 25.3967 56.4164 26.0263V30.1844H54.6854V26.0263C54.6854 25.4992 54.5583 25.1014 54.304 24.833C54.0497 24.5645 53.7172 24.4304 53.3065 24.4304C52.9593 24.4304 52.6513 24.5256 52.3823 24.7159C52.1182 24.9062 51.9105 25.1941 51.7588 25.5797C51.6073 25.9604 51.5315 26.4362 51.5315 27.0072V30.1844H49.8005ZM66.5269 30.3893C65.8765 30.3893 65.2873 30.2503 64.7592 29.972C64.236 29.6939 63.8204 29.279 63.5124 28.7276C63.2043 28.1712 63.0503 27.4757 63.0503 26.6413C63.0503 25.792 63.2043 25.0893 63.5124 24.5329C63.8204 23.9765 64.236 23.5617 64.7592 23.2884C65.2873 23.0151 65.8765 22.8785 66.5269 22.8785C67.1674 22.8785 67.7469 23.0151 68.2652 23.2884C68.7884 23.5617 69.2041 23.9765 69.5122 24.5329C69.8202 25.0893 69.9743 25.792 69.9743 26.6413C69.9743 27.4757 69.8202 28.1712 69.5122 28.7276C69.2041 29.279 68.7884 29.6939 68.2652 29.972C67.7469 30.2503 67.1674 30.3893 66.5269 30.3893ZM66.4683 28.8813C66.8105 28.8813 67.1137 28.7983 67.3777 28.6324C67.6466 28.4616 67.8569 28.2102 68.0085 27.8784C68.1649 27.5465 68.2432 27.134 68.2432 26.6413C68.2432 25.8896 68.094 25.3235 67.7958 24.9429C67.5024 24.5622 67.099 24.3719 66.5856 24.3719C66.2384 24.3719 65.9303 24.4572 65.6615 24.6281C65.3924 24.794 65.1797 25.0454 65.0233 25.3821C64.8716 25.7188 64.7959 26.1384 64.7959 26.6413C64.7959 27.383 64.945 27.9418 65.2433 28.3176C65.5464 28.6933 65.9548 28.8813 66.4683 28.8813ZM76.9192 30.1844V26.0263C76.9192 25.4992 76.7914 25.1014 76.5373 24.833C76.2833 24.5645 75.951 24.4304 75.5397 24.4304C75.1927 24.4304 74.8847 24.5256 74.6157 24.7159C74.3517 24.9062 74.1439 25.1941 73.9923 25.5797C73.8407 25.9604 73.7649 26.4362 73.7649 27.0072H73.1928C73.1928 26.0849 73.3077 25.3186 73.5376 24.7086C73.7673 24.0937 74.0925 23.6349 74.5131 23.3324C74.9336 23.0297 75.4273 22.8785 75.9943 22.8785C76.5815 22.8785 77.0702 23.0102 77.4614 23.2738C77.858 23.5324 78.1531 23.8983 78.3491 24.3719C78.5497 24.8452 78.6496 25.3967 78.6496 26.0263V30.1844H76.9192ZM72.034 30.1844V23.0834H73.5449L73.7649 24.489V30.1844H72.034ZM83.8285 30.3893C83.2228 30.3893 82.6674 30.2331 82.1639 29.9209C81.6604 29.6084 81.2569 29.1717 80.954 28.6105C80.6504 28.0443 80.4986 27.383 80.4986 26.6266C80.4986 25.8457 80.648 25.1746 80.9463 24.6135C81.2491 24.0521 81.6527 23.6227 82.1562 23.325C82.6604 23.0272 83.2174 22.8785 83.8285 22.8785C84.3963 22.8785 84.885 22.9931 85.2956 23.2225C85.7115 23.447 86.0438 23.7545 86.2932 24.1449C86.5473 24.5304 86.7185 24.9672 86.8068 25.4553C86.8951 25.9433 86.8997 26.4459 86.8215 26.9633H81.8781V26.0263H85.5969L85.2592 26.2459C85.2739 26.0165 85.2615 25.7848 85.2228 25.5504C85.1879 25.3162 85.1197 25.1014 85.0167 24.9062C84.9145 24.7109 84.7681 24.5549 84.5768 24.4377C84.3909 24.3157 84.1515 24.2547 83.8579 24.2547C83.5063 24.2547 83.2081 24.3426 82.9633 24.5183C82.7185 24.6939 82.5326 24.933 82.4056 25.2357C82.2786 25.5382 82.215 25.8798 82.215 26.2605V26.9487C82.215 27.3489 82.2739 27.7027 82.3909 28.0102C82.5133 28.3176 82.6922 28.5592 82.9269 28.7349C83.1662 28.9106 83.4668 28.9984 83.8285 28.9984C84.1662 28.9984 84.4497 28.9202 84.6798 28.7642C84.909 28.608 85.0562 28.3738 85.1197 28.0614H86.8657C86.7921 28.5201 86.6186 28.9252 86.3444 29.2766C86.0756 29.6231 85.7262 29.8963 85.2956 30.0965C84.8657 30.2917 84.3761 30.3893 83.8285 30.3893ZM87.8672 23.0834H89.8323L91.7246 28.6763H91.4171L93.0453 23.0834H94.8059L92.0771 31.4727C91.7982 32.3122 91.4535 32.9197 91.043 33.2956C90.6371 33.6713 90.1406 33.8593 89.5542 33.8593C89.2165 33.8593 88.8865 33.8202 88.5635 33.7421C88.246 33.6689 87.9206 33.5518 87.5883 33.3908V31.8681C87.8571 32.034 88.1166 32.1559 88.366 32.2341C88.6201 32.3122 88.8742 32.3512 89.1282 32.3512C89.3583 32.3512 89.5589 32.2877 89.7301 32.1609C89.9059 32.0388 90.0577 31.8656 90.1847 31.6411C90.3118 31.4216 90.4194 31.1653 90.5077 30.8725L90.7277 30.1844L87.8672 23.0834Z" fill="#2C5BFF"/>
</g>
</svg>
