<svg width="116" height="36" viewBox="0 0 116 36" fill="none" xmlns="http://www.w3.org/2000/svg">
<g clip-path="url(#clip0_1_6457)">
<path d="M40.4136 24.8728C39.4875 24.6425 38.5902 24.2394 37.8087 23.6637L38.9375 21.159C39.6032 21.6485 40.3557 21.9939 41.1372 22.253C41.9766 22.5409 42.8449 22.656 43.7422 22.656C44.4658 22.7136 45.1894 22.5697 45.8552 22.2242C46.2604 21.9939 46.5208 21.5621 46.5498 21.1014C46.5498 20.756 46.4051 20.4393 46.1446 20.2378C45.8262 20.0075 45.4789 19.8059 45.1026 19.6907C44.6974 19.5468 44.1185 19.4029 43.366 19.2301C42.4397 19.0286 41.5425 18.7695 40.6742 18.4529C39.9795 18.1937 39.3428 17.7619 38.8796 17.2149C38.3586 16.5815 38.0981 15.7467 38.1271 14.9118C38.1271 14.1057 38.3586 13.3284 38.8217 12.6375C39.3428 11.9177 40.0374 11.3419 40.8768 11.0253C41.9477 10.5935 43.0765 10.3919 44.2343 10.4207C45.1315 10.4207 46.0578 10.5359 46.9261 10.7374C47.7365 10.9389 48.518 11.2556 49.2416 11.6874L48.1996 14.2209C46.984 13.5011 45.6236 13.1268 44.2053 13.0981C43.4817 13.0405 42.7581 13.2132 42.1213 13.5587C41.7161 13.8178 41.4557 14.2784 41.4557 14.739C41.4557 15.2285 41.7451 15.6315 42.1793 15.833C42.9318 16.1497 43.7422 16.38 44.5237 16.5239C45.4499 16.7255 46.3472 16.9846 47.2155 17.3013C47.9391 17.5604 48.5758 17.9634 49.0679 18.5392C49.5889 19.1726 49.8494 20.0075 49.7915 20.8423C49.7915 21.6485 49.5599 22.4257 49.0969 23.0879C48.5758 23.8076 47.8523 24.3834 47.0129 24.7001C45.9419 25.1319 44.8131 25.3334 43.6554 25.3046C42.5555 25.3622 41.4557 25.1895 40.4136 24.8728Z" fill="white"/>
<path d="M54.5383 23.6353C53.3226 22.311 52.6859 20.5549 52.8016 18.77V10.7378H56.1302V18.6548C56.1302 21.2458 57.2011 22.5125 59.343 22.5125C60.2403 22.5701 61.1086 22.2246 61.7164 21.5625C62.3532 20.7276 62.6715 19.6912 62.5847 18.6548V10.7378H65.8844V18.77C66.0001 20.5549 65.3633 22.311 64.1477 23.6353C62.8453 24.8445 61.1086 25.449 59.343 25.3627C57.6064 25.4778 55.8408 24.8445 54.5383 23.6353Z" fill="white"/>
<path d="M78.4748 11.4C79.372 11.7743 80.1245 12.3788 80.6456 13.1849C81.1666 14.0198 81.4271 14.9699 81.3981 15.9486C81.4271 16.9275 81.1666 17.8775 80.6456 18.7124C80.1245 19.5185 79.372 20.1519 78.4748 20.4973C77.4327 20.9291 76.275 21.1595 75.1462 21.1307H72.2518V25.0748H68.8943V10.7378H75.1462C76.3039 10.7378 77.4327 10.9681 78.4748 11.4ZM77.2591 17.7911C77.809 17.3305 78.0985 16.6684 78.0406 15.9486C78.0985 15.2577 77.7801 14.5667 77.2591 14.1061C76.5934 13.6168 75.783 13.3865 74.9725 13.444H72.2518V18.4245H74.9436C75.783 18.5109 76.5934 18.2806 77.2591 17.7911Z" fill="white"/>
<path d="M93.8156 25.104L91.0368 21.1023H87.9692V25.104H84.6404V10.7671H90.8924C92.0215 10.7383 93.1789 10.9686 94.2212 11.4004C95.1183 11.7747 95.871 12.3793 96.3917 13.1853C96.9124 14.0203 97.1728 14.9702 97.1444 15.9491C97.2312 17.9355 96.0446 19.7492 94.192 20.469L97.4623 25.0753H93.8156V25.104ZM92.9469 14.1066C92.2819 13.6171 91.4716 13.3868 90.6604 13.4444H87.94V18.4537H90.6604C91.4716 18.5113 92.2819 18.281 92.9469 17.7916C93.4685 17.331 93.7864 16.64 93.7289 15.9491C93.7864 15.2581 93.4969 14.5672 92.9469 14.1066Z" fill="white"/>
<path d="M110.777 22.0227H104.091L102.816 25.1031H99.4017L105.827 10.7661H109.127L115.581 25.1031H112.137L110.777 22.0227ZM109.734 19.5181L107.448 14.0481L105.219 19.5181H109.734Z" fill="white"/>
<path d="M26.8723 6.83437C26.2887 5.46238 25.4399 4.22231 24.3788 3.19332C23.2912 2.19071 22.018 1.39918 20.6651 0.818724C19.7366 0.449342 18.7552 0.211883 17.7472 0.106345C11.593 -0.737956 5.88984 3.53632 5.041 9.68391C4.80226 11.3725 4.96142 13.1139 5.51848 14.7497V14.8024C4.66964 15.3038 3.92689 15.937 3.23721 16.6494C2.20268 17.7311 1.35382 18.9976 0.796771 20.3696C0.266241 21.7679 0.000976562 23.2455 0.000976562 24.7494C0.000976562 26.2269 0.319294 27.7045 0.929401 29.05C1.51298 30.4221 2.36183 31.6621 3.42289 32.6911C4.51048 33.6937 5.75722 34.5117 7.1366 35.0657C8.40986 35.567 9.73615 35.8309 11.0891 35.8572H11.2747C17.5084 35.91 22.628 30.9233 22.6811 24.723C22.6811 23.5357 22.5219 22.3221 22.1506 21.1875C23.026 20.6598 23.8217 20.0002 24.5379 19.2615C25.599 18.1797 26.4213 16.9132 26.9784 15.5149C27.5089 14.1165 27.7742 12.6389 27.7742 11.1351C27.7742 9.63111 27.4559 8.17998 26.8723 6.83437ZM16.8983 6.57053C17.2963 6.6233 17.7206 6.75522 18.092 6.91353C18.6491 7.15099 19.1266 7.49398 19.4979 7.94252C19.8693 8.36467 20.1611 8.86594 20.3468 9.42009C20.5325 9.94774 20.6121 10.5018 20.5855 11.0559C20.5059 12.0849 20.0815 13.0611 19.3388 13.7998L17.0044 7.65229C16.9249 7.2829 16.8983 6.91353 16.8983 6.57053ZM19.6571 14.6442C19.7366 14.5914 19.7897 14.5122 19.8693 14.4331C20.3202 13.9581 20.6651 13.4041 20.9039 12.7972C21.116 12.1904 21.2221 11.5572 21.1956 10.8975C21.1956 10.2644 21.0364 9.65751 20.7712 9.07706C20.5059 8.52297 20.1346 8.04806 19.6836 7.62591C19.2327 7.23014 18.7286 6.91353 18.145 6.70245C17.7472 6.57053 17.2963 6.49137 16.8718 6.46499C16.8983 5.75261 17.084 5.06661 17.4024 4.43339C17.9063 4.51254 18.3838 4.67085 18.8348 4.88193C19.6305 5.2513 20.3468 5.75261 20.9569 6.38583C21.5139 7.04545 21.9914 7.78421 22.3097 8.57571C22.6015 9.36729 22.7342 10.2116 22.7342 11.0559C22.7607 11.9001 22.5485 12.7445 22.1771 13.4833C21.8588 14.2484 21.3813 14.9344 20.7712 15.4885C20.5589 15.6731 20.3468 15.8314 20.1346 15.9897L19.6571 14.6442ZM20.4528 16.834C20.7712 16.5966 21.063 16.3328 21.3548 16.0425C22.628 14.6442 23.3442 12.8236 23.3178 10.9503C23.2912 10.0269 23.1055 9.12986 22.7076 8.28551C22.3362 7.4676 21.8057 6.70245 21.116 6.09561C20.4528 5.48877 19.7102 5.01385 18.8613 4.69723C18.3838 4.53892 17.8798 4.43339 17.3758 4.35423C17.588 3.95847 17.8533 3.58909 18.1716 3.27248C18.4104 3.03501 18.6756 2.82393 18.9674 2.63925C19.2061 2.7184 19.4184 2.79755 19.6305 2.90309C20.6916 3.35163 21.6466 4.01124 22.4424 4.82915C23.2647 5.67345 23.9013 6.64968 24.3522 7.73144C24.7502 8.78683 24.9624 9.92134 24.9624 11.0559C24.9093 12.1904 24.6706 13.2722 24.2461 14.3276C23.7952 15.3302 23.132 16.2273 22.3628 16.9923C21.9383 17.3882 21.4874 17.7575 21.0099 18.0741L20.4528 16.834ZM8.56902 33.166C8.38334 33.0868 8.19765 33.0341 8.03849 32.9549C6.97744 32.5064 6.02248 31.8468 5.25321 31.0289C4.45743 30.2109 3.84732 29.2347 3.42289 28.1793C3.025 27.124 2.81279 25.9894 2.81279 24.8549C2.86584 23.7204 3.10457 22.6123 3.529 21.5833C3.97994 20.5807 4.61658 19.6836 5.41237 18.9184C5.78374 18.5491 6.20817 18.2061 6.65911 17.8894L7.16312 19.1559C6.87133 19.367 6.60606 19.6044 6.36733 19.8419C5.09406 21.2403 4.40437 23.0608 4.4309 24.9341C4.45743 25.8575 4.66964 26.7546 5.041 27.5989C5.41237 28.4169 5.9429 29.1819 6.63259 29.7888C7.26922 30.3957 8.03849 30.8706 8.88737 31.1872C9.31176 31.3455 9.7627 31.4511 10.2136 31.5302C10.0015 31.8996 9.73615 32.2425 9.41788 32.5592C9.17909 32.7703 8.88737 32.9813 8.56902 33.166ZM8.91384 31.0025C8.1446 30.6331 7.42838 30.1054 6.81827 29.4722C6.26122 28.8126 5.81027 28.0738 5.46543 27.2823C5.17364 26.4908 5.041 25.6465 5.041 24.8022C5.041 23.9578 5.22669 23.1135 5.59806 22.3748C5.88985 21.6097 6.36733 20.9236 6.95091 20.3696C7.11006 20.2113 7.29575 20.0793 7.48143 19.9474L8.01197 21.3195C7.95892 21.3458 7.93239 21.3986 7.90586 21.4514C7.45491 21.9262 7.11007 22.4804 6.87133 23.0871C6.65912 23.694 6.55301 24.3273 6.57954 24.9604C6.57954 25.5937 6.7387 26.2005 7.00396 26.781C7.29576 27.3351 7.66712 27.81 8.09154 28.2321C8.54249 28.6279 9.04651 28.9445 9.63012 29.1556C10.0015 29.2875 10.3993 29.3667 10.7972 29.3667C10.7707 30.079 10.5585 30.765 10.2402 31.3983C9.78925 31.3191 9.33831 31.1872 8.91384 31.0025ZM10.7972 29.3139C10.4259 29.2611 10.0545 29.1556 9.70968 29.0236C9.17909 28.7862 8.70168 28.4432 8.30375 27.9947C7.93239 27.5725 7.64059 27.0712 7.45491 26.5172C7.26922 25.9894 7.18965 25.4354 7.21617 24.8813C7.29575 23.8787 7.72018 22.9288 8.43639 22.1901L10.7177 28.2057C10.7707 28.6015 10.7972 28.9709 10.7972 29.3139ZM1.35382 28.9181C0.87635 27.5989 0.637612 26.2005 0.637612 24.8022C0.690665 23.4038 1.00899 22.0318 1.56603 20.739C2.12309 19.4725 2.94541 18.3116 3.95342 17.3354C4.56353 16.7549 5.22669 16.2536 5.9429 15.8314L6.31428 16.8077C5.73069 17.1771 5.20016 17.5992 4.72269 18.1005C3.87384 18.9976 3.21067 20.0265 2.78625 21.1875C2.36183 22.3221 2.17614 23.5357 2.17614 24.7758C2.2292 25.9894 2.49446 27.1767 2.97194 28.2849C3.47594 29.3931 4.16563 30.3693 5.041 31.1872C5.91638 32.0051 6.92438 32.6384 8.01197 33.0605C8.17113 33.1132 8.33028 33.166 8.48944 33.2187C7.77323 33.641 6.95091 33.8784 6.10206 33.9312C5.81027 33.9312 5.49196 33.9048 5.20016 33.8256C4.64311 33.4299 4.1391 32.9813 3.68816 32.5064C2.65362 31.4775 1.85783 30.2637 1.35382 28.9181ZM26.2356 15.1455C25.6786 16.4119 24.8563 17.5728 23.8483 18.5491C23.2117 19.1559 22.4954 19.6836 21.7262 20.1321L21.3548 19.1823C21.9914 18.7865 22.5485 18.338 23.0524 17.8103C23.9013 16.9132 24.5645 15.8842 25.0154 14.7233C25.4399 13.5624 25.6256 12.3487 25.6256 11.1351C25.5725 9.92134 25.3072 8.73403 24.8297 7.62591C23.8483 5.436 22.018 3.72101 19.7897 2.82394C19.5775 2.74479 19.3653 2.69202 19.1531 2.63925C20.1876 2.03241 21.4078 1.84772 22.6015 2.08518C23.1586 2.48094 23.6626 2.90309 24.1135 3.4044C25.1215 4.43339 25.9173 5.64707 26.4213 6.99267C26.8988 8.31189 27.1375 9.71031 27.1375 11.1087C27.111 12.4806 26.7927 13.8526 26.2356 15.1455Z" fill="#26EAC5"/>
</g>
<defs>
<clipPath id="clip0_1_6457">
<rect width="116" height="36" fill="white"/>
</clipPath>
</defs>
</svg>
