<svg width="141" height="27" viewBox="0 0 141 27" fill="none" xmlns="http://www.w3.org/2000/svg">
<path d="M6.03974 4.497C4.20272 5.50906 2.66715 6.38871 2.62947 6.44546C2.59179 6.51167 2.55411 8.32769 2.55411 10.4843C2.55411 12.6408 2.59179 14.4568 2.62947 14.5136C2.66715 14.5798 3.67516 15.223 4.86216 15.9513C6.05858 16.6796 7.48107 17.5498 8.0463 17.8998C8.60216 18.2403 9.1203 18.5241 9.19567 18.5241C9.27104 18.5241 9.64782 18.3538 10.0247 18.1457C10.3921 17.9376 10.9856 17.6066 11.3435 17.4173C11.6921 17.2187 11.9748 17.0391 11.9748 17.0107C11.9748 16.9728 11.0515 16.3864 9.93047 15.7054C8.8 15.0243 7.30213 14.1069 6.60498 13.6718L5.3332 12.8773L5.30493 10.4654L5.28609 8.06287L7.30213 6.95622C8.41378 6.35087 9.34641 5.84957 9.37461 5.84957C9.41233 5.84957 10.9761 6.78597 12.8697 7.93043C14.7538 9.07493 16.3176 10.0113 16.3459 10.0113C16.3742 10.0113 16.4024 9.27357 16.4024 8.37498V6.72922L13.2277 4.80913C11.4754 3.74977 9.97757 2.83229 9.89275 2.75663C9.81738 2.69042 9.66671 2.63367 9.56307 2.64312C9.46888 2.65258 7.87674 3.48493 6.03974 4.497Z" fill="white"/>
<path d="M29.5444 6.38909C26.6427 6.75796 24.4289 8.19569 23.3079 10.4373C22.6578 11.7331 22.4883 12.4899 22.4883 14.2208C22.4789 15.3179 22.5165 15.8004 22.6578 16.349C23.3455 19.0352 25.1449 20.8323 28.0841 21.7498C29.0544 22.0525 31.2401 22.0619 32.3234 21.7593C33.4633 21.4471 34.5278 21.0877 35.0931 20.8418L35.6207 20.6053V19.6689C35.6207 18.3542 35.6395 18.3731 34.8576 18.7609C34.1416 19.1297 33.0959 19.4892 32.0879 19.7256C31.127 19.9527 29.2334 19.9527 28.5552 19.7162C26.6993 19.0919 25.2956 17.6164 24.7304 15.7342C24.5137 15.0058 24.5043 13.5492 24.7116 12.8965C25.0884 11.7142 25.5312 10.986 26.4073 10.1158C27.4247 9.1037 28.4986 8.55508 29.695 8.43213C30.7596 8.32807 32.9641 8.84829 34.5373 9.57663C34.9423 9.76578 35.2909 9.91712 35.3097 9.91712C35.3286 9.91712 35.3286 9.3969 35.3192 8.7632L35.2909 7.60921L34.5749 7.30659C32.9734 6.63501 30.7596 6.22829 29.5444 6.38909Z" fill="white"/>
<path d="M47.4339 7.74056C47.3208 7.77836 47.1418 7.92971 47.0382 8.07157C46.2657 9.05532 47.3302 10.4363 48.4324 9.86875C49.0542 9.54715 49.2803 8.79991 48.9317 8.20401C48.6585 7.74056 47.9614 7.52303 47.4339 7.74056Z" fill="white"/>
<path d="M8.23448 10.1811C7.48086 10.5973 6.92504 10.9567 6.96272 11.0135C7.01924 11.0891 9.30848 12.5174 12.8035 14.6361L13.6702 15.1658L13.6514 17.5588L13.6231 19.9612L11.6542 21.0396C10.5708 21.6355 9.61933 22.1178 9.54396 22.1178C9.39322 22.1178 8.85626 21.8246 8.06492 21.3139C6.62358 20.3775 2.70459 18.0601 2.63865 18.1074C2.54445 18.1641 2.5256 20.9733 2.61039 21.2098C2.63865 21.2949 3.86334 22.08 5.31411 22.9691C6.77431 23.8582 8.28158 24.7851 8.65842 25.0121L9.34613 25.4378L10.0715 25.0405C10.4672 24.823 11.0325 24.5108 11.315 24.3595C11.5977 24.2082 12.2571 23.8392 12.7753 23.5555C13.2934 23.2717 14.0753 22.8462 14.5181 22.6097C14.9608 22.3637 15.5543 22.0421 15.8369 21.8814L16.3551 21.5882L16.3833 17.5304L16.4022 13.4632L15.771 13.0754C12.2948 10.9378 9.77952 9.44336 9.68525 9.44336C9.61933 9.45285 8.96928 9.78385 8.23448 10.1811Z" fill="white"/>
<path d="M68.0744 11.5427L66.1903 13.4628L67.1041 13.4911L68.0179 13.5195L68.0462 16.5651L68.0744 19.6108L68.3382 20.1499C68.8281 21.1526 69.7419 21.6539 71.0985 21.6633C71.8992 21.6728 72.6246 21.4931 73.1899 21.1526L73.4915 20.9634V20.131V19.2892L73.0765 19.5635C72.521 19.9419 71.9651 20.131 71.3999 20.131C70.797 20.131 70.4296 19.9135 70.194 19.4122C70.0151 19.0528 70.0056 18.8542 70.0245 16.2909L70.0527 13.5573L71.5883 13.5289L73.1143 13.51V12.6115V11.7129H71.5601H70.0151L69.9868 10.663L69.9585 9.62256L68.0744 11.5427Z" fill="white"/>
<path d="M54.9521 11.6286C54.3209 11.7326 53.6144 12.0921 53.0962 12.5744L52.6817 12.9622L52.6535 12.3569L52.6252 11.761H51.6831H50.741L50.7128 16.6227C50.7034 20.1318 50.7222 21.5222 50.7976 21.6073C50.9671 21.806 52.5404 21.7965 52.6158 21.5884C52.644 21.5033 52.6723 19.867 52.6723 17.9563V14.4661L53.0773 14.0783C53.2941 13.8608 53.7369 13.5581 54.0572 13.3974C54.5658 13.1514 54.7166 13.1136 55.2347 13.1514C55.8847 13.1892 56.1862 13.3501 56.5159 13.8419C56.8456 14.3337 56.9116 15.0999 56.9116 18.4955V21.7398H57.7406C58.1928 21.7398 58.6167 21.702 58.6827 21.6546C58.7769 21.5979 58.7957 20.8129 58.7769 17.805L58.7486 14.0311L58.4942 13.4919C58.2022 12.8582 57.571 12.1488 57.1 11.9029C56.9116 11.8083 56.5159 11.6853 56.205 11.6286C55.5927 11.5151 55.6492 11.5151 54.9521 11.6286Z" fill="white"/>
<path d="M62.0738 11.656C61.2825 11.883 60.623 12.4221 60.2368 13.1599C60.0107 13.595 60.0107 14.6733 60.2462 15.2124C60.6042 16.0353 60.9904 16.3947 62.4129 17.2365C64.0333 18.2013 64.3536 18.4851 64.3536 18.9864C64.3536 19.4972 63.9862 19.8188 63.2514 19.9606C62.3565 20.1309 61.7723 19.9606 59.8976 19.0147C59.86 18.9958 59.8411 19.3931 59.8505 19.9133L59.8788 20.8402L60.444 21.0672C61.3485 21.4266 62.4507 21.6537 63.2514 21.6537C64.966 21.6442 66.1718 20.6511 66.3037 19.1188C66.3979 17.9743 65.6537 17.1041 63.4869 15.7894C62.3658 15.1178 61.9984 14.7584 61.9984 14.3517C61.9984 13.7463 62.526 13.3207 63.2608 13.3207C63.647 13.3207 64.5703 13.6517 65.2297 14.0206C65.4747 14.1625 65.7196 14.2476 65.7667 14.2192C65.8703 14.1531 65.8986 12.9329 65.8043 12.6019C65.7479 12.3938 65.0978 12.0249 64.3254 11.7695C63.6753 11.5519 62.6108 11.5047 62.0738 11.656Z" fill="white"/>
<path d="M94.8668 11.657C93.0673 11.9786 91.7954 13.2839 91.3527 15.2797C91.1551 16.1782 91.1645 16.9822 91.3811 17.9848C91.6355 19.1482 92.0309 19.9427 92.6813 20.5859C93.4627 21.3709 94.188 21.6736 95.7237 21.8817C96.6468 21.9952 98.5786 21.475 99.3977 20.8791L99.775 20.6048V19.8103C99.775 19.3657 99.7372 18.9874 99.6994 18.959C99.6521 18.9307 99.4544 19.0157 99.2567 19.1577C98.3054 19.8103 96.5625 20.2264 95.5827 20.0373C95.2717 19.9805 94.8385 19.8292 94.6314 19.7062C93.8777 19.2617 93.265 18.3159 93.1334 17.3605L93.0673 16.9159H96.4113C98.9646 16.9159 99.775 16.8876 99.8498 16.793C99.9726 16.6416 99.7466 15.0999 99.4828 14.2959C99.1245 13.2177 98.4086 12.3097 97.5611 11.8745C97.2217 11.7043 96.2987 11.5246 95.8277 11.534C95.6394 11.534 95.2055 11.5908 94.8668 11.657ZM96.5908 13.3595C97.0523 13.5582 97.5517 14.1541 97.7871 14.7784C98.1542 15.762 98.3337 15.6864 95.5733 15.6864H93.1618L93.2177 15.4404C93.4256 14.6175 94.1604 13.6622 94.8007 13.3784C95.2055 13.1988 96.1853 13.1893 96.5908 13.3595Z" fill="white"/>
<path d="M39.9072 11.8935C38.1738 12.3286 36.8926 13.4447 36.2614 15.0716C35.9694 15.8472 35.9506 17.5686 36.2331 18.2875C36.8549 19.8954 38.0985 21.0399 39.7 21.5034C40.4253 21.7114 41.8102 21.7114 42.545 21.5034C45.9741 20.5291 47.3684 16.5471 45.2582 13.7757C44.4951 12.7731 43.5154 12.1583 42.2435 11.8651C41.3957 11.6759 40.7456 11.6854 39.9072 11.8935ZM42.5167 13.8136C43.553 14.2959 44.3349 15.3743 44.448 16.462C44.5422 17.4173 43.9958 18.628 43.2139 19.205C42.4885 19.7346 42.0551 19.8765 41.1319 19.886C40.3877 19.8954 40.2181 19.8671 39.7659 19.64C38.9746 19.2523 38.4942 18.7888 38.1456 18.0699C37.8724 17.5118 37.8346 17.3511 37.8441 16.6795C37.8441 15.7715 38.0514 15.2513 38.6448 14.5986C39.3514 13.8231 40.1333 13.5109 41.2261 13.5393C41.8102 13.5582 42.1022 13.6149 42.5167 13.8136Z" fill="white"/>
<path d="M47.0197 16.7261V21.7392H47.8582C48.4517 21.7392 48.7249 21.7014 48.8002 21.6068C48.8756 21.5216 48.8944 20.1312 48.8851 16.6221L48.8568 11.7604L47.943 11.732L47.0197 11.7036V16.7261Z" fill="white"/>
<path d="M77.0049 11.9027C75.0738 12.4039 73.7452 13.766 73.2553 15.7334C72.8694 17.2846 73.397 18.9303 74.6595 20.1789C76.6284 22.1274 79.7936 22.1936 81.8098 20.3303C83.7503 18.5237 83.9858 15.8753 82.4029 13.7093C81.7909 12.8769 80.745 12.2053 79.5676 11.9027C78.6722 11.6757 77.9003 11.6757 77.0049 11.9027ZM79.2471 13.643C79.9063 13.8417 80.1796 14.0119 80.6694 14.5132C81.3105 15.1659 81.5271 15.6671 81.5743 16.6035C81.6026 17.2751 81.5837 17.4453 81.3759 17.8994C81.0372 18.6371 80.3961 19.2898 79.6802 19.6208C79.1809 19.8573 78.9738 19.8951 78.2957 19.8951C77.627 19.8951 77.4104 19.8573 76.9576 19.6398C76.2701 19.3182 75.6109 18.7033 75.2998 18.098C75.0832 17.6913 75.0549 17.5116 75.0454 16.7265C75.0454 15.7901 75.1588 15.4401 75.6959 14.7119C75.9503 14.3714 76.7788 13.8133 77.2876 13.6525C77.8153 13.4823 78.71 13.4823 79.2471 13.643Z" fill="white"/>
<path d="M84.608 16.7264V21.7394H85.3995C85.8327 21.7394 86.2564 21.711 86.3414 21.6827C86.4737 21.6354 86.4919 21.276 86.4919 18.6749V15.7238L86.8313 15.1563C87.3212 14.3429 87.5944 14.0023 88.0276 13.6902C88.6781 13.2173 89.4878 13.3402 90.2037 14.0402C90.3832 14.2199 90.562 14.3618 90.5903 14.3618C90.6841 14.3618 91.5795 12.8957 91.5795 12.7349C91.5795 12.4038 90.0438 11.7134 89.3184 11.7134C88.753 11.7134 87.8677 12.2336 87.1991 12.9619C86.8691 13.3213 86.5769 13.6051 86.5486 13.6051C86.5202 13.6051 86.4919 13.1795 86.4919 12.6593V11.7134H85.5499H84.608V16.7264Z" fill="white"/>
<path d="M109.779 12.1967C109.007 12.2914 108.63 12.4144 107.848 12.8305C107.113 13.2088 106.228 14.1074 105.889 14.8168C105.587 15.4694 105.333 16.491 105.333 17.1058C105.333 17.7206 105.587 18.7515 105.898 19.4042C106.369 20.3973 107.491 21.3338 108.706 21.7593C109.261 21.9486 109.497 21.9769 110.75 21.9675C111.862 21.958 112.285 21.9107 112.728 21.7688L113.294 21.5891L113.322 20.6149C113.35 19.7068 113.331 19.6406 113.18 19.7068C112.116 20.1325 111.965 20.1704 110.797 20.1704C109.695 20.1798 109.582 20.1609 109.092 19.9244C108.423 19.5934 107.943 19.1015 107.622 18.4394C107.406 17.9949 107.368 17.7868 107.368 17.1058C107.368 16.4247 107.406 16.2167 107.622 15.7721C107.943 15.11 108.423 14.6181 109.092 14.2965C109.563 14.0601 109.723 14.0412 110.609 14.0317C111.598 14.0317 112.059 14.1358 112.775 14.5047C112.926 14.5803 113.096 14.6465 113.152 14.6465C113.208 14.6465 113.246 14.2965 113.246 13.6912V12.7454L112.823 12.5562C112.088 12.2251 110.721 12.0644 109.779 12.1967Z" fill="white"/>
<path d="M117.976 12.1965C115.79 12.4803 114.038 14.1923 113.717 16.3489C113.388 18.6189 114.603 20.7565 116.741 21.6646C117.288 21.8915 117.599 21.9578 118.324 21.9956C119.436 22.0523 120.142 21.9294 120.943 21.5321C123.571 20.2363 124.523 16.8501 122.94 14.476C121.828 12.783 119.954 11.9317 117.976 12.1965ZM119.944 14.2491C120.529 14.5423 121.103 15.1382 121.424 15.7719C121.64 16.2259 121.678 16.415 121.678 17.1055C121.678 17.7866 121.631 17.9946 121.414 18.4392C120.877 19.5458 119.992 20.1417 118.786 20.208C118.164 20.2363 117.994 20.2174 117.552 20.0093C116.525 19.5364 115.922 18.7513 115.696 17.6068C115.432 16.2448 116.185 14.845 117.524 14.2112C117.938 14.0125 118.108 13.9842 118.758 14.0125C119.295 14.0314 119.633 14.0977 119.944 14.2491Z" fill="white"/>
<path d="M128.602 12.2719C128.112 12.376 127.406 12.7165 127 13.0381C126.803 13.1894 126.595 13.3219 126.548 13.3219C126.492 13.3219 126.436 13.0949 126.417 12.8206L126.388 12.3287H125.493H124.598V17.1053V21.8818H125.493H126.388L126.436 18.3917L126.482 14.9109L126.888 14.5515C127.453 14.0502 127.896 13.861 128.621 13.8137C129.629 13.7475 130.26 14.0596 130.59 14.7785C130.75 15.1285 130.769 15.4595 130.769 18.439C130.769 21.1347 130.788 21.74 130.9 21.8251C130.985 21.9008 131.325 21.9291 131.824 21.9102L132.606 21.8818L132.653 18.3917L132.7 14.9109L133.143 14.5042C134.273 13.4826 136.101 13.5489 136.704 14.646L136.939 15.0717L136.987 18.4768L137.034 21.8818L137.862 21.9102C138.4 21.9291 138.748 21.9008 138.833 21.8251C139.04 21.6549 139.021 15.4217 138.814 14.6177C138.607 13.8042 138.371 13.3881 137.881 12.9719C137.194 12.4044 136.713 12.2436 135.611 12.2436C134.707 12.2341 134.631 12.253 133.962 12.5841C133.567 12.7828 133.058 13.1138 132.813 13.3219L132.371 13.7097L131.862 13.1894C131.57 12.8867 131.155 12.5746 130.9 12.4612C130.402 12.253 129.168 12.149 128.602 12.2719Z" fill="white"/>
<path d="M102.545 19.6493C102.441 19.6966 102.234 19.8763 102.093 20.0465C101.857 20.3208 101.829 20.4155 101.867 20.8694C101.904 21.2762 101.97 21.4275 102.215 21.6735C102.479 21.9477 102.564 21.9761 103.072 21.9761C103.581 21.9761 103.666 21.9477 103.939 21.664C104.222 21.3897 104.25 21.3046 104.25 20.7938C104.25 20.283 104.222 20.1979 103.948 19.933C103.713 19.6966 103.562 19.6304 103.195 19.602C102.95 19.5831 102.657 19.602 102.545 19.6493Z" fill="white"/>
</svg>
