<svg width="285" height="69" viewBox="0 0 285 69" fill="none" xmlns="http://www.w3.org/2000/svg">
<g clip-path="url(#clip0_1_6317)">
<path d="M48.0655 8.62891V44.1894V58.962C48.0655 59.4649 47.4586 59.7167 47.1037 59.3611L36.3989 48.6365C36.2932 48.5306 36.2339 48.3871 36.2339 48.2374V8.62891C36.2339 8.31717 36.4861 8.06445 36.7973 8.06445H47.5021C47.8133 8.06445 48.0655 8.31716 48.0655 8.62891Z" fill="#8B6CFE" stroke="white" stroke-width="1.50521"/>
<path d="M13.5323 9.82625L47.9004 44.2578C48.0061 44.3637 48.0655 44.5072 48.0655 44.6569V58.962C48.0655 59.4648 47.4586 59.7167 47.1036 59.361L12.7355 24.9295C12.6298 24.8236 12.5705 24.6801 12.5705 24.5304V10.2254C12.5705 9.7225 13.1773 9.47066 13.5323 9.82625Z" fill="#78CAE7" stroke="white" stroke-width="1.50521"/>
<path d="M36.786 48.4786V32.1459L47.5244 43.0018L47.5021 58.8652L36.786 48.4786Z" fill="#6A62FD"/>
<path d="M18.6288 61.2905C22.9419 61.2905 26.4384 57.7875 26.4384 53.4664C26.4384 49.1453 22.9419 45.6423 18.6288 45.6423C14.3156 45.6423 10.8191 49.1453 10.8191 53.4664C10.8191 57.7875 14.3156 61.2905 18.6288 61.2905Z" fill="white"/>
<path d="M18.6289 60.3702C22.4346 60.3702 25.5198 57.2794 25.5198 53.4666C25.5198 49.6538 22.4346 46.563 18.6289 46.563C14.8232 46.563 11.738 49.6538 11.738 53.4666C11.738 57.2794 14.8232 60.3702 18.6289 60.3702Z" fill="#4BC3FF"/>
<path d="M60.4875 19.5253H63.839L85.9695 47.6428L85.9949 47.6684V19.5253H90.0113V54.3838H86.6088L64.5299 26.3432L64.5043 26.3175V54.3838H60.4875V19.5253ZM116.931 55.0502C113.571 55.0502 110.467 54.2471 107.619 52.6408C104.787 51.0175 102.536 48.8218 100.864 46.0536C99.2095 43.2684 98.3823 40.2268 98.3823 36.9289C98.3823 33.5968 99.2095 30.5467 100.864 27.7785C102.536 24.9933 104.787 22.7976 107.619 21.1914C110.45 19.568 113.554 18.7563 116.931 18.7563C120.291 18.7563 123.387 19.568 126.218 21.1914C129.067 22.7976 131.318 24.9933 132.972 27.7785C134.644 30.5467 135.479 33.5968 135.479 36.9289C135.479 40.2268 134.644 43.2684 132.972 46.0536C131.318 48.8218 129.067 51.0175 126.218 52.6408C123.387 54.2471 120.291 55.0502 116.931 55.0502ZM116.931 51.308C119.575 51.308 122.005 50.6758 124.222 49.4113C126.457 48.1468 128.222 46.421 129.518 44.2338C130.832 42.0295 131.488 39.5946 131.488 36.9289C131.488 34.2462 130.832 31.8027 129.518 29.5983C128.222 27.3941 126.457 25.6597 124.222 24.3952C122.005 23.1308 119.575 22.4985 116.931 22.4985C114.287 22.4985 111.848 23.1393 109.614 24.4209C107.396 25.6854 105.64 27.4197 104.344 29.624C103.048 31.8112 102.399 34.2462 102.399 36.9289C102.399 39.5946 103.048 42.0295 104.344 44.2338C105.657 46.421 107.423 48.1468 109.639 49.4113C111.857 50.6758 114.287 51.308 116.931 51.308ZM158.638 19.5253C160.838 19.5253 162.799 19.9781 164.522 20.8838C166.262 21.7894 167.618 23.0624 168.59 24.7028C169.562 26.3432 170.048 28.2314 170.048 30.3673C170.048 32.0589 169.724 33.6054 169.077 35.0066C168.428 36.3906 167.516 37.5526 166.339 38.4924C165.179 39.4151 163.823 40.073 162.271 40.466L170.79 54.3838H166.134L158.203 41.0555C157.964 41.0726 157.606 41.0811 157.129 41.0811H147.918V54.3838H143.901V19.5253H158.638ZM158.562 37.621C159.977 37.621 161.248 37.3134 162.374 36.6982C163.516 36.0831 164.411 35.2287 165.06 34.1351C165.708 33.0415 166.032 31.7941 166.032 30.393C166.032 29.0088 165.699 27.77 165.034 26.6764C164.386 25.5828 163.482 24.7284 162.322 24.1133C161.179 23.481 159.9 23.1649 158.484 23.1649H147.918V37.621H158.562ZM191.237 19.5253C194.87 19.5253 198.068 20.2515 200.832 21.7039C203.611 23.1564 205.76 25.1983 207.279 27.8298C208.796 30.4613 209.555 33.4943 209.555 36.9289C209.555 40.3806 208.796 43.4307 207.279 46.0792C205.778 48.7108 203.646 50.7527 200.882 52.2051C198.137 53.6575 194.956 54.3838 191.34 54.3838H178.726V19.5253H191.237ZM191.237 50.7442C194.137 50.7442 196.661 50.1802 198.81 49.0525C200.959 47.9247 202.605 46.3356 203.747 44.2851C204.908 42.2175 205.487 39.7996 205.487 37.0315C205.487 34.2633 204.908 31.8283 203.747 29.7265C202.588 27.6248 200.925 26.0015 198.759 24.8566C196.593 23.7117 194.051 23.1393 191.135 23.1393H182.693V50.7442H191.237ZM217.952 19.5253H240.901V23.2162H221.969V34.9041H238.445V38.3643H221.969V50.7185H241.131V54.3838H217.952V19.5253ZM262.729 34.8784L277.414 54.3838H272.579L260.094 37.8516L253.263 46.2331V54.3838H249.246V19.5253H253.263V40.8505L270.66 19.5253H275.419L262.729 34.8784Z" fill="white"/>
</g>
<path d="M10.5 0.5H2.5C1.39543 0.5 0.5 1.39543 0.5 2.5V10.5" stroke="white"/>
<path d="M0.5 58.5L0.5 66.5C0.5 67.6046 1.39543 68.5 2.5 68.5L10.5 68.5" stroke="white"/>
<path d="M274.5 68.5L282.5 68.5C283.605 68.5 284.5 67.6046 284.5 66.5L284.5 58.5" stroke="white"/>
<path d="M284.5 10.5L284.5 2.5C284.5 1.39543 283.605 0.5 282.5 0.5L274.5 0.5" stroke="white"/>
<defs>
<clipPath id="clip0_1_6317">
<rect width="271" height="60" fill="white" transform="translate(7.5 7.5)"/>
</clipPath>
</defs>
</svg>
