<svg width="139" height="32" viewBox="0 0 139 32" fill="none" xmlns="http://www.w3.org/2000/svg">
<g clip-path="url(#clip0_1_6570)">
<path d="M44.6894 22.1908V9.0249H48.4141C49.5623 9.0249 50.577 9.27806 51.4584 9.78437C52.3378 10.2876 53.0473 11.04 53.4981 11.9457C53.9813 12.8796 54.2258 13.9528 54.2319 15.1651V16.0062C54.2319 17.2468 53.9893 18.336 53.5072 19.2699C53.0554 20.1777 52.3378 20.929 51.4503 21.4222C50.5609 21.9225 49.5258 22.1787 48.3413 22.1908H44.6894ZM46.4289 10.454V20.7717H48.2604C49.6007 20.7717 50.6438 20.3552 51.3867 19.5231C52.1346 18.691 52.5096 17.506 52.5096 15.9699V15.2014C52.5096 13.7056 52.1559 12.5458 51.4493 11.7198C50.7489 10.8877 49.7513 10.4651 48.4595 10.454H46.4289ZM64.3272 16.1051H58.6085V20.7707H65.251V22.1908H56.869V9.0249H65.1611V10.454H58.6085V14.685H64.3272V16.1051ZM71.7219 14.0697L74.8846 9.0249H76.9326L72.764 15.5534L77.0324 22.1908H74.9666L71.7219 17.0541L68.4591 22.1908H66.4033L70.6808 15.5544L66.5034 9.0249H68.542L71.7226 14.0708L71.7219 14.0697ZM81.8624 17.281H77.4394V15.9154H81.8624V17.281ZM92.8819 10.454H88.6399V22.1908H86.9085V10.454H82.6765V9.0249H92.8805L92.8819 10.454ZM99.678 16.8645H96.5793V22.1908H94.8308V9.0249H99.1982C100.684 9.0249 101.826 9.36275 102.623 10.0375C103.427 10.7132 103.828 11.6956 103.828 12.9856C103.828 13.8055 103.605 14.5196 103.158 15.1288C102.717 15.7379 102.101 16.1928 101.31 16.4943L104.408 22.0818V22.1908H102.541L99.678 16.8645ZM96.5793 15.4455H99.2524C100.116 15.4455 100.802 15.2215 101.31 14.7757C101.823 14.33 102.079 13.7329 102.079 12.9856C102.079 12.1716 101.835 11.5474 101.346 11.1136C100.863 10.6799 100.161 10.4591 99.2431 10.454H96.5793V15.4455ZM113.562 18.7545H108.034L106.792 22.1908H104.998L110.036 9.0249H111.559L116.606 22.1908H114.821L113.562 18.7545ZM108.56 17.3264H113.045L110.797 11.1681L108.56 17.3264ZM118.382 22.1908V9.0249H122.106C123.255 9.0249 124.27 9.27806 125.152 9.78437C126.03 10.2876 126.741 11.04 127.191 11.9457C127.674 12.8796 127.918 13.9528 127.924 15.1651V16.0062C127.924 17.2468 127.683 18.336 127.2 19.2699C126.748 20.1777 126.03 20.928 125.143 21.4222C124.255 21.9225 123.218 22.1787 122.035 22.1908H118.382ZM120.122 10.454V20.7717H121.953C123.294 20.7717 124.336 20.3552 125.079 19.5231C125.828 18.691 126.203 17.506 126.203 15.9699V15.2014C126.203 13.7056 125.849 12.5458 125.143 11.7198C124.442 10.8877 123.445 10.4651 122.152 10.454H120.122ZM138.02 16.1051H132.302V20.7707H138.944V22.1908H130.562V9.0249H138.854V10.454H132.302V14.685H138.02V16.1051Z" fill="white"/>
<path fill-rule="evenodd" clip-rule="evenodd" d="M15.9931 0.585938L11.6004 7.50475L10.3167 13.5743L17.3818 8.36199L27.7117 17.8818L15.9931 0.585938ZM31.1037 21.1769L23.5636 3.53802L20.6456 5.98279L31.1037 21.1769Z" fill="white"/>
<path fill-rule="evenodd" clip-rule="evenodd" d="M32.0004 26.3513L28.2102 19.0866L23.6012 14.9404L24.5776 23.6685L11.1751 27.8622L32.0004 26.3513ZM25.66 31.4366L25.0041 27.6867L6.62875 29.1531L25.66 31.4366Z" fill="white"/>
<path fill-rule="evenodd" clip-rule="evenodd" d="M15.777 25.7686L7.73553 22.2506L10.8082 8.53712L1.7024 27.3419L9.88333 27.6898L15.777 25.7686ZM11.9645 3.95117L0.472321 19.3056L4.04632 20.6117L11.9645 3.95117ZM24.5786 23.6687L11.1761 27.8623L32.0005 26.3514L24.5786 23.6687Z" fill="white"/>
<path fill-rule="evenodd" clip-rule="evenodd" d="M7.73545 22.25L10.8081 8.5375L1.70233 27.3423L7.73651 22.251L7.73545 22.25ZM17.382 8.36199L27.7118 17.8809L15.9943 0.585938L17.383 8.36199H17.382Z" fill="white"/>
</g>
<defs>
<clipPath id="clip0_1_6570">
<rect width="139" height="32" fill="white"/>
</clipPath>
</defs>
</svg>
