<svg width="163" height="48" viewBox="0 0 163 48" fill="none" xmlns="http://www.w3.org/2000/svg">
<path d="M26.5845 26.4503C26.1175 26.7352 25.5726 26.787 25.1575 26.554C24.6385 26.2431 24.3272 25.5438 24.3272 24.5855V21.6588C24.3272 20.2601 23.7824 19.25 22.8483 18.991C21.2655 18.5248 20.072 20.4673 19.6309 21.1925L16.8287 25.6733V20.1565C16.8028 18.8874 16.3876 18.1363 15.6092 17.9032C15.0903 17.7477 14.3119 17.8255 13.5595 18.9651L7.30642 28.9627C6.47614 27.3827 6.03506 25.6215 6.03506 23.8344C6.03506 17.7996 10.887 12.9044 16.8287 12.9044C22.7704 12.9044 27.6224 17.7996 27.6224 23.8344V23.8603V23.8862C27.6743 25.0517 27.3111 25.9841 26.5845 26.4503ZM30.0094 23.8344V23.8084V23.7826C29.9835 16.4527 24.0678 10.4697 16.8287 10.4697C9.56378 10.4697 3.64799 16.4527 3.64799 23.8344C3.64799 31.1901 9.56378 37.199 16.8287 37.199C20.1758 37.199 23.3413 35.9299 25.7802 33.6248C26.2732 33.1585 26.2992 32.4074 25.8321 31.9153C25.391 31.4232 24.6385 31.3973 24.1456 31.8376C24.1456 31.8376 24.1456 31.8376 24.1196 31.8635C22.1477 33.7283 19.5012 34.7903 16.7769 34.7903C13.5854 34.7903 10.7313 33.3916 8.75946 31.1642L14.3898 22.1508V26.3208C14.3898 28.3151 15.1681 28.9627 15.8168 29.144C16.4654 29.3253 17.4514 29.1957 18.5153 27.5122L21.6028 22.5135C21.7066 22.358 21.7845 22.2026 21.8882 22.0991V24.6373C21.8882 26.5021 22.6407 28.0044 23.938 28.7296C25.1056 29.403 26.5845 29.3253 27.804 28.5742C29.3089 27.5899 30.1132 25.8805 30.0094 23.8344ZM48.3794 19.2759C48.6908 19.4572 48.9762 19.8975 48.9762 20.2861C48.9762 20.9076 48.4572 21.4256 47.8605 21.4256C47.7048 21.4256 47.5751 21.3739 47.4453 21.3479C46.7448 20.8299 45.8627 20.4933 44.9286 20.4933C42.7231 20.4933 41.2182 22.2803 41.2182 24.5078C41.2182 26.7352 42.749 28.4965 44.9286 28.4965C46.0183 28.4965 47.0042 28.0561 47.7307 27.3569C47.9124 27.2273 48.1459 27.1496 48.3794 27.1496C48.9762 27.1496 49.4432 27.6158 49.4432 28.2116C49.4432 28.6001 49.2097 28.9368 48.9243 29.1181C47.8605 30.0246 46.4334 30.6203 44.9545 30.6203C41.5815 30.6203 38.8312 27.849 38.8312 24.4301C38.8312 21.0113 41.5815 18.2399 44.9545 18.2399C46.1999 18.214 47.3935 18.6025 48.3794 19.2759ZM54.5546 21.866C56.8639 21.866 58.7838 23.8085 58.7838 26.2172C58.7838 28.6001 56.8379 30.6462 54.5546 30.6462C52.1416 30.6462 50.1438 28.6259 50.1438 26.2172C50.1438 23.8085 52.1416 21.866 54.5546 21.866ZM54.5287 28.4965C55.5406 28.4965 56.3968 27.5381 56.3968 26.2431C56.3968 24.9481 55.5406 24.1193 54.5287 24.1193C53.4389 24.1193 52.5308 24.9222 52.5308 26.2431C52.5308 27.5122 53.4389 28.4965 54.5287 28.4965ZM60.2369 29.2994V23.1869C60.2369 22.5135 60.7558 21.9695 61.4304 21.9695C62.079 21.9695 62.624 22.5135 62.624 23.1869V29.2994C62.624 29.9728 62.079 30.5167 61.4304 30.5167C60.7817 30.5167 60.2369 29.9469 60.2369 29.2994ZM60.0552 19.6644C60.0552 18.8615 60.678 18.2399 61.4304 18.2399C62.2088 18.2399 62.8315 18.8874 62.8315 19.6644C62.8315 20.4414 62.2088 21.063 61.4304 21.063C60.652 21.0371 60.0552 20.4155 60.0552 19.6644ZM67.1905 25.9841V29.2994C67.1905 29.9728 66.6456 30.5167 65.9969 30.5167C65.3483 30.5167 64.8034 29.9728 64.8034 29.2994V22.902C64.8034 22.384 65.2186 21.9695 65.7375 21.9695C66.2564 21.9695 66.6456 22.4098 66.6456 22.902C67.6056 21.9954 68.4619 21.866 69.2662 21.866C71.6533 21.866 72.717 23.653 72.717 25.6992V29.2994C72.717 29.9728 72.1722 30.5167 71.5235 30.5167C70.8749 30.5167 70.3299 29.9728 70.3299 29.2994V25.9841C70.3299 24.9481 70.2003 24.0675 68.6954 24.0675C67.6316 24.0675 67.1905 24.9481 67.1905 25.9841ZM80.4491 27.2532C80.1637 27.2532 79.982 27.1238 79.8263 26.9424L77.05 23.938V29.2994C77.05 29.9728 76.5052 30.5167 75.8565 30.5167C75.2079 30.5167 74.663 29.9728 74.663 29.2994V18.6802C74.7408 18.4989 74.9225 18.3694 75.1041 18.3694C75.3116 18.3694 75.4933 18.5507 75.623 18.6802L80.0598 23.653C80.1896 23.8084 80.3452 23.8862 80.4491 23.8862C80.5269 23.8862 80.7085 23.8084 80.8382 23.653L85.2751 18.6802C85.4047 18.5507 85.5603 18.3694 85.7942 18.3694C86.0013 18.3694 86.183 18.4989 86.2352 18.6802V29.2994C86.2352 29.9728 85.716 30.5167 85.0412 30.5167C84.3933 30.5167 83.848 29.9728 83.848 29.2994V23.938L81.0717 26.9424C80.8641 27.1238 80.6826 27.2532 80.4491 27.2532ZM91.9173 28.4965C92.9809 28.4965 93.8888 27.5381 93.8888 26.2431C93.8888 24.9481 92.9548 24.0933 91.9173 24.0933C90.879 24.0933 90.0233 24.974 90.0233 26.2431C90.0233 27.4863 90.8538 28.4965 91.9173 28.4965ZM94.4601 29.5843L94.408 29.2994C93.941 30.2059 92.4618 30.6203 91.5278 30.6203C89.2971 30.6203 87.6361 28.6001 87.6361 26.1914C87.6361 23.8085 89.3224 21.84 91.6582 21.84C92.0469 21.84 93.3966 21.9437 94.4341 23.161L94.4862 22.8761C94.4862 22.358 94.875 21.9437 95.3941 21.9437C95.9133 21.9437 96.3281 22.384 96.3281 22.8761V29.5583C96.3281 30.0763 95.9133 30.4908 95.3941 30.4908C94.8489 30.5167 94.4601 30.0764 94.4601 29.5843ZM102.893 24.0675H102.633C101.128 24.1452 100.842 24.9999 100.842 25.9841V29.2994C100.842 29.9728 100.298 30.5167 99.6492 30.5167C99.0005 30.5167 98.4561 29.9728 98.4561 29.2994V22.902C98.4561 22.384 98.8709 21.9695 99.3901 21.9695C99.9084 21.9695 100.298 22.4098 100.298 22.902C101.18 22.0731 101.907 21.8919 102.633 21.866H102.867C103.437 21.866 103.957 22.358 103.957 22.9797C103.983 23.5495 103.463 24.0675 102.893 24.0675ZM112.103 28.7296C112.208 28.9108 112.285 29.0922 112.285 29.2994C112.285 29.921 111.715 30.4908 111.092 30.4908C110.676 30.4908 110.314 30.18 110.027 29.8174L107.278 26.6317V29.2734C107.278 29.9469 106.732 30.4908 106.084 30.4908C105.435 30.4908 104.891 29.9469 104.891 29.2734V19.5608C104.891 18.8874 105.41 18.3435 106.084 18.3435C106.758 18.3435 107.278 18.8874 107.278 19.5608V25.6215L110.027 22.5912C110.314 22.2803 110.65 21.9437 111.066 21.9437C111.662 21.9437 112.208 22.4875 112.208 23.1092C112.208 23.2904 112.155 23.4977 112.052 23.653L109.872 26.0359L112.103 28.7296ZM116.774 24.0933C116.125 24.0933 115.062 24.4301 115.062 25.4402H118.512C118.486 24.4301 117.397 24.0933 116.774 24.0933ZM119.887 26.9683H115.062C115.062 28.3928 116.437 28.6259 117.033 28.6259C117.474 28.6259 118.097 28.5482 118.59 28.3152C118.746 28.2116 118.979 28.1339 119.212 28.1339C119.732 28.1339 120.173 28.5742 120.173 29.1181C120.173 29.4807 119.939 29.7915 119.654 29.9728C118.927 30.5167 117.967 30.6462 117.059 30.6462C114.646 30.6462 112.648 29.3511 112.648 26.3208C112.648 23.938 113.868 21.866 116.722 21.866C119.031 21.866 120.77 23.3681 120.821 26.0359C120.821 26.528 120.406 26.9683 119.887 26.9683ZM126.53 30.6203H125.881C124.065 30.6203 123.001 29.8174 123.001 26.9943V24.0675H122.378C121.807 24.0675 121.314 23.5495 121.314 22.9797C121.314 22.358 121.834 21.866 122.378 21.866H123.001V19.6126C123.001 18.9392 123.52 18.3953 124.195 18.3953C124.843 18.3953 125.388 18.9392 125.388 19.6126V21.866H126.374C126.944 21.866 127.437 22.358 127.437 22.9797C127.437 23.5495 126.919 24.0675 126.374 24.0675H125.388V26.528C125.388 28.1598 125.466 28.4965 126.192 28.4965H126.53C127.1 28.4965 127.593 28.9627 127.593 29.5583C127.593 30.1282 127.1 30.6203 126.53 30.6203ZM138.076 19.2759C138.387 19.4572 138.672 19.8975 138.672 20.2861C138.672 20.9076 138.154 21.4256 137.557 21.4256C137.401 21.4256 137.271 21.3739 137.142 21.3479C136.441 20.8299 135.559 20.4933 134.625 20.4933C132.42 20.4933 130.914 22.2803 130.914 24.5078C130.914 26.7352 132.446 28.4965 134.625 28.4965C135.715 28.4965 136.701 28.0561 137.427 27.3569C137.609 27.2273 137.843 27.1496 138.076 27.1496C138.672 27.1496 139.139 27.6158 139.139 28.2116C139.139 28.6001 138.906 28.9368 138.621 29.1181C137.557 30.0246 136.129 30.6203 134.651 30.6203C131.278 30.6203 128.527 27.849 128.527 24.4301C128.527 21.0113 131.278 18.2399 134.651 18.2399C135.896 18.214 137.116 18.6025 138.076 19.2759ZM144.121 28.4965C145.185 28.4965 146.093 27.5381 146.093 26.2431C146.093 24.9481 145.159 24.0933 144.121 24.0933C143.058 24.0933 142.227 24.974 142.227 26.2431C142.227 27.4863 143.083 28.4965 144.121 28.4965ZM146.664 29.5843L146.612 29.2994C146.145 30.2059 144.666 30.6203 143.732 30.6203C141.5 30.6203 139.84 28.6001 139.84 26.1914C139.84 23.8085 141.526 21.84 143.861 21.84C144.251 21.84 145.6 21.9437 146.638 23.161L146.69 22.8761C146.69 22.358 147.079 21.9437 147.598 21.9437C148.117 21.9437 148.532 22.384 148.532 22.8761V29.5583C148.532 30.0763 148.117 30.4908 147.598 30.4908C147.053 30.5167 146.664 30.0764 146.664 29.5843ZM155.045 28.4965C156.108 28.4965 156.939 27.4863 156.939 26.2431C156.939 24.9481 156.082 24.0933 155.045 24.0933C153.981 24.0933 153.072 24.9481 153.072 26.2431C153.072 27.5381 153.981 28.4965 155.045 28.4965ZM153.072 29.921V32.9513C153.072 33.6248 152.528 34.1686 151.879 34.1686C151.231 34.1686 150.685 33.6248 150.685 32.9513V22.902C150.685 22.384 151.101 21.9695 151.619 21.9695C152.138 21.9695 152.528 22.4098 152.528 23.0055C153.41 22.0991 154.5 21.866 155.33 21.866C157.639 21.866 159.352 23.8085 159.352 26.2172C159.352 28.6001 157.717 30.6462 155.46 30.6462C154.76 30.6203 153.721 30.4131 153.072 29.921Z" fill="white"/>
</svg>
