<svg width="129" height="30" viewBox="0 0 129 30" fill="none" xmlns="http://www.w3.org/2000/svg">
<g clip-path="url(#clip0_1_6484)">
<path d="M108.152 20.4409C108.851 20.4409 109.321 19.9359 109.321 19.1897C109.321 18.4322 108.828 17.9385 108.152 17.9385C107.498 17.9385 106.983 18.4665 106.983 19.1897C106.983 19.9127 107.453 20.4409 108.152 20.4409Z" fill="white"/>
<path d="M116.848 13.8535L116.424 16.4131C116.31 17.1364 116.206 17.848 116.138 18.5252H116.103C116.011 17.8364 115.863 17.1477 115.713 16.4131L115.163 13.8535H113.582L112.998 16.4935C112.872 17.1248 112.7 17.8364 112.597 18.5252H112.562C112.493 17.8364 112.379 17.1477 112.288 16.4706L111.887 13.8535H109.79L111.531 20.3157H113.365L113.915 18.2037C114.064 17.6067 114.201 16.9641 114.292 16.1835H114.327C114.43 16.9641 114.544 17.5953 114.683 18.2037L115.175 20.3157H117.008L118.83 13.8535H116.848Z" fill="white"/>
<path d="M121.672 12.0965C121.672 11.4882 121.248 11.0635 120.64 11.0635C120.045 11.0635 119.609 11.4882 119.609 12.0965C119.609 12.6819 120.033 13.1181 120.64 13.1181C121.225 13.1181 121.672 12.7049 121.672 12.0965ZM121.649 13.8527H119.632V20.3149H121.649V13.8527Z" fill="white"/>
<path d="M128.707 16.3775C128.707 14.7016 127.985 13.7261 126.633 13.7261C125.739 13.7261 125.132 14.2311 124.845 14.6673H124.811L124.708 13.8523H122.978C123.001 14.4606 123.024 15.1494 123.024 15.9185V20.3147H125.04V16.5268C125.04 15.7005 125.487 15.3905 125.911 15.3905C126.484 15.3905 126.69 15.8842 126.69 16.5613V20.3147H128.707V16.3775Z" fill="white"/>
<path d="M62.6871 5.8773C62.4125 5.82738 62.1879 5.80225 61.7637 5.80225C60.6157 5.80225 59.1432 6.5774 58.4443 8.42758H58.3445L58.1697 6.07733H54.4012C54.4513 7.35238 54.5011 8.7775 54.5011 10.6277V20.1533H58.8935V13.1027C58.8935 12.6027 58.9434 12.1026 59.0683 11.7776C59.4425 10.5275 60.4909 10.0025 61.6138 10.0025C62.0632 10.0025 62.3874 10.0274 62.6869 10.1025L62.6871 5.8773Z" fill="white"/>
<path d="M75.64 11.8778C75.64 8.75258 74.492 5.80225 69.8501 5.80225C67.4293 5.80225 65.6073 6.50235 64.7088 7.00242L65.5075 9.85258C66.4058 9.30235 67.6537 8.9025 68.9765 8.9025C70.7484 8.9025 71.2225 9.6775 71.2225 10.7527C67.0795 10.7777 63.7603 12.3779 63.7603 16.1032C63.7603 18.4783 65.4324 20.4284 67.9781 20.4284C69.4257 20.4284 70.7484 19.9283 71.5969 18.8032H71.6719L71.9213 20.1533H75.8646C75.6898 19.3033 75.64 18.0781 75.64 16.828V11.8778ZM71.3723 15.328C71.3723 16.6532 70.374 17.3032 69.4756 17.3032C68.702 17.3032 68.0032 16.8031 68.0032 15.653C68.0032 14.0278 69.5506 13.5028 71.3723 13.5028V15.328Z" fill="white"/>
<path d="M91.0387 0.00146484H86.6458V7.25205H86.5713C86.0975 6.40202 85.0241 5.80193 83.5267 5.80193C80.6066 5.80193 78.0112 8.40212 78.0112 13.1775C78.0112 17.3278 80.1075 20.428 83.3271 20.428C84.8244 20.428 86.2718 19.6531 87.0205 18.328H87.0958L87.2954 20.153H91.1385C91.0886 19.0279 91.0387 17.4029 91.0387 15.8526V0.00146484ZM86.6458 14.4274C86.6458 16.3527 85.5485 16.8777 84.7246 16.8777C83.377 16.8777 82.4279 15.6026 82.4279 13.1773C82.4279 11.0522 83.152 9.30189 84.7492 9.30189C85.4978 9.30189 86.6458 9.87704 86.6458 11.8272V14.4274Z" fill="white"/>
<path d="M104.391 16.5781C103.393 16.9031 102.295 17.1281 101.022 17.1281C99.2002 17.1281 97.7021 16.3531 97.6023 14.678H105.539C105.639 14.2031 105.664 13.5028 105.664 12.8278C105.664 8.0525 103.293 5.80225 99.9489 5.80225C95.7556 5.80225 93.4098 9.3275 93.4098 13.3529C93.4098 17.7533 95.9053 20.4034 100.323 20.4034C101.995 20.4034 103.667 20.1535 104.965 19.6284L104.391 16.5781ZM97.5777 11.6528C97.6522 10.4778 98.2266 8.82765 99.7239 8.82765C101.247 8.82765 101.646 10.4027 101.646 11.6528H97.5777Z" fill="white"/>
<path d="M50.1397 3.25293H45.5945V20.0966H50.1397V3.25293Z" fill="white"/>
<path fill-rule="evenodd" clip-rule="evenodd" d="M51.3913 0.109863L56.2056 0.115736L54.801 3.9095L50.1401 3.9106L51.3913 0.109863Z" fill="white"/>
<path d="M0 20.1531H4.36749V13.2527C4.66682 13.2776 5.04125 13.3026 5.46551 13.3026C8.48528 13.3026 12.8528 12.0525 12.8528 6.67701C12.8528 4.87694 12.1291 3.22679 10.9063 2.22684C9.60843 1.12668 7.73662 0.70166 5.1911 0.70166C2.99489 0.70166 1.24785 0.87673 0 1.10171V20.1531ZM4.36749 4.27685C4.61699 4.2018 5.09108 4.12674 5.69027 4.12674C7.43731 4.12674 8.51039 5.10175 8.51039 6.87686C8.51039 8.62704 7.41239 9.85211 5.36585 9.85211C4.9165 9.85211 4.64209 9.82719 4.36749 9.80204V4.27685Z" fill="#007BFF"/>
<path d="M18.3809 0.00146484H13.9883V20.153H18.3809V0.00146484Z" fill="#007BFF"/>
<path d="M31.3705 11.8778C31.3705 8.75258 30.2224 5.80225 25.5805 5.80225C23.1597 5.80225 21.3378 6.50235 20.4393 7.00242L21.2379 9.85258C22.1363 9.30235 23.3841 8.9025 24.7069 8.9025C26.4788 8.9025 26.9529 9.6775 26.9529 10.7527C22.81 10.7777 19.4907 12.3779 19.4907 16.1032C19.4907 18.4783 21.1628 20.4284 23.7086 20.4284C25.156 20.4284 26.4788 19.9283 27.3274 18.8032H27.4023L27.6518 20.1533H31.5951C31.4203 19.3033 31.3705 18.0781 31.3705 16.828V11.8778ZM27.1028 15.328C27.1028 16.6532 26.1044 17.3032 25.2061 17.3032C24.4325 17.3032 23.7337 16.8031 23.7337 15.653C23.7337 14.0278 25.281 13.5028 27.1028 13.5028V15.328Z" fill="#007BFF"/>
<path fill-rule="evenodd" clip-rule="evenodd" d="M41.9166 13.3835C40.9961 19.8682 40.104 27.1775 28.2048 26.65L29.565 22.8562C35.8952 22.6428 37.034 18.2523 37.8193 13.3832C38.6799 7.32007 39.5168 0.536894 49.3476 0.111328H51.3834C51.4331 0.113347 51.4813 0.114264 51.5311 0.116467L50.1709 3.91023C43.8408 4.12365 42.7019 8.51423 41.9166 13.3835Z" fill="#007BFF"/>
<path fill-rule="evenodd" clip-rule="evenodd" d="M36.0271 17.707C34.3638 14.5913 32.7126 10.0565 31.3682 5.5542C32.8278 5.5542 34.2876 5.5542 35.7472 5.5542C36.2414 7.65928 36.6651 9.12389 37.4791 10.5887C37.1228 13.0599 36.6472 15.853 36.0271 17.707Z" fill="#007BFF"/>
<path d="M46.4109 24.4936L46.373 23.7933H45.8033C45.8183 24.1739 45.8337 24.5912 45.8337 25.1302V29.6383H46.4642V27.3716H46.4794C46.7225 27.7812 47.1785 28.0324 47.7255 28.0324C48.6372 28.0324 49.526 27.3334 49.526 25.814C49.526 24.5393 48.8195 23.6943 47.8394 23.6943C47.1937 23.6943 46.715 23.9836 46.4263 24.4936H46.4109ZM46.4641 25.4981C46.4641 24.8969 46.9428 24.2119 47.6493 24.2119C48.4546 24.2119 48.8876 24.9729 48.8876 25.833C48.8876 26.8225 48.4394 27.5226 47.6264 27.5226C47.0642 27.5226 46.4641 27.0963 46.4641 26.2896V25.4981Z" fill="#007BFF"/>
<path d="M51.1059 21.854H50.4754V27.9425H51.1059V21.854Z" fill="#007BFF"/>
<path d="M55.0715 25.346C55.0715 24.524 54.7676 23.6943 53.5976 23.6943C53.1341 23.6943 52.6706 23.8237 52.3365 24.0445L52.4884 24.4783C52.7694 24.2803 53.1418 24.1814 53.4987 24.1814C54.4408 24.1814 54.4408 24.9731 54.4408 25.323C52.9062 25.3153 52.0399 25.8558 52.0399 26.8528C52.0399 27.4542 52.4578 28.0326 53.2479 28.0326C53.8328 28.0326 54.2583 27.7359 54.471 27.4085H54.4939L54.5547 27.9412H55.1321C55.079 27.652 55.0713 27.2943 55.0713 26.9517L55.0715 25.346ZM54.4485 26.5713C54.4485 27.0736 54.0154 27.5454 53.4001 27.5454C53.0204 27.5454 52.6861 27.3094 52.6861 26.7766C52.6861 25.9015 53.6661 25.7873 54.4485 25.7873V26.5713Z" fill="#007BFF"/>
<path d="M58.7404 23.7949L57.9048 26.2988C57.806 26.6185 57.7073 26.9306 57.6389 27.1816H57.6161C57.5477 26.9306 57.4565 26.6034 57.3501 26.314L56.4461 23.7949H55.7547L57.2209 27.6307C57.2513 27.7068 57.2665 27.7676 57.2665 27.8058C57.2665 27.8895 56.8944 28.9397 55.9295 29.2974L56.1042 29.8301C56.2561 29.7919 56.598 29.6628 56.9474 29.3431C57.464 28.856 57.8136 28.0795 58.3072 26.7326L59.4089 23.7949H58.7404Z" fill="#007BFF"/>
<path d="M63.998 23.9456C63.7776 23.8087 63.4434 23.6943 63.0483 23.6943C62.2126 23.6943 61.696 24.2271 61.696 24.8742C61.696 25.3764 62.0531 25.7646 62.7519 26.0461C63.2989 26.2669 63.5193 26.4799 63.5193 26.868C63.5193 27.241 63.2458 27.5379 62.6911 27.5379C62.3341 27.5379 61.977 27.3857 61.7567 27.2562L61.5819 27.7432C61.8629 27.9106 62.2581 28.0249 62.6684 28.0249C63.5724 28.0249 64.1346 27.5379 64.1346 26.7996C64.1346 26.1755 63.7472 25.8255 63.0785 25.5515C62.5467 25.323 62.3114 25.1556 62.3114 24.798C62.3114 24.4631 62.5545 24.1814 63.0102 24.1814C63.3825 24.1814 63.6636 24.326 63.8155 24.425L63.998 23.9456Z" fill="#007BFF"/>
<path d="M70.7366 25.4449C70.7366 24.0216 69.9312 23.6943 69.4222 23.6943C68.784 23.6943 68.3661 24.0293 68.0926 24.524H68.0774C67.9028 24.0293 67.485 23.6943 66.9455 23.6943C66.2923 23.6943 65.9123 24.052 65.6845 24.4554H65.6616L65.6236 23.7933H65.0692C65.0842 24.1357 65.0996 24.439 65.0996 24.8652V27.9412H65.7226V25.4043C65.7226 24.7523 66.2013 24.2196 66.7405 24.2196C67.3254 24.2196 67.6066 24.7219 67.6066 25.384V27.941H68.2297V25.3306C68.2297 24.6989 68.6931 24.2194 69.202 24.2194C69.825 24.2194 70.1135 24.7369 70.1135 25.5436V27.9409H70.7366V25.4449Z" fill="#007BFF"/>
<path d="M74.6717 25.346C74.6717 24.524 74.3678 23.6943 73.1978 23.6943C72.7343 23.6943 72.2709 23.8237 71.9368 24.0445L72.0886 24.4783C72.3696 24.2803 72.742 24.1814 73.0988 24.1814C74.041 24.1814 74.041 24.9731 74.041 25.323C72.5064 25.3153 71.6401 25.8558 71.6401 26.8528C71.6401 27.4542 72.058 28.0326 72.8481 28.0326C73.433 28.0326 73.8586 27.7359 74.0712 27.4085H74.0941L74.1549 27.9412H74.7323C74.6792 27.652 74.6715 27.2943 74.6715 26.9517L74.6717 25.346ZM74.0487 26.5713C74.0487 27.0736 73.6156 27.5454 73.0003 27.5454C72.6205 27.5454 72.2863 27.3094 72.2863 26.7766C72.2863 25.9015 73.2663 25.7873 74.0487 25.7873V26.5713Z" fill="#007BFF"/>
<path d="M77.7793 23.7265C77.711 23.7188 77.6572 23.7036 77.5889 23.7036C77.0806 23.7036 76.6473 24.0765 76.4648 24.594H76.442L76.4115 23.795H75.857C75.8797 24.1906 75.8874 24.594 75.8874 25.0355V27.9427H76.518V25.6899C76.518 24.9896 76.8671 24.3125 77.5513 24.3125C77.6427 24.3125 77.711 24.3202 77.7793 24.3277V23.7265Z" fill="#007BFF"/>
<path d="M78.6831 23.794H78.045V24.2887H78.6831V26.6709C78.6831 27.1123 78.7138 28.0256 79.7166 28.0256C79.9823 28.0256 80.195 27.9875 80.3317 27.9267L80.294 27.4396C80.1873 27.4779 80.0583 27.5006 79.8686 27.5006C79.4655 27.5006 79.3066 27.2114 79.3066 26.6863V24.2889H80.3777V23.7942H79.3066V22.8276L78.6831 23.0409V23.794Z" fill="#007BFF"/>
<path d="M87.6632 23.7951L87.055 25.9452C86.9184 26.4386 86.8047 26.8712 86.7287 27.2808H86.7057C86.6074 26.8635 86.4853 26.4234 86.3417 25.9375L85.6806 23.7949H85.1331L84.442 25.9754C84.3053 26.4232 84.1687 26.8709 84.0773 27.2808H84.0543C83.9713 26.8559 83.8569 26.4309 83.7433 25.9679L83.1658 23.7951H82.5124L83.7356 27.9428H84.3053L84.9964 25.869C85.1484 25.4212 85.2774 24.9887 85.3765 24.4952H85.3995C85.4978 24.9735 85.6122 25.3908 85.7643 25.8613L86.4177 27.9427H86.9798L88.2936 23.7949L87.6632 23.7951Z" fill="#007BFF"/>
<path d="M89.7825 22.6289C89.7825 22.3929 89.6235 22.2026 89.3724 22.2026C89.129 22.2026 88.9547 22.3929 88.9547 22.6289C88.9547 22.8725 89.1221 23.0627 89.3648 23.0627C89.6082 23.0627 89.7825 22.8954 89.7825 22.6289ZM89.6842 23.7933H89.0538V27.9411H89.6842V23.7933Z" fill="#007BFF"/>
<path d="M94.2491 25.4144C94.2491 24.0065 93.3684 23.6943 92.8516 23.6943C92.2058 23.6943 91.7275 24.0597 91.5217 24.4631H91.5071L91.4687 23.7933H90.9066C90.922 24.1282 90.9373 24.439 90.9373 24.8652V27.9412H91.5677V25.4043C91.5677 24.6762 92.1145 24.2196 92.6543 24.2196C93.376 24.2196 93.6187 24.8133 93.6187 25.4906V27.9412H94.2491V25.4144Z" fill="#007BFF"/>
<path d="M97.8734 24.4645V21.854H97.243V26.9151C97.243 27.25 97.2276 27.6684 97.213 27.9425H97.7597L97.7974 27.2575H97.8204C98.1168 27.7902 98.5575 28.0339 99.1572 28.0339C100.016 28.0339 100.935 27.3262 100.935 25.8192C100.935 24.5406 100.244 23.6957 99.264 23.6957C98.6182 23.6957 98.1467 23.9849 97.8887 24.4645H97.8734ZM97.8734 25.4995C97.8734 24.8908 98.3372 24.2132 99.0589 24.2132C99.8644 24.2132 100.29 24.9742 100.29 25.8418C100.29 26.8237 99.8414 27.5162 99.0359 27.5162C98.3372 27.5162 97.8741 26.9378 97.8741 26.3214L97.8734 25.4995Z" fill="#007BFF"/>
<path d="M102.613 22.6289C102.613 22.3929 102.454 22.2026 102.203 22.2026C101.96 22.2026 101.786 22.3929 101.786 22.6289C101.786 22.8725 101.953 23.0627 102.196 23.0627C102.439 23.0627 102.613 22.8954 102.613 22.6289ZM102.515 23.7933H101.885V27.9411H102.515V23.7933Z" fill="#007BFF"/>
<path d="M106.565 23.7933L106.534 24.4099H106.519C106.344 24.075 105.972 23.6943 105.266 23.6943C104.369 23.6943 103.473 24.4554 103.473 25.8976C103.473 27.0659 104.179 27.941 105.166 27.941C105.797 27.941 106.238 27.6213 106.45 27.2332H106.466V27.728C106.466 28.8188 105.911 29.2196 105.151 29.2196C104.657 29.2196 104.255 29.0687 103.989 28.91L103.822 29.4022C104.134 29.6152 104.65 29.7293 105.121 29.7293C107.081 29.7293 107.096 28.0766 107.096 27.3549V24.9285C107.096 24.425 107.111 24.09 107.135 23.7933H106.565ZM106.458 26.2212C106.458 27.0813 105.82 27.439 105.349 27.439C104.544 27.439 104.118 26.7463 104.118 25.8636C104.118 24.8527 104.627 24.2046 105.357 24.2046C105.934 24.2046 106.458 24.6624 106.458 25.3867V26.2212Z" fill="#007BFF"/>
</g>
<defs>
<clipPath id="clip0_1_6484">
<rect width="129" height="30" fill="white"/>
</clipPath>
</defs>
</svg>
