<svg width="125" height="22" viewBox="0 0 125 22" fill="none" xmlns="http://www.w3.org/2000/svg">
<g clip-path="url(#clip0_1_6467)">
<path d="M-0.000732422 0.176655C-0.000658207 0.147075 0.0067233 0.117985 0.0207383 0.0920404C0.0347533 0.0660963 0.0549554 0.0441236 0.0795007 0.0281281C0.104046 0.0121327 0.132152 0.00262403 0.161254 0.000470175C0.190356 -0.00168368 0.219527 0.00358585 0.246104 0.0157977L4.57375 2.00295C4.60439 2.01725 4.63033 2.04015 4.64852 2.06896C4.66671 2.09775 4.67635 2.13124 4.67633 2.16543V13.1378C4.66992 15.0681 7.61431 17.7101 10.8985 17.7101C13.5015 17.7101 17.1271 15.2501 17.1271 13.1443V7.26735C17.1271 6.75716 16.8066 5.73353 15.5692 5.73353H9.2043C9.1814 5.73353 9.15866 5.72894 9.1375 5.72004C9.11627 5.71114 9.09699 5.6981 9.0808 5.68165C9.06454 5.6652 9.05166 5.64568 9.04292 5.62419C9.03411 5.60271 9.0296 5.57968 9.0296 5.55642V2.22717C9.0296 2.20391 9.03411 2.18088 9.04292 2.1594C9.05166 2.13791 9.06454 2.11839 9.0808 2.10194C9.09699 2.08549 9.11627 2.07245 9.1375 2.06355C9.15866 2.05465 9.1814 2.05007 9.2043 2.05007H17.4028C17.4258 2.05 17.4486 2.04559 17.4701 2.03707L21.5557 0.311514C21.5822 0.300305 21.611 0.295881 21.6396 0.298631C21.6682 0.301381 21.6956 0.311221 21.7195 0.327282C21.7435 0.343343 21.7631 0.36513 21.7767 0.390718C21.7904 0.416307 21.7976 0.444908 21.7977 0.473996V13.1378C21.7977 16.6491 17.4701 21.6015 10.8985 21.9995C4.66992 21.6096 -0.000732422 16.8245 -0.000732422 13.1378V0.176655Z" fill="#14AE86"/>
<path d="M13.3188 9.28652C13.3188 9.26308 13.3142 9.23994 13.3054 9.21832C13.2965 9.19678 13.2834 9.17713 13.267 9.16067C13.2507 9.1442 13.2312 9.13123 13.2099 9.12243C13.1885 9.11363 13.1656 9.10916 13.1425 9.10938H8.65453C8.60822 9.10938 8.56379 9.12804 8.53103 9.16127C8.49828 9.1945 8.47983 9.23956 8.47983 9.28652V11.5612C8.47983 12.2124 8.73502 12.8369 9.18917 13.2973C9.64338 13.7577 10.2594 14.0164 10.9017 14.0164C11.5441 14.0164 12.1601 13.7577 12.6142 13.2973C13.0685 12.8369 13.3236 12.2124 13.3236 11.5612L13.3188 9.28652Z" fill="#14AE86"/>
<path d="M107.87 7.76462H93.3373V3.94141H107.87V7.76462Z" fill="white"/>
<path d="M107.87 18.9155H93.3373V15.0923H107.87V18.9155Z" fill="white"/>
<path d="M91.4503 13.3401H105.986V9.51855H91.4503V13.3401Z" fill="white"/>
<path d="M37.1594 6.1738C38.7428 6.1738 40.2614 6.81119 41.3812 7.94588C42.5011 9.08047 43.1307 10.6196 43.1316 12.2246V12.8615C43.1316 14.4672 42.5024 16.0071 41.3824 17.1424C40.2623 18.2778 38.7434 18.9156 37.1594 18.9156H33.8592C32.2756 18.9152 30.7569 18.2772 29.6373 17.1418C28.5176 16.0065 27.8886 14.4669 27.8886 12.8615V4.25977L31.6601 5.21679V12.8615C31.6601 13.4529 31.8917 14.0201 32.3041 14.4385C32.7165 14.8568 33.2758 15.092 33.8592 15.0924H37.1594C37.7431 15.0924 38.3029 14.8574 38.7156 14.439C39.1282 14.0206 39.3601 13.4532 39.3601 12.8615V12.2246C39.3597 11.6332 39.1276 11.0662 38.715 10.6482C38.3023 10.2302 37.7428 9.99537 37.1594 9.99537H36.8389C35.8401 9.99325 34.883 9.58974 34.1772 8.87337C33.4715 8.15701 33.0747 7.18624 33.0738 6.1738H37.1594Z" fill="white"/>
<path d="M59.7848 6.72931V3.3042H56.0166V6.72931H51.6104V10.5607H56.0102V14.7851C56.0131 15.8833 56.4462 16.9353 57.2141 17.7098C57.9821 18.4844 59.0221 18.918 60.1053 18.9154H66.0759V15.0922H60.1053C60.0203 15.0922 59.9388 15.058 59.8787 14.9971C59.8186 14.9361 59.7848 14.8535 59.7848 14.7673V10.5607H66.148V6.72931H59.7848Z" fill="white"/>
<path d="M45.4877 2.82715V6.09303L49.2592 7.28727V3.94177L45.4877 2.82715Z" fill="white"/>
<path d="M45.4877 7.44531V18.9149H49.2592V8.55992L45.4877 7.44531Z" fill="white"/>
<path d="M68.509 2.82715V6.09303L72.2869 7.28727V3.94177L68.509 2.82715Z" fill="white"/>
<path d="M68.509 7.44531V18.9149H72.2869V8.55992L68.509 7.44531Z" fill="white"/>
<path d="M89.0941 3.78271H74.6368V7.60591H83.5873L74.6368 14.5211V18.8366H89.0941V15.0135H80.2229L89.0941 8.15834V3.78271Z" fill="white"/>
<path d="M110.229 4.10254V19.0752H113.98V9.81374L120.766 19.0833H124.999V4.10254H121.248V13.2909L114.517 4.10254H110.229Z" fill="white"/>
</g>
<defs>
<clipPath id="clip0_1_6467">
<rect width="125" height="22" fill="white"/>
</clipPath>
</defs>
</svg>
