<svg width="103" height="61" viewBox="0 0 103 61" fill="none" xmlns="http://www.w3.org/2000/svg">
<path d="M2.20701 56.9355V44.8655H10.248V46.5485H4.11101V50.1525H9.24501V51.7335H4.11101V56.9355H2.20701ZM16.2975 57.1055C15.5948 57.1055 14.9658 56.9865 14.4105 56.7485C13.8552 56.4992 13.3735 56.1592 12.9655 55.7285C12.5688 55.2979 12.2628 54.8105 12.0475 54.2665C11.8322 53.7112 11.7245 53.1219 11.7245 52.4985C11.7245 51.8752 11.8322 51.2859 12.0475 50.7305C12.2628 50.1752 12.5688 49.6879 12.9655 49.2685C13.3735 48.8379 13.8552 48.5035 14.4105 48.2655C14.9772 48.0162 15.6062 47.8915 16.2975 47.8915C16.9888 47.8915 17.6122 48.0162 18.1675 48.2655C18.7342 48.5035 19.2158 48.8379 19.6125 49.2685C20.0205 49.6879 20.3322 50.1752 20.5475 50.7305C20.7628 51.2859 20.8705 51.8752 20.8705 52.4985C20.8705 53.1219 20.7628 53.7112 20.5475 54.2665C20.3322 54.8105 20.0205 55.2979 19.6125 55.7285C19.2158 56.1592 18.7342 56.4992 18.1675 56.7485C17.6122 56.9865 16.9888 57.1055 16.2975 57.1055ZM13.6455 52.5155C13.6455 53.0822 13.7645 53.5922 14.0025 54.0455C14.2405 54.4989 14.5578 54.8559 14.9545 55.1165C15.3512 55.3772 15.7988 55.5075 16.2975 55.5075C16.7848 55.5075 17.2268 55.3772 17.6235 55.1165C18.0315 54.8445 18.3545 54.4819 18.5925 54.0285C18.8305 53.5639 18.9495 53.0539 18.9495 52.4985C18.9495 51.9319 18.8305 51.4219 18.5925 50.9685C18.3545 50.5152 18.0315 50.1582 17.6235 49.8975C17.2268 49.6255 16.7848 49.4895 16.2975 49.4895C15.7988 49.4895 15.3512 49.6255 14.9545 49.8975C14.5578 50.1695 14.2405 50.5322 14.0025 50.9855C13.7645 51.4275 13.6455 51.9375 13.6455 52.5155ZM23.4641 53.4845V48.0445H25.3341V53.1105C25.3341 53.9039 25.4757 54.5045 25.7591 54.9125C26.0537 55.3092 26.4787 55.5075 27.0341 55.5075C27.3854 55.5075 27.7254 55.4339 28.0541 55.2865C28.3941 55.1392 28.7001 54.9239 28.9721 54.6405C29.2554 54.3459 29.4821 53.9945 29.6521 53.5865V48.0445H31.5221V54.8275C31.5221 55.0429 31.5617 55.1959 31.6411 55.2865C31.7204 55.3772 31.8507 55.4282 32.0321 55.4395V56.9355C31.8394 56.9695 31.6807 56.9922 31.5561 57.0035C31.4314 57.0149 31.3124 57.0205 31.1991 57.0205C30.8591 57.0205 30.5757 56.9299 30.3491 56.7485C30.1224 56.5559 29.9921 56.3122 29.9581 56.0175L29.9241 55.1335C29.5274 55.7795 29.0117 56.2725 28.3771 56.6125C27.7424 56.9412 27.0454 57.1055 26.2861 57.1055C25.3567 57.1055 24.6541 56.7995 24.1781 56.1875C23.7021 55.5755 23.4641 54.6745 23.4641 53.4845ZM42.9014 56.9355H41.0314V51.9545C41.0314 51.1272 40.8954 50.5209 40.6234 50.1355C40.3628 49.7502 39.9718 49.5575 39.4504 49.5575C39.0878 49.5575 38.7251 49.6482 38.3624 49.8295C38.0111 50.0109 37.6938 50.2602 37.4104 50.5775C37.1271 50.8835 36.9231 51.2405 36.7984 51.6485V56.9355H34.9284V48.0445H36.6284V49.8295C36.8551 49.4329 37.1498 49.0929 37.5124 48.8095C37.8864 48.5149 38.3058 48.2882 38.7704 48.1295C39.2351 47.9709 39.7281 47.8915 40.2494 47.8915C40.7821 47.8915 41.2184 47.9879 41.5584 48.1805C41.9098 48.3732 42.1818 48.6395 42.3744 48.9795C42.5784 49.3082 42.7144 49.6935 42.7824 50.1355C42.8618 50.5662 42.9014 51.0252 42.9014 51.5125V56.9355ZM45.531 52.4985C45.531 51.6485 45.701 50.8779 46.041 50.1865C46.3923 49.4839 46.8683 48.9285 47.469 48.5205C48.0696 48.1012 48.761 47.8915 49.543 47.8915C50.223 47.8915 50.835 48.0672 51.379 48.4185C51.9343 48.7699 52.365 49.2062 52.671 49.7275V44.5255H54.541V54.8275C54.541 55.0429 54.5806 55.1959 54.66 55.2865C54.7393 55.3772 54.8696 55.4282 55.051 55.4395V56.9355C54.6996 56.9922 54.4276 57.0205 54.235 57.0205C53.8836 57.0205 53.5833 56.9185 53.334 56.7145C53.096 56.5105 52.9713 56.2669 52.96 55.9835L52.943 55.3205C52.603 55.8872 52.144 56.3292 51.566 56.6465C50.988 56.9525 50.3873 57.1055 49.764 57.1055C49.152 57.1055 48.5853 56.9865 48.064 56.7485C47.554 56.5105 47.1063 56.1762 46.721 55.7455C46.347 55.3149 46.0523 54.8219 45.837 54.2665C45.633 53.7112 45.531 53.1219 45.531 52.4985ZM52.671 53.7395V51.4105C52.5463 51.0479 52.3423 50.7249 52.059 50.4415C51.787 50.1469 51.4753 49.9145 51.124 49.7445C50.784 49.5745 50.444 49.4895 50.104 49.4895C49.7073 49.4895 49.3446 49.5745 49.016 49.7445C48.6986 49.9145 48.421 50.1412 48.183 50.4245C47.9563 50.7079 47.7806 51.0309 47.656 51.3935C47.5313 51.7562 47.469 52.1359 47.469 52.5325C47.469 52.9405 47.537 53.3259 47.673 53.6885C47.809 54.0399 48.0016 54.3572 48.251 54.6405C48.5116 54.9125 48.8063 55.1279 49.135 55.2865C49.475 55.4339 49.8433 55.5075 50.24 55.5075C50.4893 55.5075 50.7386 55.4622 50.988 55.3715C51.2486 55.2809 51.4923 55.1562 51.719 54.9975C51.957 54.8389 52.1553 54.6519 52.314 54.4365C52.484 54.2212 52.603 53.9889 52.671 53.7395ZM57.2902 54.3345C57.2902 53.7679 57.4489 53.2749 57.7662 52.8555C58.0949 52.4249 58.5425 52.0962 59.1092 51.8695C59.6759 51.6315 60.3332 51.5125 61.0812 51.5125C61.4779 51.5125 61.8802 51.5409 62.2882 51.5975C62.7075 51.6542 63.0759 51.7449 63.3932 51.8695V51.3085C63.3932 50.6852 63.2062 50.1979 62.8322 49.8465C62.4582 49.4952 61.9199 49.3195 61.2172 49.3195C60.7185 49.3195 60.2482 49.4102 59.8062 49.5915C59.3642 49.7615 58.8939 50.0052 58.3952 50.3225L57.7662 49.0645C58.3555 48.6679 58.9449 48.3732 59.5342 48.1805C60.1349 47.9879 60.7639 47.8915 61.4212 47.8915C62.6112 47.8915 63.5462 48.2089 64.2262 48.8435C64.9175 49.4669 65.2632 50.3565 65.2632 51.5125V54.8275C65.2632 55.0429 65.2972 55.1959 65.3652 55.2865C65.4445 55.3772 65.5749 55.4282 65.7562 55.4395V56.9355C65.5862 56.9695 65.4332 56.9922 65.2972 57.0035C65.1612 57.0149 65.0479 57.0205 64.9572 57.0205C64.5605 57.0205 64.2602 56.9242 64.0562 56.7315C63.8522 56.5389 63.7332 56.3122 63.6992 56.0515L63.6482 55.5415C63.2629 56.0402 62.7699 56.4255 62.1692 56.6975C61.5685 56.9695 60.9622 57.1055 60.3502 57.1055C59.7609 57.1055 59.2339 56.9865 58.7692 56.7485C58.3045 56.4992 57.9419 56.1649 57.6812 55.7455C57.4205 55.3262 57.2902 54.8559 57.2902 54.3345ZM62.9512 54.8785C63.0872 54.7312 63.1949 54.5839 63.2742 54.4365C63.3535 54.2892 63.3932 54.1589 63.3932 54.0455V53.0255C63.0759 52.9009 62.7415 52.8102 62.3902 52.7535C62.0389 52.6855 61.6932 52.6515 61.3532 52.6515C60.6732 52.6515 60.1179 52.7875 59.6872 53.0595C59.2679 53.3315 59.0582 53.7055 59.0582 54.1815C59.0582 54.4422 59.1262 54.6915 59.2622 54.9295C59.4095 55.1675 59.6135 55.3602 59.8742 55.5075C60.1462 55.6549 60.4805 55.7285 60.8772 55.7285C61.2852 55.7285 61.6762 55.6492 62.0502 55.4905C62.4242 55.3319 62.7245 55.1279 62.9512 54.8785ZM73.4325 56.4765C73.2738 56.5559 73.0755 56.6409 72.8375 56.7315C72.5995 56.8222 72.3275 56.9015 72.0215 56.9695C71.7268 57.0375 71.4208 57.0715 71.1035 57.0715C70.7182 57.0715 70.3612 57.0035 70.0325 56.8675C69.7038 56.7315 69.4375 56.5162 69.2335 56.2215C69.0408 55.9155 68.9445 55.5245 68.9445 55.0485V49.4895H67.7715V48.0445H68.9445V45.1205H70.8145V48.0445H72.7525V49.4895H70.8145V54.4535C70.8372 54.7595 70.9335 54.9862 71.1035 55.1335C71.2848 55.2809 71.5058 55.3545 71.7665 55.3545C72.0272 55.3545 72.2765 55.3092 72.5145 55.2185C72.7525 55.1279 72.9282 55.0542 73.0415 54.9975L73.4325 56.4765ZM75.7477 56.9355V48.0445H77.6177V56.9355H75.7477ZM75.7477 46.5825V44.5255H77.6177V46.5825H75.7477ZM84.8799 57.1055C84.1772 57.1055 83.5482 56.9865 82.9929 56.7485C82.4375 56.4992 81.9559 56.1592 81.5479 55.7285C81.1512 55.2979 80.8452 54.8105 80.6299 54.2665C80.4145 53.7112 80.3069 53.1219 80.3069 52.4985C80.3069 51.8752 80.4145 51.2859 80.6299 50.7305C80.8452 50.1752 81.1512 49.6879 81.5479 49.2685C81.9559 48.8379 82.4375 48.5035 82.9929 48.2655C83.5595 48.0162 84.1885 47.8915 84.8799 47.8915C85.5712 47.8915 86.1945 48.0162 86.7499 48.2655C87.3165 48.5035 87.7982 48.8379 88.1949 49.2685C88.6029 49.6879 88.9145 50.1752 89.1299 50.7305C89.3452 51.2859 89.4529 51.8752 89.4529 52.4985C89.4529 53.1219 89.3452 53.7112 89.1299 54.2665C88.9145 54.8105 88.6029 55.2979 88.1949 55.7285C87.7982 56.1592 87.3165 56.4992 86.7499 56.7485C86.1945 56.9865 85.5712 57.1055 84.8799 57.1055ZM82.2279 52.5155C82.2279 53.0822 82.3469 53.5922 82.5849 54.0455C82.8229 54.4989 83.1402 54.8559 83.5369 55.1165C83.9335 55.3772 84.3812 55.5075 84.8799 55.5075C85.3672 55.5075 85.8092 55.3772 86.2059 55.1165C86.6139 54.8445 86.9369 54.4819 87.1749 54.0285C87.4129 53.5639 87.5319 53.0539 87.5319 52.4985C87.5319 51.9319 87.4129 51.4219 87.1749 50.9685C86.9369 50.5152 86.6139 50.1582 86.2059 49.8975C85.8092 49.6255 85.3672 49.4895 84.8799 49.4895C84.3812 49.4895 83.9335 49.6255 83.5369 49.8975C83.1402 50.1695 82.8229 50.5322 82.5849 50.9855C82.3469 51.4275 82.2279 51.9375 82.2279 52.5155ZM100.104 56.9355H98.2344V51.9545C98.2344 51.1272 98.0984 50.5209 97.8264 50.1355C97.5658 49.7502 97.1748 49.5575 96.6534 49.5575C96.2908 49.5575 95.9281 49.6482 95.5654 49.8295C95.2141 50.0109 94.8968 50.2602 94.6134 50.5775C94.3301 50.8835 94.1261 51.2405 94.0014 51.6485V56.9355H92.1314V48.0445H93.8314V49.8295C94.0581 49.4329 94.3528 49.0929 94.7154 48.8095C95.0894 48.5149 95.5088 48.2882 95.9734 48.1295C96.4381 47.9709 96.9311 47.8915 97.4524 47.8915C97.9851 47.8915 98.4214 47.9879 98.7614 48.1805C99.1128 48.3732 99.3848 48.6395 99.5774 48.9795C99.7814 49.3082 99.9174 49.6935 99.9854 50.1355C100.065 50.5662 100.104 51.0252 100.104 51.5125V56.9355Z" fill="url(#paint0_linear_2_65)"/>
<path d="M2.4248 37L2.4248 0.90625L12.207 0.90625C14.832 0.90625 16.7393 1.54883 17.9287 2.83398C19.1318 4.10547 19.7334 6.21094 19.7334 9.15039L19.7334 10.7295C19.7334 12.4248 19.4258 13.7988 18.8105 14.8516C18.209 15.9043 17.2861 16.5947 16.042 16.9229C17.6689 17.333 18.7559 18.2969 19.3027 19.8145C19.8633 21.3184 20.1436 23.1572 20.1436 25.3311C20.1436 27.6689 19.9248 29.7129 19.4873 31.4629C19.0498 33.2129 18.2568 34.5732 17.1084 35.5439C15.96 36.5146 14.3262 37 12.207 37L2.4248 37ZM9.47949 14.5029L10.9561 14.5029C11.626 14.5029 12.0566 14.2432 12.248 13.7236C12.4395 13.2041 12.5352 12.582 12.5352 11.8574L12.5352 8.22754C12.5352 7.06543 12.0225 6.48438 10.9971 6.48438L9.47949 6.48438L9.47949 14.5029ZM10.1973 30.6426C12.0703 30.6426 13.0068 29.7539 13.0068 27.9766L13.0068 23.4648C13.0068 22.4395 12.8496 21.6328 12.5352 21.0449C12.2344 20.4434 11.6602 20.1426 10.8125 20.1426L9.47949 20.1426L9.47949 30.6016C9.78027 30.6289 10.0195 30.6426 10.1973 30.6426ZM31.0127 37.3281C28.8252 37.3281 27.082 36.918 25.7832 36.0977C24.4844 35.2773 23.5547 34.0947 22.9941 32.5498C22.4336 31.0049 22.1533 29.1455 22.1533 26.9717L22.1533 14.6055C22.1533 11.748 22.9736 9.58789 24.6143 8.125C26.2549 6.64844 28.5107 5.91016 31.3818 5.91016C37.2881 5.91016 40.2412 8.80859 40.2412 14.6055L40.2412 16.8408C40.2412 19.5479 40.2139 21.3662 40.1592 22.2959L29.4951 22.2959L29.4951 28.2432C29.4951 28.79 29.5293 29.3301 29.5977 29.8633C29.666 30.3828 29.8164 30.8135 30.0488 31.1553C30.2949 31.4971 30.6846 31.668 31.2178 31.668C31.9834 31.668 32.4619 31.3398 32.6533 30.6836C32.8447 30.0137 32.9404 29.1455 32.9404 28.0791L32.9404 25.126L40.2412 25.126L40.2412 26.8691C40.2412 29.166 39.9541 31.0938 39.3799 32.6523C38.8193 34.1973 37.8623 35.3662 36.5088 36.1592C35.1689 36.9385 33.3369 37.3281 31.0127 37.3281ZM29.4541 18.6455L32.9404 18.6455L32.9404 14.5029C32.9404 13.3955 32.8037 12.6025 32.5303 12.124C32.2568 11.6318 31.8467 11.3857 31.2998 11.3857C30.7119 11.3857 30.2539 11.6182 29.9258 12.083C29.6113 12.5479 29.4541 13.3545 29.4541 14.5029L29.4541 18.6455ZM42.9072 42.127L42.9072 6.23828L50.3721 6.23828L50.3721 9.51953C50.8232 8.38477 51.4453 7.50293 52.2383 6.87402C53.0449 6.23145 54.1934 5.91016 55.6836 5.91016C57.6934 5.91016 59.1084 6.6416 59.9287 8.10449C60.7627 9.56738 61.1797 11.4814 61.1797 13.8467L61.1797 28.9814C61.1797 30.5537 60.9541 31.9756 60.5029 33.2471C60.0654 34.5049 59.3682 35.5029 58.4111 36.2412C57.4678 36.9658 56.2305 37.3281 54.6992 37.3281C52.7031 37.3281 51.2607 36.125 50.3721 33.7188L50.3721 42.127L42.9072 42.127ZM52.1152 31.6064C52.8809 31.6064 53.3389 31.2236 53.4893 30.458C53.6533 29.6924 53.7354 28.749 53.7354 27.6279L53.7354 15.6104C53.7354 14.4756 53.6533 13.5322 53.4893 12.7803C53.3389 12.0146 52.8809 11.6318 52.1152 11.6318C51.3223 11.6318 50.8301 12.0215 50.6387 12.8008C50.4609 13.5664 50.3721 14.5029 50.3721 15.6104L50.3721 27.6279C50.3721 28.7354 50.4609 29.6787 50.6387 30.458C50.8301 31.2236 51.3223 31.6064 52.1152 31.6064ZM69.5879 37.3281C67.8789 37.3281 66.5732 36.9316 65.6709 36.1387C64.7822 35.3457 64.1738 34.2588 63.8457 32.8779C63.5176 31.4971 63.3535 29.9316 63.3535 28.1816C63.3535 26.3086 63.5381 24.7773 63.9072 23.5879C64.2764 22.3848 64.9053 21.4004 65.7939 20.6348C66.6963 19.8691 67.9336 19.2197 69.5059 18.6865L74.0586 17.1279L74.0586 13.9697C74.0586 12.3154 73.5186 11.4883 72.4385 11.4883C71.4541 11.4883 70.9619 12.1582 70.9619 13.498L70.9619 15.3438L63.8252 15.3438C63.8115 15.2344 63.8047 15.0977 63.8047 14.9336C63.8047 14.7559 63.8047 14.5576 63.8047 14.3389C63.8047 11.2764 64.5225 9.10938 65.958 7.83789C67.4072 6.55273 69.6973 5.91016 72.8281 5.91016C74.4687 5.91016 75.9385 6.2041 77.2373 6.79199C78.5361 7.36621 79.5615 8.2207 80.3135 9.35547C81.0791 10.4902 81.4619 11.8916 81.4619 13.5596L81.4619 37L74.1611 37L74.1611 33.3496C73.8057 34.6348 73.2178 35.6191 72.3975 36.3027C71.5771 36.9863 70.6406 37.3281 69.5879 37.3281ZM72.4795 31.627C73.0811 31.627 73.4912 31.374 73.71 30.8682C73.9287 30.3623 74.0381 29.8154 74.0381 29.2275L74.0381 20.6553C73.0264 21.0654 72.2402 21.585 71.6797 22.2139C71.1191 22.8291 70.8389 23.7383 70.8389 24.9414L70.8389 28.8994C70.8389 30.7178 71.3857 31.627 72.4795 31.627ZM83.6973 42.127L83.6973 37.4717L87.2246 37.4717C87.7578 37.4717 88.0244 37.2871 88.0244 36.918C88.0244 36.7266 88.0039 36.5283 87.9629 36.3232L83.1436 6.23828L90.1777 6.23828L92.2285 28.8789L94.6484 6.23828L101.724 6.23828L96.0225 38.5996C95.8174 39.7617 95.4209 40.6367 94.833 41.2246C94.2588 41.8262 93.3086 42.127 91.9824 42.127L83.6973 42.127Z" fill="url(#paint1_linear_2_65)"/>
<defs>
<linearGradient id="paint0_linear_2_65" x1="3.025" y1="41.3522" x2="9.43473" y2="77.2365" gradientUnits="userSpaceOnUse">
<stop stop-color="#7A96AC"/>
<stop offset="0.18" stop-color="#EAEFF3"/>
<stop offset="0.315" stop-color="#C2D4E1"/>
<stop offset="0.491919" stop-color="white"/>
<stop offset="0.615" stop-color="#D4DEE5"/>
<stop offset="0.785" stop-color="#ABBDC8"/>
<stop offset="0.955" stop-color="#BCCAD7"/>
</linearGradient>
<linearGradient id="paint1_linear_2_65" x1="3.05" y1="1.75" x2="22.3172" y2="62.2686" gradientUnits="userSpaceOnUse">
<stop stop-color="#7A96AC"/>
<stop offset="0.18" stop-color="#EAEFF3"/>
<stop offset="0.315" stop-color="#C2D4E1"/>
<stop offset="0.491919" stop-color="white"/>
<stop offset="0.615" stop-color="#D4DEE5"/>
<stop offset="0.785" stop-color="#ABBDC8"/>
<stop offset="0.955" stop-color="#BCCAD7"/>
</linearGradient>
</defs>
</svg>
