<svg width="103" height="63" viewBox="0 0 103 63" fill="none" xmlns="http://www.w3.org/2000/svg">
<path d="M11.9773 57.9355V45.1555H17.3413C17.9173 45.1555 18.4453 45.2755 18.9253 45.5155C19.4053 45.7555 19.8253 46.0735 20.1853 46.4695C20.5453 46.8655 20.8213 47.3095 21.0133 47.8015C21.2053 48.2935 21.3013 48.7975 21.3013 49.3135C21.3013 50.0215 21.1393 50.6995 20.8153 51.3475C20.5033 51.9835 20.0533 52.4995 19.4653 52.8955C18.8893 53.2915 18.2173 53.4895 17.4493 53.4895H13.9933V57.9355H11.9773ZM13.9933 51.7075H17.3233C17.7073 51.7075 18.0433 51.6055 18.3313 51.4015C18.6193 51.1855 18.8413 50.8975 18.9973 50.5375C19.1653 50.1775 19.2493 49.7695 19.2493 49.3135C19.2493 48.8455 19.1533 48.4315 18.9613 48.0715C18.7693 47.7115 18.5173 47.4355 18.2053 47.2435C17.9053 47.0395 17.5753 46.9375 17.2153 46.9375H13.9933V51.7075ZM23.2307 55.1815C23.2307 54.5815 23.3987 54.0595 23.7347 53.6155C24.0827 53.1595 24.5567 52.8115 25.1567 52.5715C25.7567 52.3195 26.4527 52.1935 27.2447 52.1935C27.6647 52.1935 28.0907 52.2235 28.5227 52.2835C28.9667 52.3435 29.3567 52.4395 29.6927 52.5715V51.9775C29.6927 51.3175 29.4947 50.8015 29.0987 50.4295C28.7027 50.0575 28.1327 49.8715 27.3887 49.8715C26.8607 49.8715 26.3627 49.9675 25.8947 50.1595C25.4267 50.3395 24.9287 50.5975 24.4007 50.9335L23.7347 49.6015C24.3587 49.1815 24.9827 48.8695 25.6067 48.6655C26.2427 48.4615 26.9087 48.3595 27.6047 48.3595C28.8647 48.3595 29.8547 48.6955 30.5747 49.3675C31.3067 50.0275 31.6727 50.9695 31.6727 52.1935V55.7035C31.6727 55.9315 31.7087 56.0935 31.7807 56.1895C31.8647 56.2855 32.0027 56.3395 32.1947 56.3515V57.9355C32.0147 57.9715 31.8527 57.9955 31.7087 58.0075C31.5647 58.0195 31.4447 58.0255 31.3487 58.0255C30.9287 58.0255 30.6107 57.9235 30.3947 57.7195C30.1787 57.5155 30.0527 57.2755 30.0167 56.9995L29.9627 56.4595C29.5547 56.9875 29.0327 57.3955 28.3967 57.6835C27.7607 57.9715 27.1187 58.1155 26.4707 58.1155C25.8467 58.1155 25.2887 57.9895 24.7967 57.7375C24.3047 57.4735 23.9207 57.1195 23.6447 56.6755C23.3687 56.2315 23.2307 55.7335 23.2307 55.1815ZM29.2247 55.7575C29.3687 55.6015 29.4827 55.4455 29.5667 55.2895C29.6507 55.1335 29.6927 54.9955 29.6927 54.8755V53.7955C29.3567 53.6635 29.0027 53.5675 28.6307 53.5075C28.2587 53.4355 27.8927 53.3995 27.5327 53.3995C26.8127 53.3995 26.2247 53.5435 25.7687 53.8315C25.3247 54.1195 25.1027 54.5155 25.1027 55.0195C25.1027 55.2955 25.1747 55.5595 25.3187 55.8115C25.4747 56.0635 25.6907 56.2675 25.9667 56.4235C26.2547 56.5795 26.6087 56.6575 27.0287 56.6575C27.4607 56.6575 27.8747 56.5735 28.2707 56.4055C28.6667 56.2375 28.9847 56.0215 29.2247 55.7575ZM35.1449 60.1495C35.3249 60.1735 35.4989 60.1975 35.6669 60.2215C35.8469 60.2575 35.9909 60.2755 36.0989 60.2755C36.3029 60.2755 36.4769 60.2095 36.6209 60.0775C36.7769 59.9575 36.9329 59.7295 37.0889 59.3935C37.2449 59.0575 37.4369 58.5715 37.6649 57.9355L33.7949 48.5215H35.8649L38.7449 55.9195L41.3009 48.5215H43.2089L38.9429 60.1135C38.8109 60.4615 38.6189 60.7795 38.3669 61.0675C38.1149 61.3675 37.8029 61.6015 37.4309 61.7695C37.0589 61.9375 36.6209 62.0215 36.1169 62.0215C35.9729 62.0215 35.8229 62.0095 35.6669 61.9855C35.5109 61.9615 35.3369 61.9255 35.1449 61.8775V60.1495ZM60.1446 57.9355H58.1646V52.6615C58.1646 51.7855 58.0206 51.1435 57.7326 50.7355C57.4446 50.3275 57.0246 50.1235 56.4726 50.1235C55.9206 50.1235 55.4046 50.3335 54.9246 50.7535C54.4566 51.1615 54.1266 51.6955 53.9346 52.3555V57.9355H51.9546V52.6615C51.9546 51.7855 51.8106 51.1435 51.5226 50.7355C51.2346 50.3275 50.8206 50.1235 50.2806 50.1235C49.7286 50.1235 49.2126 50.3275 48.7326 50.7355C48.2646 51.1435 47.9286 51.6775 47.7246 52.3375V57.9355H45.7446V48.5215H47.5446V50.4115C47.9166 49.7515 48.4026 49.2475 49.0026 48.8995C49.6146 48.5395 50.3106 48.3595 51.0906 48.3595C51.8706 48.3595 52.4826 48.5635 52.9266 48.9715C53.3826 49.3795 53.6646 49.8895 53.7726 50.5015C54.1806 49.8055 54.6786 49.2775 55.2666 48.9175C55.8666 48.5455 56.5506 48.3595 57.3186 48.3595C57.8706 48.3595 58.3326 48.4615 58.7046 48.6655C59.0766 48.8695 59.3646 49.1515 59.5686 49.5115C59.7726 49.8595 59.9166 50.2675 60.0006 50.7355C60.0966 51.1915 60.1446 51.6775 60.1446 52.1935V57.9355ZM67.7723 58.1155C67.0403 58.1155 66.3743 57.9895 65.7743 57.7375C65.1863 57.4735 64.6763 57.1195 64.2443 56.6755C63.8123 56.2195 63.4763 55.7035 63.2363 55.1275C63.0083 54.5395 62.8943 53.9155 62.8943 53.2555C62.8943 52.3675 63.0983 51.5575 63.5063 50.8255C63.9143 50.0815 64.4843 49.4875 65.2163 49.0435C65.9483 48.5875 66.8063 48.3595 67.7903 48.3595C68.7743 48.3595 69.6203 48.5875 70.3283 49.0435C71.0483 49.4875 71.6063 50.0755 72.0023 50.8075C72.3983 51.5395 72.5963 52.3255 72.5963 53.1655C72.5963 53.3095 72.5903 53.4475 72.5783 53.5795C72.5663 53.6995 72.5543 53.8015 72.5423 53.8855H65.0003C65.0363 54.4375 65.1863 54.9235 65.4503 55.3435C65.7263 55.7515 66.0743 56.0755 66.4943 56.3155C66.9143 56.5435 67.3643 56.6575 67.8443 56.6575C68.3723 56.6575 68.8703 56.5255 69.3383 56.2615C69.8183 55.9975 70.1423 55.6495 70.3103 55.2175L72.0023 55.7035C71.7983 56.1595 71.4863 56.5735 71.0663 56.9455C70.6583 57.3055 70.1723 57.5935 69.6083 57.8095C69.0443 58.0135 68.4323 58.1155 67.7723 58.1155ZM64.9463 52.5715H70.6343C70.5983 52.0315 70.4423 51.5575 70.1663 51.1495C69.9023 50.7295 69.5603 50.4055 69.1403 50.1775C68.7323 49.9375 68.2763 49.8175 67.7723 49.8175C67.2803 49.8175 66.8243 49.9375 66.4043 50.1775C65.9963 50.4055 65.6603 50.7295 65.3963 51.1495C65.1323 51.5575 64.9823 52.0315 64.9463 52.5715ZM83.7334 57.9355H81.7534V52.6615C81.7534 51.7855 81.6094 51.1435 81.3214 50.7355C81.0454 50.3275 80.6314 50.1235 80.0794 50.1235C79.6954 50.1235 79.3114 50.2195 78.9274 50.4115C78.5554 50.6035 78.2194 50.8675 77.9194 51.2035C77.6194 51.5275 77.4034 51.9055 77.2714 52.3375V57.9355H75.2914V48.5215H77.0914V50.4115C77.3314 49.9915 77.6434 49.6315 78.0274 49.3315C78.4234 49.0195 78.8674 48.7795 79.3594 48.6115C79.8514 48.4435 80.3734 48.3595 80.9254 48.3595C81.4894 48.3595 81.9514 48.4615 82.3114 48.6655C82.6834 48.8695 82.9714 49.1515 83.1754 49.5115C83.3914 49.8595 83.5354 50.2675 83.6074 50.7355C83.6914 51.1915 83.7334 51.6775 83.7334 52.1935V57.9355ZM92.2793 57.4495C92.1113 57.5335 91.9013 57.6235 91.6493 57.7195C91.3973 57.8155 91.1093 57.8995 90.7853 57.9715C90.4733 58.0435 90.1493 58.0795 89.8133 58.0795C89.4053 58.0795 89.0273 58.0075 88.6793 57.8635C88.3313 57.7195 88.0493 57.4915 87.8333 57.1795C87.6293 56.8555 87.5273 56.4415 87.5273 55.9375V50.0515H86.2853V48.5215H87.5273V45.4255H89.5073V48.5215H91.5593V50.0515H89.5073V55.3075C89.5313 55.6315 89.6333 55.8715 89.8133 56.0275C90.0053 56.1835 90.2393 56.2615 90.5153 56.2615C90.7913 56.2615 91.0553 56.2135 91.3073 56.1175C91.5593 56.0215 91.7453 55.9435 91.8653 55.8835L92.2793 57.4495Z" fill="url(#paint0_linear_2_68)"/>
<path d="M2.4248 37L2.4248 0.90625L12.207 0.90625C14.832 0.90625 16.7393 1.54883 17.9287 2.83398C19.1318 4.10547 19.7334 6.21094 19.7334 9.15039L19.7334 10.7295C19.7334 12.4248 19.4258 13.7988 18.8105 14.8516C18.209 15.9043 17.2861 16.5947 16.042 16.9229C17.6689 17.333 18.7559 18.2969 19.3027 19.8145C19.8633 21.3184 20.1436 23.1572 20.1436 25.3311C20.1436 27.6689 19.9248 29.7129 19.4873 31.4629C19.0498 33.2129 18.2568 34.5732 17.1084 35.5439C15.96 36.5146 14.3262 37 12.207 37L2.4248 37ZM9.47949 14.5029L10.9561 14.5029C11.626 14.5029 12.0566 14.2432 12.248 13.7236C12.4395 13.2041 12.5352 12.582 12.5352 11.8574L12.5352 8.22754C12.5352 7.06543 12.0225 6.48438 10.9971 6.48438L9.47949 6.48438L9.47949 14.5029ZM10.1973 30.6426C12.0703 30.6426 13.0068 29.7539 13.0068 27.9766L13.0068 23.4648C13.0068 22.4395 12.8496 21.6328 12.5352 21.0449C12.2344 20.4434 11.6602 20.1426 10.8125 20.1426L9.47949 20.1426L9.47949 30.6016C9.78027 30.6289 10.0195 30.6426 10.1973 30.6426ZM31.0127 37.3281C28.8252 37.3281 27.082 36.918 25.7832 36.0977C24.4844 35.2773 23.5547 34.0947 22.9941 32.5498C22.4336 31.0049 22.1533 29.1455 22.1533 26.9717L22.1533 14.6055C22.1533 11.748 22.9736 9.58789 24.6143 8.125C26.2549 6.64844 28.5107 5.91016 31.3818 5.91016C37.2881 5.91016 40.2412 8.80859 40.2412 14.6055L40.2412 16.8408C40.2412 19.5479 40.2139 21.3662 40.1592 22.2959L29.4951 22.2959L29.4951 28.2432C29.4951 28.79 29.5293 29.3301 29.5977 29.8633C29.666 30.3828 29.8164 30.8135 30.0488 31.1553C30.2949 31.4971 30.6846 31.668 31.2178 31.668C31.9834 31.668 32.4619 31.3398 32.6533 30.6836C32.8447 30.0137 32.9404 29.1455 32.9404 28.0791L32.9404 25.126L40.2412 25.126L40.2412 26.8691C40.2412 29.166 39.9541 31.0938 39.3799 32.6523C38.8193 34.1973 37.8623 35.3662 36.5088 36.1592C35.1689 36.9385 33.3369 37.3281 31.0127 37.3281ZM29.4541 18.6455L32.9404 18.6455L32.9404 14.5029C32.9404 13.3955 32.8037 12.6025 32.5303 12.124C32.2568 11.6318 31.8467 11.3857 31.2998 11.3857C30.7119 11.3857 30.2539 11.6182 29.9258 12.083C29.6113 12.5479 29.4541 13.3545 29.4541 14.5029L29.4541 18.6455ZM42.9072 42.127L42.9072 6.23828L50.3721 6.23828L50.3721 9.51953C50.8232 8.38477 51.4453 7.50293 52.2383 6.87402C53.0449 6.23145 54.1934 5.91016 55.6836 5.91016C57.6934 5.91016 59.1084 6.6416 59.9287 8.10449C60.7627 9.56738 61.1797 11.4814 61.1797 13.8467L61.1797 28.9814C61.1797 30.5537 60.9541 31.9756 60.5029 33.2471C60.0654 34.5049 59.3682 35.5029 58.4111 36.2412C57.4678 36.9658 56.2305 37.3281 54.6992 37.3281C52.7031 37.3281 51.2607 36.125 50.3721 33.7188L50.3721 42.127L42.9072 42.127ZM52.1152 31.6064C52.8809 31.6064 53.3389 31.2236 53.4893 30.458C53.6533 29.6924 53.7354 28.749 53.7354 27.6279L53.7354 15.6104C53.7354 14.4756 53.6533 13.5322 53.4893 12.7803C53.3389 12.0146 52.8809 11.6318 52.1152 11.6318C51.3223 11.6318 50.8301 12.0215 50.6387 12.8008C50.4609 13.5664 50.3721 14.5029 50.3721 15.6104L50.3721 27.6279C50.3721 28.7354 50.4609 29.6787 50.6387 30.458C50.8301 31.2236 51.3223 31.6064 52.1152 31.6064ZM69.5879 37.3281C67.8789 37.3281 66.5732 36.9316 65.6709 36.1387C64.7822 35.3457 64.1738 34.2588 63.8457 32.8779C63.5176 31.4971 63.3535 29.9316 63.3535 28.1816C63.3535 26.3086 63.5381 24.7773 63.9072 23.5879C64.2764 22.3848 64.9053 21.4004 65.7939 20.6348C66.6963 19.8691 67.9336 19.2197 69.5059 18.6865L74.0586 17.1279L74.0586 13.9697C74.0586 12.3154 73.5186 11.4883 72.4385 11.4883C71.4541 11.4883 70.9619 12.1582 70.9619 13.498L70.9619 15.3438L63.8252 15.3438C63.8115 15.2344 63.8047 15.0977 63.8047 14.9336C63.8047 14.7559 63.8047 14.5576 63.8047 14.3389C63.8047 11.2764 64.5225 9.10938 65.958 7.83789C67.4072 6.55273 69.6973 5.91016 72.8281 5.91016C74.4687 5.91016 75.9385 6.2041 77.2373 6.79199C78.5361 7.36621 79.5615 8.2207 80.3135 9.35547C81.0791 10.4902 81.4619 11.8916 81.4619 13.5596L81.4619 37L74.1611 37L74.1611 33.3496C73.8057 34.6348 73.2178 35.6191 72.3975 36.3027C71.5771 36.9863 70.6406 37.3281 69.5879 37.3281ZM72.4795 31.627C73.0811 31.627 73.4912 31.374 73.71 30.8682C73.9287 30.3623 74.0381 29.8154 74.0381 29.2275L74.0381 20.6553C73.0264 21.0654 72.2402 21.585 71.6797 22.2139C71.1191 22.8291 70.8389 23.7383 70.8389 24.9414L70.8389 28.8994C70.8389 30.7178 71.3857 31.627 72.4795 31.627ZM83.6973 42.127L83.6973 37.4717L87.2246 37.4717C87.7578 37.4717 88.0244 37.2871 88.0244 36.918C88.0244 36.7266 88.0039 36.5283 87.9629 36.3232L83.1436 6.23828L90.1777 6.23828L92.2285 28.8789L94.6484 6.23828L101.724 6.23828L96.0225 38.5996C95.8174 39.7617 95.4209 40.6367 94.833 41.2246C94.2588 41.8262 93.3086 42.127 91.9824 42.127L83.6973 42.127Z" fill="url(#paint1_linear_2_68)"/>
<defs>
<linearGradient id="paint0_linear_2_68" x1="12.55" y1="41.373" x2="21.0768" y2="78.284" gradientUnits="userSpaceOnUse">
<stop stop-color="#7A96AC"/>
<stop offset="0.18" stop-color="#EAEFF3"/>
<stop offset="0.315" stop-color="#C2D4E1"/>
<stop offset="0.491919" stop-color="white"/>
<stop offset="0.615" stop-color="#D4DEE5"/>
<stop offset="0.785" stop-color="#ABBDC8"/>
<stop offset="0.955" stop-color="#BCCAD7"/>
</linearGradient>
<linearGradient id="paint1_linear_2_68" x1="3.05" y1="1.75" x2="22.3172" y2="62.2686" gradientUnits="userSpaceOnUse">
<stop stop-color="#7A96AC"/>
<stop offset="0.18" stop-color="#EAEFF3"/>
<stop offset="0.315" stop-color="#C2D4E1"/>
<stop offset="0.491919" stop-color="white"/>
<stop offset="0.615" stop-color="#D4DEE5"/>
<stop offset="0.785" stop-color="#ABBDC8"/>
<stop offset="0.955" stop-color="#BCCAD7"/>
</linearGradient>
</defs>
</svg>
