<svg width="103" height="62" viewBox="0 0 103 62" fill="none" xmlns="http://www.w3.org/2000/svg">
<path d="M20.9901 54.6415C20.9901 55.3255 20.8101 55.9135 20.4501 56.4055C20.1021 56.8975 19.6281 57.2755 19.0281 57.5395C18.4281 57.8035 17.7681 57.9355 17.0481 57.9355H10.9461V45.1555H17.5341C18.1341 45.1555 18.6501 45.3175 19.0821 45.6415C19.5261 45.9535 19.8621 46.3615 20.0901 46.8655C20.3301 47.3575 20.4501 47.8735 20.4501 48.4135C20.4501 49.0375 20.2881 49.6255 19.9641 50.1775C19.6521 50.7175 19.2021 51.1195 18.6141 51.3835C19.3461 51.5995 19.9221 51.9955 20.3421 52.5715C20.7741 53.1355 20.9901 53.8255 20.9901 54.6415ZM18.9201 54.2635C18.9201 53.9035 18.8421 53.5795 18.6861 53.2915C18.5421 52.9915 18.3381 52.7515 18.0741 52.5715C17.8221 52.3795 17.5221 52.2835 17.1741 52.2835H12.9621V56.1895H17.0481C17.4081 56.1895 17.7261 56.1055 18.0021 55.9375C18.2901 55.7575 18.5121 55.5235 18.6681 55.2355C18.8361 54.9355 18.9201 54.6115 18.9201 54.2635ZM12.9621 46.9015V50.6635H16.6701C17.0061 50.6635 17.3061 50.5855 17.5701 50.4295C17.8341 50.2615 18.0441 50.0395 18.2001 49.7635C18.3561 49.4755 18.4341 49.1515 18.4341 48.7915C18.4341 48.4195 18.3621 48.0955 18.2181 47.8195C18.0741 47.5315 17.8761 47.3095 17.6241 47.1535C17.3841 46.9855 17.1021 46.9015 16.7781 46.9015H12.9621ZM23.813 54.2815V48.5215H25.793V53.8855C25.793 54.7255 25.943 55.3615 26.243 55.7935C26.555 56.2135 27.005 56.4235 27.593 56.4235C27.965 56.4235 28.325 56.3455 28.673 56.1895C29.033 56.0335 29.357 55.8055 29.645 55.5055C29.945 55.1935 30.185 54.8215 30.365 54.3895V48.5215H32.345V55.7035C32.345 55.9315 32.387 56.0935 32.471 56.1895C32.555 56.2855 32.693 56.3395 32.885 56.3515V57.9355C32.681 57.9715 32.513 57.9955 32.381 58.0075C32.249 58.0195 32.123 58.0255 32.003 58.0255C31.643 58.0255 31.343 57.9295 31.103 57.7375C30.863 57.5335 30.725 57.2755 30.689 56.9635L30.653 56.0275C30.233 56.7115 29.687 57.2335 29.015 57.5935C28.343 57.9415 27.605 58.1155 26.801 58.1155C25.817 58.1155 25.073 57.7915 24.569 57.1435C24.065 56.4955 23.813 55.5415 23.813 54.2815ZM39.2998 58.1155C38.5078 58.1155 37.7578 57.9895 37.0498 57.7375C36.3418 57.4735 35.7358 57.0835 35.2318 56.5675L35.9698 55.2355C36.5098 55.7155 37.0498 56.0635 37.5898 56.2795C38.1418 56.4955 38.6878 56.6035 39.2278 56.6035C39.7798 56.6035 40.2298 56.5015 40.5778 56.2975C40.9258 56.0815 41.0998 55.7695 41.0998 55.3615C41.0998 55.0615 41.0098 54.8395 40.8298 54.6955C40.6498 54.5515 40.3858 54.4255 40.0378 54.3175C39.7018 54.2095 39.2938 54.0895 38.8138 53.9575C38.1418 53.7535 37.5778 53.5435 37.1218 53.3275C36.6658 53.0995 36.3238 52.8235 36.0958 52.4995C35.8678 52.1755 35.7538 51.7615 35.7538 51.2575C35.7538 50.6455 35.9098 50.1235 36.2218 49.6915C36.5338 49.2595 36.9658 48.9295 37.5178 48.7015C38.0818 48.4735 38.7298 48.3595 39.4618 48.3595C40.1458 48.3595 40.7758 48.4675 41.3518 48.6835C41.9398 48.8875 42.4558 49.2115 42.8998 49.6555L42.0538 50.9695C41.6338 50.5855 41.2018 50.3035 40.7578 50.1235C40.3258 49.9435 39.8578 49.8535 39.3538 49.8535C39.0658 49.8535 38.7898 49.8895 38.5258 49.9615C38.2618 50.0215 38.0398 50.1415 37.8598 50.3215C37.6918 50.4895 37.6078 50.7295 37.6078 51.0415C37.6078 51.2935 37.6798 51.4975 37.8238 51.6535C37.9678 51.8095 38.1838 51.9415 38.4718 52.0495C38.7598 52.1575 39.1138 52.2775 39.5338 52.4095C40.2658 52.6255 40.8898 52.8415 41.4058 53.0575C41.9218 53.2615 42.3178 53.5315 42.5938 53.8675C42.8818 54.1915 43.0258 54.6415 43.0258 55.2175C43.0258 56.1295 42.6838 56.8435 41.9998 57.3595C41.3278 57.8635 40.4278 58.1155 39.2998 58.1155ZM45.8736 57.9355V48.5215H47.8536V57.9355H45.8736ZM45.8736 46.9735V44.7955H47.8536V46.9735H45.8736ZM59.755 57.9355H57.775V52.6615C57.775 51.7855 57.631 51.1435 57.343 50.7355C57.067 50.3275 56.653 50.1235 56.101 50.1235C55.717 50.1235 55.333 50.2195 54.949 50.4115C54.577 50.6035 54.241 50.8675 53.941 51.2035C53.641 51.5275 53.425 51.9055 53.293 52.3375V57.9355H51.313V48.5215H53.113V50.4115C53.353 49.9915 53.665 49.6315 54.049 49.3315C54.445 49.0195 54.889 48.7795 55.381 48.6115C55.873 48.4435 56.395 48.3595 56.947 48.3595C57.511 48.3595 57.973 48.4615 58.333 48.6655C58.705 48.8695 58.993 49.1515 59.197 49.5115C59.413 49.8595 59.557 50.2675 59.629 50.7355C59.713 51.1915 59.755 51.6775 59.755 52.1935V57.9355ZM67.3992 58.1155C66.6672 58.1155 66.0012 57.9895 65.4012 57.7375C64.8132 57.4735 64.3032 57.1195 63.8712 56.6755C63.4392 56.2195 63.1032 55.7035 62.8632 55.1275C62.6352 54.5395 62.5212 53.9155 62.5212 53.2555C62.5212 52.3675 62.7252 51.5575 63.1332 50.8255C63.5412 50.0815 64.1112 49.4875 64.8432 49.0435C65.5752 48.5875 66.4332 48.3595 67.4172 48.3595C68.4012 48.3595 69.2472 48.5875 69.9552 49.0435C70.6752 49.4875 71.2332 50.0755 71.6292 50.8075C72.0252 51.5395 72.2232 52.3255 72.2232 53.1655C72.2232 53.3095 72.2172 53.4475 72.2052 53.5795C72.1932 53.6995 72.1812 53.8015 72.1692 53.8855H64.6272C64.6632 54.4375 64.8132 54.9235 65.0772 55.3435C65.3532 55.7515 65.7012 56.0755 66.1212 56.3155C66.5412 56.5435 66.9912 56.6575 67.4712 56.6575C67.9992 56.6575 68.4972 56.5255 68.9652 56.2615C69.4452 55.9975 69.7692 55.6495 69.9372 55.2175L71.6292 55.7035C71.4252 56.1595 71.1132 56.5735 70.6932 56.9455C70.2852 57.3055 69.7992 57.5935 69.2352 57.8095C68.6712 58.0135 68.0592 58.1155 67.3992 58.1155ZM64.5732 52.5715H70.2612C70.2252 52.0315 70.0692 51.5575 69.7932 51.1495C69.5292 50.7295 69.1872 50.4055 68.7672 50.1775C68.3592 49.9375 67.9032 49.8175 67.3992 49.8175C66.9072 49.8175 66.4512 49.9375 66.0312 50.1775C65.6232 50.4055 65.2872 50.7295 65.0232 51.1495C64.7592 51.5575 64.6092 52.0315 64.5732 52.5715ZM78.2663 58.1155C77.4743 58.1155 76.7243 57.9895 76.0163 57.7375C75.3083 57.4735 74.7023 57.0835 74.1983 56.5675L74.9363 55.2355C75.4763 55.7155 76.0163 56.0635 76.5563 56.2795C77.1083 56.4955 77.6543 56.6035 78.1943 56.6035C78.7463 56.6035 79.1963 56.5015 79.5443 56.2975C79.8923 56.0815 80.0663 55.7695 80.0663 55.3615C80.0663 55.0615 79.9763 54.8395 79.7963 54.6955C79.6163 54.5515 79.3523 54.4255 79.0043 54.3175C78.6683 54.2095 78.2603 54.0895 77.7803 53.9575C77.1083 53.7535 76.5443 53.5435 76.0883 53.3275C75.6323 53.0995 75.2903 52.8235 75.0623 52.4995C74.8343 52.1755 74.7203 51.7615 74.7203 51.2575C74.7203 50.6455 74.8763 50.1235 75.1883 49.6915C75.5003 49.2595 75.9323 48.9295 76.4843 48.7015C77.0483 48.4735 77.6963 48.3595 78.4283 48.3595C79.1123 48.3595 79.7423 48.4675 80.3183 48.6835C80.9063 48.8875 81.4223 49.2115 81.8663 49.6555L81.0203 50.9695C80.6003 50.5855 80.1683 50.3035 79.7243 50.1235C79.2923 49.9435 78.8243 49.8535 78.3203 49.8535C78.0323 49.8535 77.7563 49.8895 77.4923 49.9615C77.2283 50.0215 77.0063 50.1415 76.8263 50.3215C76.6583 50.4895 76.5743 50.7295 76.5743 51.0415C76.5743 51.2935 76.6463 51.4975 76.7903 51.6535C76.9343 51.8095 77.1503 51.9415 77.4383 52.0495C77.7263 52.1575 78.0803 52.2775 78.5003 52.4095C79.2323 52.6255 79.8563 52.8415 80.3723 53.0575C80.8883 53.2615 81.2843 53.5315 81.5603 53.8675C81.8483 54.1915 81.9923 54.6415 81.9923 55.2175C81.9923 56.1295 81.6503 56.8435 80.9663 57.3595C80.2943 57.8635 79.3943 58.1155 78.2663 58.1155ZM88.1881 58.1155C87.3961 58.1155 86.6461 57.9895 85.9381 57.7375C85.2301 57.4735 84.6241 57.0835 84.1201 56.5675L84.8581 55.2355C85.3981 55.7155 85.9381 56.0635 86.4781 56.2795C87.0301 56.4955 87.5761 56.6035 88.1161 56.6035C88.6681 56.6035 89.1181 56.5015 89.4661 56.2975C89.8141 56.0815 89.9881 55.7695 89.9881 55.3615C89.9881 55.0615 89.8981 54.8395 89.7181 54.6955C89.5381 54.5515 89.2741 54.4255 88.9261 54.3175C88.5901 54.2095 88.1821 54.0895 87.7021 53.9575C87.0301 53.7535 86.4661 53.5435 86.0101 53.3275C85.5541 53.0995 85.2121 52.8235 84.9841 52.4995C84.7561 52.1755 84.6421 51.7615 84.6421 51.2575C84.6421 50.6455 84.7981 50.1235 85.1101 49.6915C85.4221 49.2595 85.8541 48.9295 86.4061 48.7015C86.9701 48.4735 87.6181 48.3595 88.3501 48.3595C89.0341 48.3595 89.6641 48.4675 90.2401 48.6835C90.8281 48.8875 91.3441 49.2115 91.7881 49.6555L90.9421 50.9695C90.5221 50.5855 90.0901 50.3035 89.6461 50.1235C89.2141 49.9435 88.7461 49.8535 88.2421 49.8535C87.9541 49.8535 87.6781 49.8895 87.4141 49.9615C87.1501 50.0215 86.9281 50.1415 86.7481 50.3215C86.5801 50.4895 86.4961 50.7295 86.4961 51.0415C86.4961 51.2935 86.5681 51.4975 86.7121 51.6535C86.8561 51.8095 87.0721 51.9415 87.3601 52.0495C87.6481 52.1575 88.0021 52.2775 88.4221 52.4095C89.1541 52.6255 89.7781 52.8415 90.2941 53.0575C90.8101 53.2615 91.2061 53.5315 91.4821 53.8675C91.7701 54.1915 91.9141 54.6415 91.9141 55.2175C91.9141 56.1295 91.5721 56.8435 90.8881 57.3595C90.2161 57.8635 89.3161 58.1155 88.1881 58.1155Z" fill="url(#paint0_linear_2_62)"/>
<path d="M2.4248 37L2.4248 0.90625L12.207 0.90625C14.832 0.90625 16.7393 1.54883 17.9287 2.83398C19.1318 4.10547 19.7334 6.21094 19.7334 9.15039L19.7334 10.7295C19.7334 12.4248 19.4258 13.7988 18.8105 14.8516C18.209 15.9043 17.2861 16.5947 16.042 16.9229C17.6689 17.333 18.7559 18.2969 19.3027 19.8145C19.8633 21.3184 20.1436 23.1572 20.1436 25.3311C20.1436 27.6689 19.9248 29.7129 19.4873 31.4629C19.0498 33.2129 18.2568 34.5732 17.1084 35.5439C15.96 36.5146 14.3262 37 12.207 37L2.4248 37ZM9.47949 14.5029L10.9561 14.5029C11.626 14.5029 12.0566 14.2432 12.248 13.7236C12.4395 13.2041 12.5352 12.582 12.5352 11.8574L12.5352 8.22754C12.5352 7.06543 12.0225 6.48438 10.9971 6.48438L9.47949 6.48438L9.47949 14.5029ZM10.1973 30.6426C12.0703 30.6426 13.0068 29.7539 13.0068 27.9766L13.0068 23.4648C13.0068 22.4395 12.8496 21.6328 12.5352 21.0449C12.2344 20.4434 11.6602 20.1426 10.8125 20.1426L9.47949 20.1426L9.47949 30.6016C9.78027 30.6289 10.0195 30.6426 10.1973 30.6426ZM31.0127 37.3281C28.8252 37.3281 27.082 36.918 25.7832 36.0977C24.4844 35.2773 23.5547 34.0947 22.9941 32.5498C22.4336 31.0049 22.1533 29.1455 22.1533 26.9717L22.1533 14.6055C22.1533 11.748 22.9736 9.58789 24.6143 8.125C26.2549 6.64844 28.5107 5.91016 31.3818 5.91016C37.2881 5.91016 40.2412 8.80859 40.2412 14.6055L40.2412 16.8408C40.2412 19.5479 40.2139 21.3662 40.1592 22.2959L29.4951 22.2959L29.4951 28.2432C29.4951 28.79 29.5293 29.3301 29.5977 29.8633C29.666 30.3828 29.8164 30.8135 30.0488 31.1553C30.2949 31.4971 30.6846 31.668 31.2178 31.668C31.9834 31.668 32.4619 31.3398 32.6533 30.6836C32.8447 30.0137 32.9404 29.1455 32.9404 28.0791L32.9404 25.126L40.2412 25.126L40.2412 26.8691C40.2412 29.166 39.9541 31.0938 39.3799 32.6523C38.8193 34.1973 37.8623 35.3662 36.5088 36.1592C35.1689 36.9385 33.3369 37.3281 31.0127 37.3281ZM29.4541 18.6455L32.9404 18.6455L32.9404 14.5029C32.9404 13.3955 32.8037 12.6025 32.5303 12.124C32.2568 11.6318 31.8467 11.3857 31.2998 11.3857C30.7119 11.3857 30.2539 11.6182 29.9258 12.083C29.6113 12.5479 29.4541 13.3545 29.4541 14.5029L29.4541 18.6455ZM42.9072 42.127L42.9072 6.23828L50.3721 6.23828L50.3721 9.51953C50.8232 8.38477 51.4453 7.50293 52.2383 6.87402C53.0449 6.23145 54.1934 5.91016 55.6836 5.91016C57.6934 5.91016 59.1084 6.6416 59.9287 8.10449C60.7627 9.56738 61.1797 11.4814 61.1797 13.8467L61.1797 28.9814C61.1797 30.5537 60.9541 31.9756 60.5029 33.2471C60.0654 34.5049 59.3682 35.5029 58.4111 36.2412C57.4678 36.9658 56.2305 37.3281 54.6992 37.3281C52.7031 37.3281 51.2607 36.125 50.3721 33.7188L50.3721 42.127L42.9072 42.127ZM52.1152 31.6064C52.8809 31.6064 53.3389 31.2236 53.4893 30.458C53.6533 29.6924 53.7354 28.749 53.7354 27.6279L53.7354 15.6104C53.7354 14.4756 53.6533 13.5322 53.4893 12.7803C53.3389 12.0146 52.8809 11.6318 52.1152 11.6318C51.3223 11.6318 50.8301 12.0215 50.6387 12.8008C50.4609 13.5664 50.3721 14.5029 50.3721 15.6104L50.3721 27.6279C50.3721 28.7354 50.4609 29.6787 50.6387 30.458C50.8301 31.2236 51.3223 31.6064 52.1152 31.6064ZM69.5879 37.3281C67.8789 37.3281 66.5732 36.9316 65.6709 36.1387C64.7822 35.3457 64.1738 34.2588 63.8457 32.8779C63.5176 31.4971 63.3535 29.9316 63.3535 28.1816C63.3535 26.3086 63.5381 24.7773 63.9072 23.5879C64.2764 22.3848 64.9053 21.4004 65.7939 20.6348C66.6963 19.8691 67.9336 19.2197 69.5059 18.6865L74.0586 17.1279L74.0586 13.9697C74.0586 12.3154 73.5186 11.4883 72.4385 11.4883C71.4541 11.4883 70.9619 12.1582 70.9619 13.498L70.9619 15.3438L63.8252 15.3438C63.8115 15.2344 63.8047 15.0977 63.8047 14.9336C63.8047 14.7559 63.8047 14.5576 63.8047 14.3389C63.8047 11.2764 64.5225 9.10938 65.958 7.83789C67.4072 6.55273 69.6973 5.91016 72.8281 5.91016C74.4687 5.91016 75.9385 6.2041 77.2373 6.79199C78.5361 7.36621 79.5615 8.2207 80.3135 9.35547C81.0791 10.4902 81.4619 11.8916 81.4619 13.5596L81.4619 37L74.1611 37L74.1611 33.3496C73.8057 34.6348 73.2178 35.6191 72.3975 36.3027C71.5771 36.9863 70.6406 37.3281 69.5879 37.3281ZM72.4795 31.627C73.0811 31.627 73.4912 31.374 73.71 30.8682C73.9287 30.3623 74.0381 29.8154 74.0381 29.2275L74.0381 20.6553C73.0264 21.0654 72.2402 21.585 71.6797 22.2139C71.1191 22.8291 70.8389 23.7383 70.8389 24.9414L70.8389 28.8994C70.8389 30.7178 71.3857 31.627 72.4795 31.627ZM83.6973 42.127L83.6973 37.4717L87.2246 37.4717C87.7578 37.4717 88.0244 37.2871 88.0244 36.918C88.0244 36.7266 88.0039 36.5283 87.9629 36.3232L83.1436 6.23828L90.1777 6.23828L92.2285 28.8789L94.6484 6.23828L101.724 6.23828L96.0225 38.5996C95.8174 39.7617 95.4209 40.6367 94.833 41.2246C94.2588 41.8262 93.3086 42.127 91.9824 42.127L83.6973 42.127Z" fill="url(#paint1_linear_2_62)"/>
<defs>
<linearGradient id="paint0_linear_2_62" x1="11.575" y1="41.373" x2="20.0093" y2="78.3288" gradientUnits="userSpaceOnUse">
<stop stop-color="#7A96AC"/>
<stop offset="0.18" stop-color="#EAEFF3"/>
<stop offset="0.315" stop-color="#C2D4E1"/>
<stop offset="0.491919" stop-color="white"/>
<stop offset="0.615" stop-color="#D4DEE5"/>
<stop offset="0.785" stop-color="#ABBDC8"/>
<stop offset="0.955" stop-color="#BCCAD7"/>
</linearGradient>
<linearGradient id="paint1_linear_2_62" x1="3.05" y1="1.75" x2="22.3172" y2="62.2686" gradientUnits="userSpaceOnUse">
<stop stop-color="#7A96AC"/>
<stop offset="0.18" stop-color="#EAEFF3"/>
<stop offset="0.315" stop-color="#C2D4E1"/>
<stop offset="0.491919" stop-color="white"/>
<stop offset="0.615" stop-color="#D4DEE5"/>
<stop offset="0.785" stop-color="#ABBDC8"/>
<stop offset="0.955" stop-color="#BCCAD7"/>
</linearGradient>
</defs>
</svg>
